<svg width="453" height="443" viewBox="0 0 453 443" fill="none" xmlns="http://www.w3.org/2000/svg">
<path d="M36.1964 372.268C64.5619 432.864 131.162 460.747 195.761 429.897C231.097 413.057 258.496 378.135 294.385 362.33C334.69 344.524 379.619 330.376 411.435 293.383C445.322 253.975 459.263 195.036 448.428 144.516C435.177 83.0232 380.102 68.737 333.516 43.7532C142.412 -58.6662 -69.6738 15.2497 22.0482 302.286C29.7089 326.304 26.8103 352.185 36.1964 372.268Z" fill="#FEEBC8" fill-opacity="0.21"/>
<path d="M367.955 107.731L339.728 111.734L331.653 135.958L339.728 144.033L363.952 135.958L367.955 107.731Z" fill="#F7F7F7"/>
<path d="M333.654 142.032C332.55 140.927 332.55 139.133 333.654 138.029L345.732 125.951C346.836 124.847 348.631 124.847 349.735 125.951C350.839 127.055 350.839 128.85 349.735 129.954L337.657 142.032C336.553 143.136 334.759 143.136 333.654 142.032Z" fill="#D3D3D3"/>
<path d="M353.807 129.954C351.599 132.163 347.941 132.163 345.732 129.954C343.524 127.746 343.524 124.088 345.732 121.879C347.941 119.671 351.599 119.671 353.807 121.879C356.016 124.088 356.016 127.676 353.807 129.954Z" fill="#D3D3D3"/>
<path d="M315.503 144.033V148.036L327.581 160.114H331.584L339.659 143.964L331.584 135.889L315.503 144.033Z" fill="#FEEBC8"/>
<path d="M286.793 113.252L289.277 117.807L305.427 121.81L309.154 117.807L305.841 105.453L307.567 97.1025L296.386 94.825L294.661 103.176L286.793 113.252Z" fill="#2A2552"/>
<path d="M296.386 94.8249L307.567 97.1024L309.844 85.9219L299.216 80.8147L296.386 94.8249Z" fill="#C6F6D5"/>
<path d="M279.546 204.974C273.404 203.732 269.401 197.658 270.643 191.516L286.793 113.252L309.154 117.876L293.073 196.071C291.762 202.282 285.758 206.216 279.546 204.974Z" fill="#0B4870"/>
<path d="M315.503 144.033L331.653 160.183L291.348 200.488C286.862 204.974 279.684 204.974 275.198 200.488C270.712 196.002 270.712 188.824 275.198 184.338L315.503 144.033Z" fill="#FEEBC8"/>
<path d="M335.38 169.017L350.84 165.221L356.361 187.375L340.901 191.171L335.38 169.017Z" fill="#2A2552"/>
<path d="M400.6 164.6L377.618 156.318C373.684 154.938 369.405 154.662 365.402 155.697C362.227 156.456 359.259 157.974 356.775 160.114L350.839 165.152L356.292 187.306L363.883 189.031C367.058 189.722 370.44 189.722 373.615 188.893C377.687 187.858 381.344 185.719 384.174 182.613L400.6 164.6Z" fill="#F7F7F7"/>
<path d="M392.663 173.296L383.484 167.499C377.825 164.048 370.716 164.117 365.126 167.706C363.814 168.534 363.4 170.328 364.229 171.639C364.367 171.847 364.505 171.985 364.643 172.123C365.609 173.089 367.058 173.227 368.162 172.537C371.889 170.121 376.651 170.052 380.447 172.399L388.729 177.644L392.663 173.296Z" fill="#D3D3D3"/>
<path d="M336.967 168.603L342.489 190.757L284.308 205.181C278.166 206.699 272.023 202.973 270.505 196.83C268.987 190.688 272.714 184.545 278.856 183.027L336.967 168.603Z" fill="#2F2E41"/>
<path d="M166.429 134.854L135.717 152.384L105.005 134.854L135.717 117.393L166.429 134.854Z" fill="#555175"/>
<path d="M135.717 152.384L116.669 141.48L105.005 148.105L135.717 165.635L166.429 148.105L154.766 141.48L135.717 152.384Z" fill="#3AD4AF"/>
<path d="M135.717 165.635L116.669 154.731L105.005 161.356L135.717 178.886L166.429 161.356L154.766 154.731L135.717 165.635Z" fill="#2A2552"/>
<path d="M250.629 296.558H175.815C172.296 296.558 169.466 293.728 169.466 290.209C169.466 286.689 172.296 283.859 175.815 283.859H250.629C254.148 283.859 256.978 286.689 256.978 290.209C256.978 293.797 254.148 296.558 250.629 296.558Z" fill="#D3D3D3"/>
<path d="M197.698 369.964V376.313H262.09V369.964H197.698Z" fill="#2A2552"/>
<path d="M203.698 375.029C204.25 378.342 202.041 381.447 198.729 382C195.416 382.552 192.31 380.343 191.758 377.03C191.206 373.718 193.414 370.612 196.727 370.06C200.04 369.508 203.146 371.716 203.698 375.029Z" fill="#2A2552"/>
<path d="M232.753 292.417H226.404V372.544H232.753V292.417Z" fill="#2A2552"/>
<path d="M268.09 375.029C268.642 378.342 266.433 381.447 263.12 382C259.808 382.552 256.702 380.343 256.15 377.03C255.598 373.718 257.806 370.612 261.119 370.06C264.432 369.508 267.537 371.716 268.09 375.029Z" fill="#2A2552"/>
<path d="M270.298 296.558H199.557C194.726 296.558 191.275 291.865 192.655 287.103L226.404 170.742C227.301 167.637 230.131 165.497 233.306 165.497H303.978C308.809 165.497 312.26 170.19 310.879 174.952L277.2 291.313C276.302 294.419 273.473 296.558 270.298 296.558Z" fill="#D3D3D3"/>
<path d="M260.567 296.558H199.005C194.174 296.558 190.723 291.865 192.103 287.103L225.852 170.742C226.749 167.637 229.579 165.497 232.753 165.497H294.316C299.147 165.497 302.597 170.19 301.217 174.952L267.468 291.313C266.571 294.419 263.742 296.558 260.567 296.558Z" fill="#F2F2F2"/>
<path d="M270.229 296.558H195.416C191.896 296.558 189.066 293.728 189.066 290.209C189.066 286.689 191.896 283.859 195.416 283.859H270.229C273.749 283.859 276.578 286.689 276.578 290.209C276.578 293.797 273.749 296.558 270.229 296.558Z" fill="#D3D3D3"/>
<path d="M209.702 197.797L194.381 241.898L197.969 250.594L218.605 246.66L224.471 199.453L209.702 197.797Z" fill="#FFE3CA"/>
<path d="M218.95 176.333C218.95 176.333 206.873 183.165 204.181 205.802L220.193 215.327L218.95 176.333Z" fill="#C6F6D5"/>
<path d="M239.655 167.637L218.95 176.333L202.662 248.937L257.254 270.47L286.31 187.651C286.31 187.651 281.548 170.328 254.286 165.98L239.655 167.637Z" fill="#C6F6D5"/>
<path d="M294.799 252.94C294.73 251.974 294.177 246.246 293.97 245.348L284.998 187.789C283.273 179.921 274.37 175.918 267.33 179.852C262.154 182.751 259.808 188.962 261.809 194.484L272.507 243.899L294.799 252.94Z" fill="#FFE3CA"/>
<path d="M282.583 240.586L221.711 235.824L218.674 246.66L277.269 266.467C286.31 269.504 295.489 262.395 294.799 252.94C294.316 246.384 289.139 241.138 282.583 240.586Z" fill="#FFE3CA"/>
<path d="M278.856 178.058C278.856 178.058 286.655 181.44 289.968 201.523L262.568 209.943C262.568 209.943 244.624 189.86 263.811 176.471L278.856 178.058Z" fill="#C6F6D5"/>
<path d="M202.594 247.281C204.802 253.285 216.121 253.492 222.056 251.284C228.06 249.075 234.203 245.624 231.925 239.62C229.717 233.616 219.709 230.096 213.222 231.545C205.285 233.409 200.316 241.345 202.594 247.281Z" fill="#FFE3CA"/>
<path d="M235.721 255.425L192.241 249.834L192.862 244.934L236.342 250.524C237.722 250.732 238.62 251.905 238.482 253.285C238.275 254.665 237.032 255.632 235.721 255.425Z" fill="#FEEBC8"/>
<path d="M197.969 250.594L140.41 243.209C137.097 242.795 134.475 240.172 133.992 236.859L127.918 195.105C127.366 191.378 130.541 188.203 134.199 188.686L187.065 195.45C189.273 195.726 190.999 197.451 191.275 199.66L197.969 250.594Z" fill="#FEEBC8"/>
<path d="M166.015 221.883C165.601 224.92 162.909 226.99 159.873 226.645C156.836 226.231 154.766 223.539 155.111 220.503C155.525 217.466 158.216 215.395 161.253 215.741C164.29 216.155 166.429 218.915 166.015 221.883Z" fill="white"/>
<path d="M129.161 360.881L114.184 367.092L104.729 367.782C100.381 368.127 96.7923 371.233 95.8261 375.512L95.412 377.514L146.622 383.932L147.657 363.296L129.161 360.881Z" fill="#555175"/>
<path d="M147.726 363.296L152.764 340.797L134.199 338.313L129.161 360.881L147.726 363.296Z" fill="#FFE3CA"/>
<path d="M257.185 270.47C257.185 270.47 255.736 282.893 233.444 284.549H179.887L154.628 355.014L128.057 350.735L154.628 247.281L215.5 254.044L257.185 270.47Z" fill="#2A2552"/>
<path d="M86.2329 320.437L70.2212 318.091L61.7323 313.812C57.8674 311.88 53.1053 312.708 50.1376 315.882L48.7573 317.401L89.4076 349.217L100.864 332.032L86.2329 320.437Z" fill="#555175"/>
<path d="M101.002 332.032L114.943 314.295L100.312 302.562L86.2329 320.437L101.002 332.032Z" fill="#FFE3CA"/>
<path d="M202.662 248.937L161.391 236.583C159.666 236.031 157.94 235.479 156.284 234.789C152.695 233.409 143.723 231.545 136.752 242.174C127.78 255.839 92.0302 307.463 92.0302 307.463L113.839 323.543L161.46 262.809C165.463 257.288 171.881 254.044 178.645 254.044L215.499 253.975L202.662 248.937Z" fill="#2A2552"/>
<path d="M255.736 144.999C256.495 143.619 269.263 120.844 257.53 115.116C257.53 115.116 256.012 103.107 242.554 104.418C229.096 105.729 232.753 109.663 224.195 107.731C215.637 105.798 207.563 110.215 208.184 117.324C208.805 124.502 214.326 127.538 224.195 125.813C234.065 124.088 241.863 125.399 241.863 125.399L250.076 127.814L255.736 144.999Z" fill="#555175"/>
<path d="M257.392 169.638L256.357 140.72L236.273 147.829L237.861 171.018C238.206 176.402 241.242 180.611 246.626 180.197L248.282 180.059C253.665 179.714 257.737 175.09 257.392 169.638Z" fill="#FFE3CA"/>
<path d="M254.631 144.723C254.631 144.723 258.427 168.879 237.792 170.259L236.894 158.802L254.631 144.723Z" fill="#FCD2B1"/>
<path d="M237.585 164.876H238.275C248.558 164.393 256.495 155.697 256.012 145.413L255.046 124.433C254.908 121.741 252.63 119.74 250.007 119.809L225.507 120.982C220.745 121.189 217.087 125.261 217.294 130.023L218.122 147.277C218.605 157.422 227.301 165.359 237.585 164.876Z" fill="#FFE3CA"/>
<path d="M251.388 139.064C251.526 142.515 254.493 145.206 257.944 145.068C261.395 144.93 264.087 141.963 263.949 138.512C263.811 135.061 260.843 132.369 257.392 132.508C253.872 132.646 251.181 135.544 251.388 139.064Z" fill="#FFE3CA"/>
<path d="M248.351 122.224L249.593 145.69C249.731 147.829 248.834 149.969 247.109 151.142C246.005 151.901 245.107 152.936 243.175 152.66C237.585 151.832 240.138 147.691 228.82 148.312C218.467 148.864 219.226 154.662 219.226 154.662C219.226 154.662 221.228 165.635 235.445 166.118C249.662 166.67 256.771 157.629 255.115 145.69L253.734 120.913L248.351 122.224Z" fill="#555175"/>
<path d="M217.984 126.158C217.984 126.158 224.61 127.193 234.203 124.847C243.796 122.5 251.388 130.23 251.388 130.23C251.388 130.23 253.458 133.819 253.941 133.681C254.424 133.612 257.392 132.439 257.392 132.439L257.254 121.603L250.214 116.151L230.752 115.323L219.226 117.876L217.984 126.158Z" fill="#555175"/>
<path d="M223.022 74.9484L223.505 75.9836L213.222 80.6767L212.739 79.5724C210.737 75.2244 206.942 71.6356 202.386 69.7032C198.453 68.0468 195.692 64.8721 194.45 60.8692C192.724 54.7958 195.554 47.066 202.594 43.8223C209.978 40.4405 218.536 43.5462 221.78 50.5168C223.229 53.6915 223.436 57.3494 222.194 60.7311C220.538 65.3552 220.883 70.3243 223.022 74.9484ZM225.921 81.0908C226.473 82.2641 225.921 83.6444 224.679 84.1965L218.743 86.8881C217.501 87.4402 216.121 86.9571 215.569 85.7149L214.326 83.0232L224.61 78.3302L225.921 81.0908Z" fill="#FEEBC8"/>
<path d="M198.491 31.8157L196.042 32.9329L198.62 38.584L201.069 37.4669L198.491 31.8157Z" fill="#FEEBC8"/>
<path d="M216.949 36.5756L219.433 37.4728L221.78 31.6064L219.295 30.7092L216.949 36.5756Z" fill="#FEEBC8"/>
<path d="M236.737 45.2265L230.834 47.9191L231.923 50.3051L237.825 47.6125L236.737 45.2265Z" fill="#FEEBC8"/>
<path d="M186.986 67.9397L181.084 70.6323L182.173 73.0184L188.075 70.3258L186.986 67.9397Z" fill="#FEEBC8"/>
<path d="M181.613 47.8942L180.646 50.3787L186.582 52.4492L187.479 49.9646L181.613 47.8942Z" fill="#FEEBC8"/>
<path d="M128.402 99.5179L125.572 96.6883C125.089 96.2052 124.468 95.9291 123.777 95.9291C123.087 95.9291 122.466 96.2052 121.983 96.6883L121.569 97.1024C117.842 94.6178 113.425 93.3065 108.87 93.2375H108.801C105.971 93.2375 103.211 93.7206 100.657 94.7558L105.626 89.7867C106.247 90.0628 106.938 90.2698 107.628 90.2698C108.87 90.2698 110.112 89.7867 110.941 88.8895C111.838 87.9923 112.321 86.819 112.321 85.5767C112.321 84.3344 111.838 83.0922 110.941 82.264C110.043 81.3668 108.87 80.8837 107.628 80.8837C106.385 80.8837 105.143 81.3668 104.315 82.264C103.418 83.1612 102.935 84.3344 102.935 85.5767C102.935 86.2669 103.073 86.9571 103.418 87.5782L94.4457 96.5503L94.1697 96.2742C93.6866 95.7911 93.0654 95.515 92.3753 95.515C91.6851 95.515 91.064 95.7911 90.5809 96.2742L87.6822 99.1038C87.1991 99.5869 86.923 100.208 86.923 100.898C86.923 101.588 87.1991 102.21 87.6822 102.693L87.9583 102.969L78.9862 111.941C78.3651 111.665 77.6749 111.458 76.9847 111.458C75.7425 111.458 74.5002 111.941 73.672 112.838C71.8086 114.701 71.8086 117.669 73.672 119.533C74.5692 120.43 75.7425 120.913 76.9847 120.913C78.227 120.913 79.4693 120.43 80.2975 119.533C81.7468 118.083 82.0919 115.875 81.1947 114.149L86.1638 109.18C85.1976 111.803 84.6455 114.563 84.6455 117.393C84.6455 121.948 85.9568 126.296 88.5104 130.092L88.0273 130.575C87.0611 131.541 87.0611 133.198 88.0273 134.164L90.8569 136.994C91.34 137.477 91.9612 137.753 92.6513 137.753C93.3415 137.753 93.9626 137.477 94.4457 136.994L97.2754 134.164C98.2416 133.198 98.2416 131.541 97.2754 130.575L94.4457 127.745C93.9626 127.262 93.3415 126.986 92.6513 126.986C91.9612 126.986 91.34 127.262 90.8569 127.745L90.7879 127.814C86.716 121.189 86.854 112.562 91.34 106.074C91.6161 106.212 91.9612 106.281 92.2372 106.281C92.9274 106.281 93.5485 106.005 94.0316 105.522L96.8613 102.693C97.6205 101.933 97.7585 100.898 97.4134 100.001C103.901 95.515 112.528 95.308 119.153 99.4489L118.946 99.656C117.98 100.622 117.98 102.279 118.946 103.245L121.776 106.074C122.259 106.558 122.88 106.834 123.57 106.834C124.261 106.834 124.882 106.558 125.365 106.074L128.194 103.245C129.368 102.141 129.368 100.553 128.402 99.5179ZM94.7218 132.369L92.7203 134.371L90.7189 132.369L92.7203 130.368L94.7218 132.369ZM106.524 84.3345C106.8 84.0584 107.214 83.8513 107.628 83.8513C108.042 83.8513 108.456 83.9894 108.732 84.3345C109.008 84.6105 109.215 85.0246 109.215 85.4387C109.215 85.8528 109.077 86.2669 108.732 86.543C108.456 86.819 108.042 87.0261 107.628 87.0261C107.214 87.0261 106.8 86.888 106.524 86.543C106.247 86.2669 106.04 85.8528 106.04 85.4387C106.109 85.0246 106.247 84.6795 106.524 84.3345ZM78.089 117.255C77.8129 117.531 77.3988 117.738 76.9847 117.738C76.5706 117.738 76.1566 117.6 75.8805 117.255C75.2593 116.634 75.2593 115.668 75.8805 115.046C76.1566 114.77 76.5706 114.563 76.9847 114.563C77.3988 114.563 77.8129 114.701 78.089 115.046C78.7101 115.668 78.7101 116.703 78.089 117.255ZM92.3063 102.831L90.3048 100.829L92.3063 98.8278L94.3077 100.829L92.3063 102.831ZM123.708 103.314L121.707 101.312L123.708 99.3109L125.71 101.312L123.708 103.314Z" fill="#2A2552"/>
</svg>
