<svg width="550" height="480" viewBox="0 0 550 480" fill="none" xmlns="http://www.w3.org/2000/svg">
<path d="M481.427 179.001C477.02 180.502 469.877 179.408 469.877 179.408L469.423 173.278L469 173.364C467.311 173.744 465.563 173.756 463.87 173.398C462.177 173.041 460.577 172.323 459.179 171.292C457.78 170.26 456.614 168.938 455.757 167.415C454.899 165.892 454.371 164.201 454.208 162.455C454.208 158.918 453.721 154.814 451.397 152.563C450.181 151.32 443.239 150.345 443.852 146.402C444.465 142.458 451.967 142.393 451.967 142.393L453.605 139.04L492.606 139.736L486.266 178.047L481.427 179.001Z" fill="white"/>
<path d="M443.472 275.451C443.472 275.451 450.688 229.455 451.587 223.915L446.937 201.056L451.946 188.818C454.06 183.557 457.842 178.263 464.531 177.727L469.623 177.33L508.202 180.363C508.202 180.363 514.964 182.721 517.436 188.636C518.863 192.141 524.082 209.448 528.109 222.929C529.348 227.077 529.023 231.545 527.198 235.463C525.372 239.382 522.176 242.473 518.229 244.137L518.546 246.505C518.546 246.505 521.811 269.407 521.864 275.204L443.472 275.451Z" fill="#78F7BB" fill-opacity="0.2"/>
<path d="M408.846 167.385L428.405 162.959C428.405 162.959 427.675 149.081 414.668 150.399C399.717 152.017 408.846 167.385 408.846 167.385Z" fill="white"/>
<path d="M443.387 276.521H443.281C443.021 276.444 442.793 276.284 442.631 276.063C442.468 275.843 442.381 275.574 442.383 275.3C442.521 274.55 454.101 200.97 455 195.441C455.04 195.157 455.19 194.9 455.418 194.728C455.644 194.557 455.929 194.482 456.21 194.524C456.49 194.565 456.742 194.718 456.911 194.947C457.081 195.178 457.154 195.467 457.113 195.751C456.214 201.292 444.634 274.871 444.496 275.61C444.457 275.875 444.321 276.116 444.116 276.285C443.911 276.453 443.65 276.538 443.387 276.521Z" fill="black"/>
<path d="M405.2 154.738C405.2 154.738 403.838 154.46 402.897 156.561C401.957 158.661 400.985 165.809 403.256 166.881C405.528 167.952 406.342 164.244 406.712 163.183C407.081 162.122 408.202 156.282 408.202 156.282C408.202 156.282 406.163 154.524 405.2 154.738Z" fill="white"/>
<path d="M404.038 168.211C403.65 168.157 403.267 168.064 402.897 167.932C399.484 166.271 401.238 157.987 401.957 156.198C402.908 154.055 404.303 153.626 405.126 153.669C406.511 153.519 408.233 154.998 408.951 155.566C409.086 155.688 409.191 155.842 409.255 156.013C409.319 156.185 409.342 156.369 409.321 156.552C409.194 157.194 408.095 162.5 407.726 163.56L407.61 163.871C407.24 165.039 406.606 167.257 405.095 167.932C404.786 168.149 404.412 168.247 404.038 168.211ZM405.095 155.812C404.883 155.812 404.451 156.102 403.986 157.044C403.024 159.36 402.538 165.339 403.879 165.939C404.196 166.068 404.303 166.068 404.408 165.939C405.063 165.65 405.57 163.796 405.813 163.218L405.93 162.788C406.173 162.157 406.849 158.974 407.282 156.637C406.765 156.177 406.171 155.814 405.528 155.566C405.477 155.647 405.405 155.714 405.319 155.757C405.234 155.801 405.137 155.82 405.042 155.812H405.095Z" fill="black"/>
<path d="M408.961 148.921C408.961 148.921 405.95 147.699 404.428 148.696C402.907 149.693 403.657 153.807 404.111 155.34C404.566 156.873 406.395 160.913 408.233 160.044C410.071 159.176 411.54 150.324 408.961 148.921Z" fill="white"/>
<path d="M407.545 161.189C407.258 161.186 406.972 161.136 406.701 161.039C404.524 160.075 403.14 155.82 403.034 155.681C402.928 155.542 401.111 149.476 403.827 147.891C405.94 146.593 409.004 147.891 409.321 148.041H409.426C410.663 148.737 411.329 150.377 411.308 152.959C411.308 155.745 410.346 160.096 408.613 160.975C408.269 161.098 407.91 161.17 407.545 161.189ZM406.193 149.401C405.747 149.36 405.298 149.452 404.904 149.669C404.144 150.055 404.439 152.97 405.084 155.028C405.539 156.442 406.7 158.757 407.535 159.111H407.641C408.191 158.703 409.405 155.328 409.226 152.317C409.226 150.816 408.792 150.172 408.486 149.926C407.756 149.627 406.981 149.456 406.193 149.422V149.401Z" fill="black"/>
<path d="M415.513 146.874C414.735 145.643 413.597 144.687 412.259 144.142C410.272 143.51 408.57 148.364 408.497 152.007C408.423 155.651 408.93 158.791 411.36 158.684C413.79 158.577 414.53 155.941 414.932 154.676C415.333 153.412 415.513 146.874 415.513 146.874Z" fill="white"/>
<path d="M411.107 159.743C410.313 159.694 409.562 159.354 408.994 158.789C407.779 157.546 407.251 155.274 407.41 151.952C407.546 148.855 408.688 144.933 410.441 143.518C410.725 143.294 411.055 143.138 411.406 143.063C411.758 142.986 412.121 142.992 412.47 143.078C414.069 143.703 415.427 144.829 416.348 146.294C416.454 146.453 416.516 146.638 416.527 146.829C416.454 148.437 416.317 153.688 415.83 155.06L415.704 155.381C415.218 156.753 414.14 159.593 411.276 159.775L411.107 159.743ZM411.984 145.308C411.944 145.308 411.905 145.316 411.869 145.333C411.833 145.35 411.799 145.374 411.773 145.404C410.78 146.219 409.659 149.38 409.554 152.167C409.375 155.906 410.167 157.128 410.473 157.461C410.553 157.575 410.667 157.661 410.797 157.707C410.928 157.753 411.07 157.757 411.202 157.718C412.576 157.718 413.167 156.196 413.77 154.728L413.887 154.406C414.217 152.07 414.4 149.715 414.436 147.354C414.195 146.856 413.851 146.415 413.429 146.062C413.006 145.709 412.513 145.451 411.984 145.308Z" fill="black"/>
<path d="M422.402 146.562C422.402 146.562 420.997 151.748 420.109 154.921C419.221 158.093 416.939 159.207 414.826 158.318C412.713 157.428 413.97 151.888 415.322 147.719C416.675 143.55 420.606 141.643 424.008 142.886C425.361 143.379 426.945 145.811 426.608 148.373" fill="white"/>
<path d="M416.073 159.777C415.532 159.743 415.002 159.608 414.509 159.381C411.339 158.148 413.082 151.364 414.425 147.464C415.148 145.227 416.718 143.373 418.788 142.309C420.545 141.441 422.567 141.307 424.421 141.934C426.291 142.567 428.055 145.545 427.801 148.643C427.76 148.927 427.611 149.183 427.383 149.355C427.157 149.527 426.872 149.6 426.592 149.558C426.311 149.517 426.059 149.365 425.889 149.135C425.72 148.905 425.647 148.616 425.688 148.331C425.9 146.188 424.515 144.195 423.787 143.938C422.461 143.485 421.015 143.57 419.75 144.173C418.174 144.99 416.972 146.397 416.401 148.096C414.551 153.69 414.498 157.013 415.343 157.269C416.024 157.538 416.777 157.538 417.457 157.269C417.91 156.985 418.298 156.606 418.593 156.157C418.888 155.707 419.084 155.198 419.168 154.665C420.057 151.45 421.462 146.296 421.462 146.296L423.575 146.831C423.575 146.831 422.17 152.018 421.282 155.19C421.132 156.021 420.799 156.806 420.309 157.489C419.818 158.171 419.183 158.734 418.45 159.134C417.749 159.608 416.914 159.834 416.073 159.777Z" fill="black"/>
<path d="M434.765 155.951L391.887 143.166C391.279 142.991 390.764 142.58 390.454 142.022C390.143 141.464 390.062 140.805 390.228 140.187C390.31 139.882 390.453 139.596 390.645 139.345C390.836 139.096 391.076 138.887 391.348 138.73C391.619 138.574 391.919 138.473 392.229 138.435C392.539 138.396 392.853 138.42 393.155 138.504L436.044 151.311C436.65 151.488 437.163 151.899 437.473 152.456C437.783 153.013 437.866 153.672 437.703 154.29C437.623 154.597 437.482 154.886 437.29 155.137C437.097 155.389 436.856 155.599 436.582 155.753C436.308 155.909 436.006 156.006 435.693 156.04C435.381 156.074 435.066 156.043 434.765 155.951Z" fill="white"/>
<path d="M435.24 157.151C434.951 157.161 434.664 157.11 434.396 157.001L391.517 144.216C391.076 144.087 390.665 143.869 390.308 143.576C389.951 143.284 389.655 142.922 389.438 142.511C389.221 142.101 389.086 141.651 389.042 141.188C388.998 140.724 389.045 140.257 389.182 139.812C389.3 139.368 389.511 138.953 389.801 138.598C390.091 138.243 390.453 137.956 390.861 137.755C391.259 137.515 391.702 137.364 392.16 137.311C392.619 137.257 393.084 137.302 393.525 137.444L436.402 150.24C436.842 150.369 437.252 150.587 437.608 150.879C437.965 151.171 438.259 151.532 438.477 151.941C438.694 152.349 438.829 152.798 438.874 153.261C438.919 153.723 438.872 154.19 438.738 154.633C438.514 155.388 438.048 156.044 437.415 156.5C436.781 156.956 436.016 157.185 435.24 157.151ZM435.019 155.008C435.369 155.092 435.735 155.074 436.075 154.955C436.384 154.761 436.621 154.472 436.752 154.13C436.837 153.774 436.818 153.402 436.699 153.058C436.604 152.736 436.192 152.5 435.885 152.372L393.007 139.523C392.656 139.44 392.289 139.461 391.95 139.587C391.641 139.776 391.405 140.067 391.284 140.412C391.229 140.578 391.208 140.754 391.222 140.929C391.237 141.103 391.286 141.273 391.367 141.427C391.448 141.581 391.559 141.718 391.694 141.827C391.829 141.936 391.985 142.016 392.151 142.063L435.029 154.923L435.019 155.008Z" fill="black"/>
<path d="M464.14 263.028L421.399 260.981L407.366 199.05L450.107 201.098L464.14 263.028Z" fill="white"/>
<path d="M464.097 264.1L421.345 262.054C421.114 262.031 420.892 261.944 420.706 261.802C420.52 261.661 420.376 261.47 420.289 261.25L406.288 199.427C406.252 199.259 406.257 199.085 406.3 198.919C406.345 198.753 406.428 198.6 406.542 198.473C406.772 198.236 407.081 198.098 407.409 198.087L450.15 200.134C450.382 200.158 450.602 200.245 450.788 200.387C450.974 200.528 451.119 200.719 451.206 200.938L465.218 262.762C465.254 262.929 465.249 263.104 465.206 263.27C465.161 263.436 465.078 263.588 464.964 263.715C464.734 263.951 464.424 264.089 464.097 264.1ZM422.255 259.954L462.777 261.893L449.272 202.245L408.74 200.295L422.255 259.954Z" fill="black"/>
<path d="M463.492 147.664C463.528 146.895 462.943 146.243 462.185 146.206C461.427 146.169 460.783 146.763 460.747 147.532C460.711 148.3 461.297 148.953 462.055 148.989C462.813 149.026 463.456 148.432 463.492 147.664Z" fill="black"/>
<path d="M469.269 148.594C469.305 147.825 468.72 147.172 467.962 147.136C467.204 147.1 466.561 147.694 466.525 148.462C466.489 149.23 467.075 149.883 467.832 149.919C468.59 149.956 469.233 149.362 469.269 148.594Z" fill="black"/>
<path d="M473.374 180.757C472.104 180.753 470.837 180.62 469.592 180.361C469.064 180.361 468.768 179.889 468.683 179.354L468.229 173.213C468.222 173.068 468.244 172.923 468.294 172.787C468.344 172.651 468.421 172.526 468.519 172.42C468.618 172.315 468.737 172.232 468.869 172.175C469 172.118 469.143 172.088 469.286 172.088C469.429 172.079 469.573 172.101 469.709 172.15C469.845 172.2 469.969 172.278 470.074 172.378C470.179 172.478 470.263 172.6 470.319 172.734C470.377 172.868 470.406 173.014 470.405 173.16L470.796 178.433C472.794 178.636 477.738 179.086 481.078 177.961C481.348 177.874 481.641 177.9 481.893 178.032C482.145 178.165 482.334 178.394 482.419 178.668C482.505 178.942 482.479 179.24 482.349 179.495C482.218 179.751 481.992 179.943 481.722 180.029C479.003 180.762 476.178 181.009 473.374 180.757Z" fill="black"/>
<path d="M451.957 138.966L485.769 140.584C485.769 140.584 481.542 146.178 483.402 150.561C485.262 154.944 487.745 159.348 485.462 162.992C483.921 165.365 483.064 168.127 482.987 170.966C482.91 173.807 483.618 176.612 485.03 179.066C487.143 183.139 485.304 189.054 485.304 189.054L523.67 178.338C523.67 178.338 514.446 167.482 515.218 161.299C515.989 155.115 521.071 151.289 515.218 145.32C509.364 139.351 516.179 136.136 512.681 129.535C510.241 125.013 504.694 123.78 499.167 126.523C497.487 121.722 496.303 117.801 489.044 119.022C485.209 119.697 482.028 119.762 478.098 117.854C474.167 115.946 463.421 115.003 456.194 122.698C450.424 128.592 451.957 138.966 451.957 138.966Z" fill="#243244"/>
<path d="M499.136 127.498H498.925C498.658 127.409 498.432 127.226 498.289 126.981C498.145 126.738 498.093 126.449 498.143 126.169C498.258 125.858 500.256 118.55 507.653 117.188C507.793 117.161 507.937 117.163 508.077 117.193C508.218 117.224 508.35 117.284 508.466 117.367C508.583 117.452 508.681 117.56 508.756 117.683C508.83 117.807 508.879 117.945 508.899 118.089C508.923 118.232 508.918 118.377 508.885 118.518C508.852 118.658 508.792 118.791 508.707 118.907C508.622 119.023 508.514 119.121 508.391 119.194C508.268 119.267 508.132 119.314 507.99 119.332C501.915 120.404 500.14 126.673 500.129 126.833C500.097 127.22 499.558 127.52 499.136 127.498Z" fill="black"/>
<path d="M465.576 174.588C463.268 174.504 461.03 173.762 459.12 172.445C457.463 171.322 456.076 169.837 455.057 168.099C454.039 166.362 453.416 164.416 453.234 162.403C453.16 159.5 452.938 155.309 450.804 153.273C450.229 152.903 449.602 152.621 448.945 152.438C446.345 151.366 442.393 149.865 442.985 146.243C443.841 141.571 451.259 141.388 452.104 141.431C452.373 141.465 452.622 141.589 452.814 141.783C453.005 141.977 453.127 142.231 453.16 142.503C453.144 142.781 453.026 143.044 452.832 143.242C452.637 143.438 452.378 143.557 452.104 143.574C450.413 143.574 445.521 144.229 445.088 146.672C444.792 148.375 446.969 149.447 449.769 150.551C450.685 150.864 451.556 151.3 452.358 151.848C455.094 154.452 455.411 158.975 455.454 162.564C455.613 164.228 456.136 165.834 456.983 167.267C457.832 168.7 458.984 169.923 460.356 170.848C463.643 173.045 468.081 173.153 472.931 171.127C473.063 171.047 473.21 170.998 473.363 170.982C473.516 170.967 473.67 170.985 473.815 171.036C473.96 171.087 474.093 171.17 474.204 171.278C474.314 171.386 474.399 171.518 474.455 171.663C474.51 171.808 474.534 171.964 474.523 172.119C474.513 172.275 474.47 172.426 474.396 172.563C474.323 172.7 474.22 172.819 474.096 172.911C473.973 173.003 473.831 173.067 473.68 173.099C471.102 174.131 468.348 174.638 465.576 174.588Z" fill="black"/>
<path d="M474.273 259.011C474.061 259.011 473.956 259.011 473.861 258.893C473.738 258.82 473.629 258.723 473.544 258.607C473.458 258.491 473.397 258.359 473.364 258.218L466.137 229.445C466.104 229.298 466.1 229.148 466.125 229C466.151 228.853 466.205 228.713 466.284 228.587C466.475 228.339 466.744 228.165 467.045 228.094L504.44 222.383C504.579 222.358 504.723 222.362 504.86 222.396C504.999 222.428 505.128 222.488 505.243 222.574C505.358 222.659 505.454 222.766 505.527 222.89C505.599 223.013 505.646 223.15 505.665 223.293C505.689 223.434 505.685 223.58 505.652 223.72C505.62 223.86 505.56 223.992 505.477 224.108C505.393 224.224 505.286 224.321 505.165 224.395C505.043 224.468 504.907 224.516 504.768 224.536L468.545 229.991L475.234 256.589L516.559 243.665C520.621 242.375 524.019 239.515 526.019 235.706C528.019 231.896 528.463 227.442 527.252 223.304C521.399 203.596 517.743 191.733 516.58 189.011C514.393 183.653 508.053 181.306 507.948 181.306C507.792 181.289 507.643 181.237 507.51 181.154C507.375 181.072 507.263 180.959 507.177 180.827C507.091 180.694 507.035 180.544 507.014 180.386C506.993 180.229 507.007 180.069 507.054 179.918C507.101 179.767 507.18 179.628 507.287 179.512C507.393 179.395 507.523 179.304 507.669 179.245C507.814 179.186 507.97 179.161 508.126 179.17C508.282 179.181 508.434 179.226 508.572 179.302C508.878 179.42 515.852 181.896 518.419 188.143C519.845 191.636 525.065 208.837 529.186 222.553C530.557 227.236 530.059 232.277 527.8 236.59C525.541 240.905 521.701 244.146 517.109 245.616L474.706 258.915C474.574 258.989 474.424 259.023 474.273 259.011Z" fill="black"/>
<path d="M433.698 237.534C437.316 237.534 440.249 234.56 440.249 230.889C440.249 227.22 437.316 224.245 433.698 224.245C430.08 224.245 427.147 227.22 427.147 230.889C427.147 234.56 430.08 237.534 433.698 237.534Z" fill="#243244"/>
<path d="M467.098 229.167C467.098 229.167 464.446 224.88 461.35 223.102C458.254 221.322 456.067 214.903 453.711 216.833C454.566 221.119 456.786 230.389 456.786 230.389C456.786 230.389 445.849 231.149 440.334 229.167C434.818 227.184 434.215 231.128 434.215 231.128C434.215 231.128 433.656 234.107 437.575 236.229C435.24 236.326 433.244 238.276 433.349 239.884C433.455 241.491 434.543 243.805 437.935 243.752C435.008 245.328 434.765 246.71 434.67 247.889C434.47 252.175 444.455 251.361 444.455 251.361C444.455 251.361 439.488 253.504 440.746 256.012C442.098 258.766 446.558 258.434 452.422 257.33C460.431 255.776 472.614 250.9 472.614 250.9L467.098 229.167Z" fill="white"/>
<path d="M444.972 259.108C442.542 258.99 440.672 258.262 439.689 256.386C439.518 256.02 439.42 255.623 439.405 255.217C439.388 254.812 439.453 254.408 439.594 254.029C439.869 253.41 440.252 252.847 440.725 252.367C438.505 252.26 435.885 251.703 434.47 250.342C434.107 250.015 433.823 249.608 433.64 249.154C433.456 248.698 433.379 248.207 433.413 247.717C433.417 247.053 433.566 246.398 433.849 245.799C434.132 245.201 434.543 244.673 435.05 244.255C434.22 243.879 433.504 243.282 432.982 242.528C432.459 241.773 432.148 240.889 432.081 239.968C432.054 239.445 432.135 238.922 432.316 238.432C432.498 237.94 432.778 237.493 433.137 237.118C433.615 236.596 434.172 236.154 434.787 235.81C434.079 235.226 433.533 234.466 433.201 233.603C432.87 232.742 432.765 231.807 432.894 230.891C433.012 230.331 433.244 229.8 433.575 229.335C433.906 228.87 434.329 228.48 434.818 228.191C436.234 227.29 438.147 227.28 440.429 228.191C444.591 229.681 452.21 229.616 455.285 229.445C454.673 226.733 453.171 220.433 452.474 217.078C452.431 216.882 452.442 216.678 452.508 216.488C452.573 216.299 452.69 216.132 452.844 216.007C453.344 215.551 454 215.312 454.673 215.342C456.152 215.524 457.24 216.97 458.539 218.75C459.392 220.052 460.466 221.191 461.71 222.114C465.006 223.99 467.763 228.416 467.859 228.545C467.897 228.588 467.926 228.638 467.943 228.695C467.959 228.75 467.963 228.809 467.954 228.866L473.396 250.481C473.447 250.726 473.418 250.981 473.313 251.207C473.208 251.434 473.033 251.619 472.814 251.735C472.275 251.928 460.42 256.611 452.411 258.262C449.982 258.895 447.479 259.18 444.972 259.108ZM444.433 250.181C444.665 250.205 444.885 250.292 445.072 250.434C445.258 250.576 445.403 250.766 445.49 250.985C445.537 251.23 445.505 251.485 445.398 251.711C445.291 251.936 445.116 252.122 444.898 252.239C443.842 252.721 442.077 253.718 441.729 254.768C441.663 254.869 441.635 254.989 441.649 255.108C441.662 255.228 441.717 255.338 441.803 255.422C442.859 257.565 447.751 256.987 452.369 256.139C458.983 254.843 468.567 251.231 471.473 250.085L466.232 229.541C464.854 227.333 463.059 225.425 460.949 223.926C459.437 222.88 458.138 221.548 457.124 220.003C456.499 219.115 455.791 218.289 455.01 217.538C455.961 222.093 457.821 229.906 457.821 230.013C457.882 230.303 457.828 230.607 457.673 230.859C457.581 230.976 457.465 231.071 457.334 231.139C457.203 231.207 457.059 231.248 456.912 231.256C456.49 231.256 445.659 232.006 440.006 229.906C438.347 229.295 436.974 229.23 436.202 229.723C435.974 229.854 435.777 230.033 435.622 230.247C435.467 230.462 435.359 230.707 435.304 230.966C435.304 231.074 434.987 233.206 438.083 234.964C438.284 235.088 438.445 235.268 438.547 235.482C438.649 235.698 438.686 235.939 438.653 236.175C438.59 236.395 438.462 236.591 438.287 236.737C438.112 236.882 437.897 236.97 437.671 236.989C436.68 237.068 435.753 237.518 435.071 238.253C434.723 238.583 434.511 239.035 434.48 239.518C434.554 240.161 434.871 242.433 438.051 242.369C438.291 242.362 438.527 242.437 438.719 242.583C438.91 242.729 439.048 242.937 439.108 243.173C439.139 243.416 439.101 243.664 438.998 243.886C438.895 244.108 438.732 244.296 438.527 244.426C435.927 245.809 435.875 246.762 435.832 247.642C435.818 247.824 435.845 248.008 435.911 248.179C435.976 248.349 436.08 248.503 436.213 248.627C437.629 249.988 442.066 250.203 444.507 249.988C444.328 250.17 444.443 250.181 444.443 250.181H444.433Z" fill="black"/>
<path d="M449.104 238.501C444.043 238.254 437.534 237.193 437.323 237.183C437.062 237.106 436.834 236.945 436.671 236.724C436.51 236.504 436.423 236.236 436.425 235.961C436.444 235.821 436.49 235.686 436.561 235.564C436.633 235.442 436.727 235.335 436.84 235.251C436.951 235.165 437.079 235.104 437.214 235.07C437.35 235.036 437.491 235.028 437.629 235.05C437.734 235.05 445.617 236.293 450.573 236.422C450.716 236.422 450.858 236.451 450.99 236.508C451.121 236.565 451.24 236.649 451.339 236.754C451.438 236.859 451.515 236.984 451.565 237.12C451.615 237.257 451.637 237.401 451.629 237.547C451.616 237.821 451.498 238.081 451.302 238.27C451.105 238.46 450.844 238.566 450.573 238.565L449.104 238.501Z" fill="black"/>
<path d="M440.872 244.963L437.807 244.823C437.527 244.809 437.264 244.683 437.076 244.472C436.888 244.261 436.79 243.982 436.804 243.698C436.818 243.414 436.943 243.147 437.151 242.957C437.359 242.766 437.634 242.666 437.914 242.68C438.009 242.68 447.074 243.441 451.882 242.488C452.132 242.476 452.378 242.556 452.576 242.71C452.774 242.866 452.912 243.087 452.963 243.336C453.015 243.584 452.979 243.843 452.86 244.066C452.741 244.29 452.548 244.463 452.315 244.556C448.527 245.117 444.689 245.253 440.872 244.963Z" fill="black"/>
<path d="M444.338 252.323C444.072 252.306 443.819 252.195 443.626 252.008C443.433 251.823 443.311 251.573 443.281 251.304C443.273 251.162 443.293 251.02 443.338 250.886C443.384 250.752 443.456 250.628 443.55 250.523C443.643 250.418 443.756 250.332 443.882 250.27C444.008 250.209 444.146 250.175 444.285 250.168C444.391 250.168 452.241 249.697 455.274 248.122C455.403 248.057 455.542 248.018 455.686 248.008C455.828 247.998 455.972 248.017 456.108 248.063C456.244 248.109 456.37 248.182 456.478 248.278C456.585 248.373 456.674 248.489 456.738 248.619C456.801 248.75 456.839 248.891 456.849 249.037C456.86 249.182 456.841 249.327 456.795 249.465C456.75 249.603 456.677 249.73 456.583 249.84C456.489 249.95 456.375 250.039 456.247 250.103C452.77 251.979 444.708 252.451 444.391 252.429C444.395 252.408 444.393 252.385 444.383 252.367C444.373 252.347 444.357 252.331 444.338 252.323Z" fill="black"/>
<path d="M446.896 202.02C446.778 202.025 446.665 201.983 446.579 201.902C446.448 201.848 446.33 201.767 446.231 201.665C446.132 201.563 446.055 201.442 446.002 201.309C445.95 201.176 445.924 201.034 445.927 200.891C445.93 200.749 445.961 200.607 446.019 200.477L451.027 188.271C454.007 181.015 458.529 177.039 464.478 176.579L469.571 176.183C469.71 176.174 469.851 176.193 469.983 176.24C470.115 176.287 470.236 176.36 470.341 176.454C470.445 176.549 470.529 176.663 470.589 176.792C470.65 176.919 470.684 177.059 470.691 177.201C470.698 177.346 470.676 177.491 470.626 177.627C470.576 177.763 470.5 177.888 470.401 177.993C470.302 178.099 470.183 178.182 470.051 178.239C469.92 178.297 469.778 178.326 469.634 178.326L464.531 178.733C459.543 179.129 455.57 182.591 452.908 189.117L447.9 201.323C447.823 201.531 447.686 201.708 447.506 201.833C447.327 201.957 447.113 202.023 446.896 202.02Z" fill="black"/>
<path d="M441.77 200.704L435.789 172.412L409.469 176.624L416.125 199.471L441.77 200.704Z" fill="#78F7BB" fill-opacity="0.2"/>
<path d="M441.718 201.775L416.074 200.542C415.86 200.519 415.659 200.431 415.497 200.289C415.335 200.148 415.219 199.959 415.164 199.749L408.518 176.795C408.461 176.652 408.446 176.497 408.472 176.345C408.497 176.193 408.565 176.052 408.667 175.938C408.782 175.627 409.11 175.53 409.426 175.433L435.758 171.232C436.022 171.202 436.29 171.266 436.512 171.412C436.736 171.56 436.902 171.78 436.984 172.037L442.954 200.436C442.99 200.603 442.987 200.778 442.942 200.944C442.898 201.11 442.815 201.262 442.7 201.389C442.578 201.528 442.426 201.635 442.255 201.701C442.084 201.769 441.9 201.794 441.718 201.775ZM416.908 198.463L440.45 199.536L434.997 173.527L410.8 177.406L416.908 198.463Z" fill="black"/>
<path d="M406.807 163.301C407.881 165.374 408.806 167.523 409.575 169.731C410.114 171.788 411.92 176.161 414.266 175.851C416.613 175.539 432.23 172.956 432.23 172.956C432.23 172.956 431.099 165.616 431.828 161.351C432.557 157.086 433.814 154.921 430.423 152.917C427.031 150.913 423.66 145.834 421.621 146.594C419.582 147.355 419.708 153.367 423.428 155.479C420.891 157.504 419.644 159.272 419.37 160.761" fill="white"/>
<path d="M413.801 176.934C410.42 176.773 408.614 170.247 408.519 170.033C407.756 167.896 406.863 165.809 405.845 163.785C405.782 163.655 405.745 163.513 405.735 163.369C405.726 163.224 405.746 163.079 405.792 162.941C405.838 162.804 405.91 162.678 406.004 162.568C406.099 162.459 406.213 162.37 406.342 162.307C406.47 162.242 406.61 162.204 406.752 162.195C406.896 162.186 407.038 162.205 407.174 162.252C407.309 162.299 407.434 162.372 407.542 162.468C407.649 162.563 407.737 162.68 407.8 162.81C408.873 164.992 409.818 167.235 410.632 169.529C411.35 172.252 413.019 175.016 414.076 174.888L431.131 172.165C430.602 168.577 430.488 164.936 430.792 161.32C430.94 160.463 431.078 159.724 431.215 159.081C431.88 156.113 431.923 155.148 429.968 153.98C428.41 153.001 426.989 151.815 425.742 150.454C424.537 149.222 422.572 147.411 422.064 147.699C421.854 147.807 421.504 148.321 421.463 149.286C421.418 150.329 421.635 151.368 422.09 152.304C422.547 153.24 423.228 154.045 424.072 154.644C424.226 154.73 424.353 154.858 424.439 155.013C424.525 155.168 424.566 155.345 424.558 155.523C424.564 155.698 424.535 155.873 424.473 156.037C424.411 156.2 424.318 156.35 424.199 156.476C421.452 158.706 420.744 160.174 420.596 161.127C420.575 161.268 420.528 161.404 420.457 161.526C420.385 161.648 420.291 161.754 420.178 161.84C420.066 161.925 419.937 161.987 419.802 162.022C419.666 162.056 419.525 162.064 419.386 162.044C419.106 162.003 418.853 161.85 418.684 161.62C418.514 161.39 418.442 161.101 418.482 160.817C418.764 159.217 419.899 157.555 421.885 155.833C421.032 155.014 420.369 154.011 419.945 152.899C419.521 151.787 419.347 150.593 419.434 149.404C419.416 148.701 419.59 148.006 419.937 147.398C420.283 146.788 420.79 146.288 421.399 145.953C423.227 145.181 425.16 147.024 427.38 149.168C428.495 150.399 429.764 151.479 431.152 152.383C434.543 154.365 434.016 156.809 433.455 159.681C433.318 160.313 433.181 161.063 433.032 161.824C432.43 165.875 433.466 173.002 433.466 173.108C433.49 173.251 433.485 173.397 433.452 173.538C433.418 173.678 433.357 173.811 433.273 173.927C433.188 174.043 433.081 174.141 432.958 174.214C432.835 174.287 432.698 174.334 432.557 174.352L414.541 177.245C414.31 177.108 414.061 177.003 413.801 176.934Z" fill="black"/>
<path d="M521.811 276.211C521.54 276.211 521.279 276.106 521.082 275.916C520.886 275.726 520.769 275.467 520.755 275.193C520.755 269.502 517.215 244.554 517.226 244.233C517.205 244.092 517.212 243.949 517.245 243.81C517.279 243.672 517.339 243.542 517.423 243.427C517.507 243.313 517.611 243.217 517.731 243.143C517.851 243.07 517.985 243.022 518.124 243C518.263 242.979 518.404 242.986 518.54 243.021C518.676 243.054 518.804 243.116 518.917 243.201C519.03 243.285 519.125 243.391 519.198 243.514C519.27 243.636 519.318 243.771 519.339 243.911C519.498 244.983 522.805 269.287 522.963 275.085C522.927 275.392 522.784 275.674 522.558 275.881C522.333 276.088 522.041 276.205 521.737 276.211H521.811Z" fill="black"/>
<path d="M451.269 439.583C451.643 445.762 451.71 451.957 451.47 458.144C435.536 457.748 396.936 467.381 396.049 471.893C395.162 476.405 400.403 476.512 400.403 476.512L485.41 476.716L483.824 438.779L451.269 439.583Z" fill="white"/>
<path d="M485.41 477.69L400.498 477.39C400.403 477.39 397.434 477.283 395.955 475.375C395.547 474.841 395.265 474.22 395.127 473.56C394.991 472.899 395.002 472.216 395.162 471.561C396.346 465.838 435.832 457.008 450.678 457.008C451.068 449.988 450.382 439.647 450.382 439.551C450.391 439.285 450.496 439.034 450.678 438.843C450.763 438.744 450.869 438.666 450.988 438.614C451.106 438.563 451.236 438.538 451.364 438.543L483.824 437.739C484.083 437.754 484.327 437.866 484.51 438.052C484.693 438.237 484.802 438.485 484.818 438.746L486.402 476.683C486.391 476.949 486.281 477.202 486.096 477.39C486.01 477.487 485.904 477.564 485.785 477.616C485.667 477.668 485.539 477.694 485.41 477.69ZM452.358 440.451C452.742 446.33 452.81 452.225 452.559 458.111C452.537 458.363 452.423 458.596 452.239 458.765C452.055 458.934 451.813 459.026 451.566 459.022C434.744 458.518 398.226 468.549 397.138 471.968C396.981 472.727 397.121 473.519 397.529 474.175C397.914 474.58 398.376 474.905 398.885 475.129C399.394 475.353 399.942 475.474 400.498 475.483L484.416 475.675L482.937 439.754L452.358 440.451Z" fill="black"/>
<path d="M481.352 449.583C481.352 449.583 482.039 450.986 481.552 458.156C465.619 457.76 427.019 467.394 426.132 471.906C425.244 476.417 430.485 476.524 430.485 476.524L515.492 476.727L513.907 448.865L481.352 449.583Z" fill="white"/>
<path d="M515.492 477.693L430.581 477.489C430.485 477.489 427.516 477.393 426.037 475.485C425.632 474.951 425.35 474.33 425.213 473.669C425.075 473.009 425.086 472.326 425.244 471.67C426.428 465.948 465.915 457.118 480.76 457.118C481.057 451.492 480.559 450.087 480.559 450.087C480.462 449.938 480.41 449.763 480.41 449.584C480.41 449.405 480.462 449.229 480.559 449.08C480.621 448.922 480.731 448.788 480.875 448.699C481.017 448.61 481.185 448.57 481.353 448.587L513.907 447.879C514.154 447.876 514.393 447.967 514.577 448.133C514.761 448.3 514.877 448.531 514.901 448.78L516.485 476.643C516.474 476.909 516.364 477.161 516.179 477.35C516.092 477.447 515.986 477.524 515.868 477.576C515.749 477.628 515.621 477.653 515.492 477.651V477.693ZM482.641 450.495C482.903 453.027 482.903 455.581 482.641 458.114C482.62 458.365 482.505 458.599 482.321 458.767C482.137 458.936 481.896 459.028 481.648 459.025C464.827 458.521 428.309 468.552 427.221 471.97C427.061 472.732 427.205 473.526 427.622 474.178C428.004 474.586 428.463 474.911 428.97 475.136C429.479 475.36 430.026 475.479 430.581 475.485L514.499 475.678L513.02 449.787L482.641 450.495Z" fill="black"/>
<path d="M496.494 445.768H430.982L444.042 276.694L490.534 276.094C490.556 292.318 496.494 445.672 496.494 445.768Z" fill="#2A2552"/>
<path d="M528.352 451.491H462.84L467.996 276.694L522.519 276.094C522.519 292.823 528.458 451.491 528.352 451.491Z" fill="#2A2552"/>
<path d="M462.946 452.496C462.682 452.496 462.429 452.39 462.243 452.201C462.056 452.012 461.952 451.756 461.952 451.489L464.921 349.682C464.921 349.415 465.025 349.159 465.212 348.969C465.398 348.781 465.651 348.675 465.915 348.675C466.047 348.667 466.179 348.687 466.303 348.736C466.428 348.784 466.54 348.857 466.634 348.953C466.727 349.047 466.8 349.162 466.847 349.287C466.894 349.413 466.915 349.548 466.907 349.682L463.938 451.489C463.938 451.621 463.912 451.752 463.863 451.874C463.813 451.996 463.74 452.108 463.647 452.201C463.556 452.294 463.446 452.369 463.326 452.42C463.204 452.47 463.076 452.496 462.946 452.496Z" fill="black"/>
<path d="M548.058 479.129H330.327C330.024 479.129 329.734 479.007 329.52 478.79C329.306 478.573 329.186 478.279 329.186 477.971C329.186 477.665 329.306 477.37 329.52 477.153C329.734 476.936 330.024 476.814 330.327 476.814H548.174C548.328 476.801 548.481 476.822 548.625 476.875C548.77 476.929 548.901 477.014 549.01 477.124C549.118 477.234 549.202 477.368 549.255 477.514C549.308 477.66 549.328 477.817 549.316 477.971C549.311 478.133 549.275 478.291 549.21 478.437C549.143 478.583 549.049 478.715 548.931 478.823C548.814 478.931 548.675 479.015 548.526 479.067C548.376 479.12 548.217 479.14 548.058 479.129Z" fill="black"/>
<path d="M53.3813 437.728L51.6907 478.237L142.456 478.022C142.456 478.022 148.056 477.915 147.105 473.093C146.154 468.27 104.946 457.983 87.9335 458.411C87.6717 451.803 87.7422 445.186 88.1448 438.586L53.3813 437.728Z" fill="white"/>
<path d="M51.6911 479.311C51.5523 479.315 51.4143 479.288 51.2866 479.232C51.1589 479.177 51.0446 479.093 50.9515 478.989C50.7596 478.786 50.6469 478.52 50.6345 478.239L52.3252 437.731C52.3448 437.453 52.4624 437.192 52.6565 436.995C52.8506 436.798 53.108 436.679 53.3818 436.659L88.0396 437.516C88.1784 437.513 88.3164 437.54 88.4442 437.595C88.5718 437.65 88.6862 437.733 88.7793 437.838C88.9712 438.04 89.0838 438.308 89.0962 438.588C89.0962 438.695 88.3565 449.733 88.7793 457.235C104.629 457.235 146.789 466.665 148.056 472.774C148.227 473.473 148.239 474.203 148.093 474.908C147.946 475.613 147.645 476.275 147.211 476.846C145.626 478.882 142.457 478.989 142.351 478.989L51.6911 479.311ZM54.3328 438.803L52.7478 477.167L142.351 476.953C142.945 476.948 143.532 476.823 144.076 476.584C144.62 476.345 145.112 475.996 145.521 475.56C145.964 474.862 146.115 474.014 145.943 473.202C144.781 469.558 105.791 458.843 87.8283 459.378C87.5654 459.38 87.3115 459.281 87.1161 459.103C86.9207 458.924 86.7979 458.678 86.7716 458.413C86.5015 452.127 86.5721 445.831 86.9829 439.553L54.3328 438.803Z" fill="black"/>
<path d="M21.2595 448.448L19.5688 478.239L110.335 478.025C110.335 478.025 115.934 477.918 114.983 473.095C114.032 468.273 72.8235 457.985 55.8116 458.414C55.2832 450.805 56.0229 449.304 56.0229 449.304L21.2595 448.448Z" fill="white"/>
<path d="M19.5693 479.308C19.4304 479.312 19.2924 479.286 19.1648 479.23C19.037 479.174 18.9228 479.092 18.8297 478.987C18.6377 478.784 18.525 478.518 18.5126 478.237L20.2033 448.445C20.2296 448.179 20.3524 447.934 20.5478 447.756C20.7431 447.578 20.9971 447.479 21.26 447.481L56.0234 448.231C56.2023 448.216 56.3813 448.26 56.5335 448.357C56.6859 448.453 56.8034 448.597 56.8687 448.766C56.9719 448.926 57.0269 449.112 57.0269 449.303C57.0269 449.493 56.9719 449.679 56.8687 449.838C56.8687 449.838 56.3403 451.339 56.6574 457.34C72.507 457.34 114.667 466.77 115.934 472.879C116.105 473.578 116.117 474.308 115.971 475.013C115.824 475.718 115.523 476.38 115.09 476.951C113.504 478.987 110.335 479.094 110.229 479.094L19.5693 479.308ZM22.2109 449.516L20.6259 477.165L110.229 476.951C110.823 476.947 111.409 476.821 111.954 476.582C112.499 476.342 112.99 475.994 113.399 475.558C113.842 474.86 113.993 474.011 113.821 473.2C112.659 469.556 73.6693 458.84 55.7064 459.376C55.4435 459.377 55.1896 459.279 54.9943 459.1C54.7989 458.922 54.676 458.677 54.6498 458.411C54.3655 455.704 54.3655 452.974 54.6498 450.267L22.2109 449.516Z" fill="black"/>
<path d="M46.196 264.016L95.8581 264.659L109.806 445.232H39.8562C39.8562 445.125 46.196 281.376 46.196 264.016Z" fill="#2A2552"/>
<path d="M12.067 264.016L70.2878 264.659L75.7823 451.372H5.83279C5.72712 451.372 12.067 281.913 12.067 264.016Z" fill="#2A2552"/>
<path d="M194.971 152.673C197.93 152.458 200.255 157.388 194.971 159.21C189.688 161.032 185.356 158.781 182.291 161.996L177.96 162.425L178.382 157.174L184.828 152.351L194.971 152.673Z" fill="white"/>
<path d="M177.959 163.388C177.82 163.392 177.682 163.366 177.555 163.311C177.427 163.254 177.313 163.172 177.219 163.067C177.008 162.833 176.895 162.527 176.902 162.21L177.326 156.959C177.328 156.808 177.368 156.66 177.442 156.529C177.516 156.398 177.621 156.288 177.748 156.209L184.194 151.387C184.386 151.268 184.603 151.194 184.828 151.172L194.971 151.493C195.928 151.493 196.856 151.821 197.603 152.424C198.352 153.028 198.877 153.871 199.092 154.816C199.409 156.53 198.669 158.888 195.288 160.067C193.171 160.74 190.954 161.03 188.737 160.924C186.307 160.924 184.404 161.031 183.031 162.532C182.952 162.625 182.855 162.702 182.746 162.758C182.637 162.813 182.519 162.845 182.397 162.853L178.065 163.282C178.065 163.388 178.065 163.388 177.959 163.388ZM179.439 157.602L179.122 161.138L181.869 160.817C183.877 158.995 186.307 158.887 188.842 158.887C190.841 158.943 192.836 158.69 194.76 158.137C196.556 157.494 197.401 156.53 197.19 155.351C197.106 154.882 196.856 154.459 196.486 154.163C196.116 153.867 195.653 153.718 195.183 153.743H195.077L185.25 153.423L179.439 157.602Z" fill="black"/>
<path d="M176.691 162.638C176.691 162.638 182.503 161.031 184.616 162.209C187.047 163.495 187.364 164.46 186.413 168.318L179.122 173.569L175.001 167.385L176.691 162.638Z" fill="white"/>
<path d="M179.015 174.641H178.805C178.658 174.625 178.517 174.579 178.39 174.505C178.263 174.432 178.152 174.332 178.065 174.212L173.944 167.997C173.853 167.856 173.795 167.695 173.777 167.528C173.758 167.36 173.78 167.19 173.838 167.033L175.529 162.317C175.596 162.16 175.698 162.021 175.826 161.91C175.954 161.799 176.105 161.718 176.268 161.674C177.325 161.352 182.608 160.067 185.038 161.352C188.208 163.067 188.314 164.782 187.258 168.639C187.154 168.878 187.011 169.095 186.835 169.283L179.544 174.534C179.37 174.58 179.194 174.616 179.015 174.641ZM176.163 167.246L179.332 172.069L185.461 167.676C186.307 164.353 185.884 164.139 184.087 163.175C183.031 162.532 179.756 163.067 177.431 163.603L176.163 167.246Z" fill="black"/>
<path d="M122.485 214.291L168.344 196.073L156.827 167.567L105.897 191.251L89.5186 163.174C87.4077 159.568 84.5793 156.448 81.2137 154.013C77.8481 151.577 74.0191 149.879 69.9708 149.028L62.7857 147.527L45.1397 147.206L28.6562 151.814C28.6562 151.814 17.3501 156.637 15.3425 165.531C13.3349 174.426 6.25543 205.932 6.25543 205.932C6.25543 205.932 3.19117 216.649 10.165 225.865C11.8556 228.008 15.2368 231.33 15.2368 231.33L12.067 264.016H95.9644L94.6961 223.508L122.485 214.291Z" fill="#3AD4AF"/>
<path d="M122.485 215.362C122.279 215.378 122.072 215.325 121.899 215.208C121.727 215.091 121.598 214.918 121.534 214.718C121.484 214.584 121.461 214.442 121.466 214.299C121.471 214.157 121.503 214.016 121.562 213.886C121.621 213.757 121.705 213.639 121.81 213.544C121.913 213.447 122.036 213.373 122.168 213.325L167.076 195.535L156.404 169.066L106.425 192.321C106.181 192.418 105.913 192.428 105.664 192.351C105.414 192.273 105.198 192.111 105.051 191.892L88.6732 163.815C86.6382 160.331 83.902 157.321 80.6431 154.982C77.3842 152.642 73.6757 151.026 69.7594 150.237L62.5742 148.737C62.4355 148.709 62.3036 148.653 62.186 148.573C62.0684 148.493 61.9675 148.39 61.889 148.271C61.8105 148.152 61.756 148.018 61.7285 147.877C61.7011 147.737 61.7011 147.592 61.729 147.451C61.7567 147.31 61.8115 147.176 61.8903 147.057C61.9689 146.938 62.0702 146.835 62.1878 146.756C62.3056 146.677 62.4377 146.621 62.5764 146.593C62.7153 146.565 62.8582 146.565 62.9969 146.593L70.1821 148.094C74.389 148.963 78.3691 150.719 81.864 153.248C85.3589 155.778 88.2908 159.023 90.4696 162.775L106.319 189.996L156.404 166.741C156.676 166.633 156.977 166.633 157.249 166.741C157.399 166.787 157.535 166.869 157.646 166.982C157.756 167.093 157.838 167.231 157.883 167.383L169.401 195.89C169.506 196.165 169.506 196.471 169.401 196.747C169.335 196.875 169.247 196.987 169.137 197.08C169.028 197.172 168.903 197.241 168.767 197.283L122.909 215.5C122.783 215.415 122.637 215.366 122.485 215.362Z" fill="black"/>
<path d="M127.24 216.758L63.9475 184.073L17.8781 275.377L80.9594 309.241L127.24 216.758Z" fill="white"/>
<path d="M80.9594 310.311C80.7769 310.328 80.5934 310.29 80.4312 310.204L17.4554 276.339C17.333 276.281 17.2241 276.197 17.1354 276.094C17.0469 275.99 16.9805 275.869 16.9407 275.738C16.9009 275.606 16.8886 275.468 16.9044 275.333C16.9203 275.196 16.964 275.064 17.0328 274.946L63.1023 183.642C63.16 183.518 63.2425 183.407 63.3447 183.317C63.4469 183.228 63.5664 183.16 63.6957 183.12C63.8251 183.08 63.9612 183.067 64.0955 183.083C64.2298 183.099 64.3594 183.143 64.4759 183.213L127.768 215.899C127.891 215.957 128 216.04 128.089 216.144C128.177 216.248 128.243 216.369 128.283 216.501C128.323 216.632 128.336 216.77 128.32 216.906C128.303 217.043 128.26 217.174 128.192 217.292L81.8048 309.775C81.74 309.903 81.6504 310.016 81.5415 310.108C81.4325 310.2 81.3065 310.269 81.1708 310.311H80.9594ZM19.3574 274.946L80.5368 307.846L125.972 217.292L64.5816 185.603L19.3574 274.946Z" fill="black"/>
<path d="M34.1504 199.073L84.4464 221.363L68.9138 255.87L23.7953 235.937L34.1504 199.073Z" fill="#3AD4AF"/>
<path d="M83.2845 97.9087C83.2845 97.9087 90.047 71.7602 61.6234 75.5109C47.1474 77.6542 29.9242 88.1564 33.5167 98.7656C28.9732 101.552 20.837 114.412 23.9013 127.057C26.86 139.489 35.1017 143.453 45.5625 142.167C45.3511 137.881 41.7585 102.945 41.7585 102.945L83.2845 97.9087Z" fill="#243244"/>
<path d="M62.7854 142.813V148.921C62.7854 148.921 56.8682 152.993 46.0905 149.028C45.7735 145.492 45.3509 134.561 45.3509 134.561C44.8219 135.603 43.955 136.427 42.8963 136.896C41.8375 137.364 40.6519 137.448 39.5394 137.133C35.2071 136.276 34.1505 132.525 33.8335 129.31C33.5164 126.095 35.7354 120.201 43.6602 125.452L41.864 102.948L81.0653 98.1254C81.0653 98.1254 90.7863 96.6244 90.9977 101.555C91.209 106.484 88.1447 108.091 81.6992 109.592C81.5936 112.592 84.2352 144.528 66.4836 143.242L62.7854 142.813Z" fill="white"/>
<path d="M62.2576 112.268C63.1329 112.268 63.8425 111.549 63.8425 110.662C63.8425 109.774 63.1329 109.054 62.2576 109.054C61.3822 109.054 60.6726 109.774 60.6726 110.662C60.6726 111.549 61.3822 112.268 62.2576 112.268Z" fill="black"/>
<path d="M69.2309 111.84C70.1063 111.84 70.8159 111.121 70.8159 110.233C70.8159 109.345 70.1063 108.625 69.2309 108.625C68.3556 108.625 67.646 109.345 67.646 110.233C67.646 111.121 68.3556 111.84 69.2309 111.84Z" fill="black"/>
<path d="M54.966 151.921C51.7826 151.897 48.6308 151.279 45.6675 150.099C45.4698 150.022 45.2965 149.89 45.1663 149.721C45.036 149.551 44.9537 149.348 44.9279 149.135C44.7166 146.67 44.3996 140.669 44.2939 137.24C43.5625 137.752 42.7329 138.102 41.8591 138.269C40.9853 138.435 40.0868 138.412 39.222 138.204C35.3125 137.453 33.0935 134.453 32.6709 129.416C32.5322 128.195 32.7131 126.957 33.1953 125.828C33.6775 124.7 34.4441 123.72 35.4181 122.987C37.6371 121.701 40.4901 122.129 44.0826 124.487C44.3208 124.643 44.488 124.889 44.5475 125.17C44.6069 125.452 44.5537 125.746 44.3996 125.987C44.2454 126.229 44.003 126.398 43.7255 126.458C43.4481 126.519 43.1585 126.465 42.9203 126.308C40.0673 124.487 37.8484 123.951 36.4748 124.808C35.1012 125.665 34.6785 127.916 34.7842 129.202C35.1012 133.382 36.6861 135.525 39.5391 136.06C43.026 136.703 44.1883 134.132 44.1883 134.132C44.2808 133.906 44.4465 133.719 44.6578 133.603C44.8692 133.486 45.1136 133.446 45.3506 133.489C45.5757 133.535 45.7799 133.654 45.9324 133.827C46.0849 134.002 46.1774 134.221 46.1959 134.453C46.1959 134.56 46.6185 144.205 46.9355 148.17C55.0716 150.956 60.0379 148.921 61.6228 148.17V142.812C61.6228 142.528 61.7341 142.255 61.9323 142.055C62.1305 141.853 62.3992 141.741 62.6795 141.741C62.9596 141.741 63.2284 141.853 63.4266 142.055C63.6247 142.255 63.7361 142.528 63.7361 142.812V148.921C63.7062 149.25 63.5554 149.556 63.3134 149.778C63.1021 149.992 60.2492 151.921 54.966 151.921Z" fill="black"/>
<path d="M67.3288 144.312H66.1665L58.9814 143.562C58.7173 143.498 58.481 143.349 58.3092 143.136C58.1373 142.923 58.0393 142.659 58.0304 142.384C58.0783 142.108 58.222 141.86 58.4352 141.683C58.6485 141.505 58.9172 141.413 59.1927 141.419L66.3778 142.169C67.795 142.329 69.2297 142.173 70.5806 141.71C71.9316 141.247 73.166 140.489 74.1969 139.49C80.9595 132.953 80.5368 116.663 80.4312 111.306V109.591C80.4497 109.358 80.5421 109.139 80.6946 108.966C80.8471 108.791 81.0514 108.672 81.2764 108.626C87.9333 107.126 89.8353 105.518 89.7296 101.661C89.7477 101.393 89.6992 101.125 89.5884 100.882C89.4776 100.639 89.3081 100.427 89.0956 100.268C87.2993 98.7676 82.7558 99.0891 81.0651 99.3029C80.9168 99.3732 80.7546 99.4069 80.5912 99.4022C80.4278 99.3976 80.2677 99.3544 80.1235 99.2766C79.9793 99.1979 79.8548 99.0872 79.76 98.9522C79.6651 98.8172 79.6026 98.6616 79.5771 98.4976C79.5516 98.3344 79.5639 98.1666 79.6131 98.0082C79.6623 97.8507 79.7469 97.7063 79.8604 97.5872C79.9739 97.4672 80.1132 97.3763 80.2672 97.321C80.4212 97.2657 80.5858 97.2469 80.7481 97.2666C81.4878 97.1597 87.6163 96.3029 90.3635 98.6597C90.8051 99.0263 91.1652 99.4829 91.4202 99.9994C91.6752 100.517 91.8192 101.083 91.8429 101.661C92.0542 107.662 87.8276 109.376 82.5445 110.663V111.413C82.6501 116.985 83.0727 134.132 75.6763 141.204C73.3722 143.258 70.3958 144.367 67.3288 144.312Z" fill="black"/>
<path d="M33.5166 99.87C33.326 99.8718 33.1385 99.8231 32.9719 99.7284C32.8053 99.6347 32.6654 99.4997 32.5656 99.3347C32.46 99.0131 28.9731 92.7976 22.8445 95.0484C22.7127 95.0972 22.5726 95.1197 22.4322 95.114C22.2918 95.1084 22.154 95.0747 22.0264 95.0147C21.8989 94.9556 21.7842 94.8703 21.6889 94.7662C21.5935 94.6612 21.5194 94.5384 21.4709 94.4053C21.4224 94.2712 21.4002 94.1297 21.4058 93.9872C21.4114 93.8447 21.4446 93.7047 21.5034 93.5753C21.5622 93.4459 21.6457 93.3296 21.7489 93.2329C21.8521 93.1363 21.973 93.0612 22.1049 93.0119C28.3391 90.6543 32.8826 95.37 34.3619 98.2631C34.4357 98.3887 34.4833 98.5284 34.5018 98.6728C34.5204 98.8181 34.5096 98.9653 34.47 99.1059C34.4305 99.2465 34.3629 99.3768 34.2717 99.4903C34.1803 99.6028 34.0673 99.6965 33.9393 99.7631C33.8336 99.7312 33.728 99.87 33.5166 99.87Z" fill="black"/>
<path d="M68.914 256.943C68.765 256.958 68.6152 256.92 68.4913 256.835L21.9991 236.366C16.0391 234.251 11.0444 230.004 7.9514 224.421C4.85845 218.838 3.87966 212.302 5.19854 206.039L13.229 168.424C14.1585 163.954 16.3044 159.838 19.4234 156.542C22.5423 153.246 26.5094 150.903 30.8749 149.777L45.5622 145.919C45.8075 145.902 46.0512 145.973 46.251 146.118C46.4509 146.263 46.5944 146.474 46.657 146.716C46.7196 146.957 46.6973 147.213 46.5939 147.439C46.4904 147.666 46.3125 147.848 46.0905 147.955L31.4032 151.813C27.4201 152.841 23.8019 154.983 20.962 157.996C18.1221 161.008 16.1747 164.77 15.3423 168.852L7.31183 206.468C6.09017 212.235 6.9965 218.257 9.85912 223.391C12.7218 228.527 17.3419 232.418 22.8444 234.33L68.3856 254.477L82.9673 221.899L33.7278 200.037C33.5217 199.897 33.371 199.687 33.3022 199.445C33.2336 199.203 33.2512 198.943 33.3522 198.713C33.4531 198.483 33.6308 198.296 33.8541 198.186C34.0774 198.075 34.332 198.048 34.5732 198.109L84.8691 220.399C84.9953 220.464 85.1071 220.555 85.1978 220.666C85.2885 220.777 85.3565 220.904 85.3975 221.042C85.5036 221.318 85.5036 221.623 85.3975 221.899L69.9706 256.406C69.8487 256.574 69.6894 256.71 69.5057 256.803C69.3221 256.897 69.1193 256.943 68.914 256.943Z" fill="black"/>
<path d="M81.171 228.652C81.171 228.652 91.1034 232.938 97.2317 233.795C104.523 234.866 122.063 229.08 124.493 232.831C125.867 234.974 122.697 236.903 121.112 238.082C118.443 239.629 115.691 241.024 112.87 242.261C112.87 242.261 118.682 242.583 119.104 246.654C119.21 248.262 119.21 252.013 114.349 251.37C116.252 253.513 117.731 255.014 116.463 257.157C115.195 259.3 110.44 258.229 110.44 258.229C110.44 258.229 114.773 261.23 112.87 263.908C111.602 265.623 110.123 266.373 106.953 265.088C107.904 267.016 107.481 268.517 106.742 269.267C103.255 273.232 91.7374 266.802 88.3562 264.23C85.6089 262.087 74.4085 250.084 71.5557 250.084L81.171 228.652Z" fill="white"/>
<path d="M103.361 271.518C97.6551 271.518 89.4131 266.374 87.7225 265.087C86.8772 264.444 85.2923 262.837 83.179 260.908C79.9034 257.8 73.0352 251.156 71.4502 251.156C71.274 251.156 71.1012 251.106 70.9519 251.011C70.8024 250.916 70.6821 250.781 70.6049 250.62C70.5084 250.462 70.4488 250.282 70.4305 250.097C70.4122 249.911 70.4358 249.724 70.4993 249.548L80.1147 228.115C80.23 227.863 80.4379 227.665 80.6943 227.565C80.9509 227.466 81.2356 227.47 81.4883 227.58C81.5939 227.58 91.3151 231.759 97.2326 232.616C100.191 233.046 105.051 232.295 109.701 231.545C117.097 230.366 123.437 229.402 125.234 232.081C127.03 234.76 123.754 237.225 121.958 238.403L121.535 238.725C119.774 239.823 117.938 240.789 116.041 241.618C117.837 242.368 119.845 243.654 120.055 246.334C120.267 248.477 119.845 250.085 118.682 251.049C118.085 251.593 117.355 251.963 116.569 252.121C117.731 253.728 118.471 255.336 117.308 257.372C116.843 257.999 116.235 258.502 115.535 258.838C114.836 259.175 114.066 259.333 113.294 259.3C113.811 259.958 114.173 260.729 114.35 261.551C114.509 262.528 114.282 263.53 113.716 264.337C113.172 265.216 112.368 265.897 111.419 266.282C110.469 266.667 109.423 266.737 108.432 266.481C108.523 267.054 108.485 267.642 108.32 268.198C108.155 268.755 107.868 269.267 107.482 269.695C107.005 270.33 106.376 270.831 105.655 271.149C104.934 271.468 104.144 271.595 103.361 271.518ZM73.0352 249.442C75.5711 250.62 79.5864 254.371 84.7639 259.3C86.1246 260.713 87.5716 262.038 89.0961 263.266C92.9001 266.159 103.255 271.518 106.002 268.41C106.214 268.195 106.848 267.231 106.002 265.409C105.925 265.214 105.907 265.001 105.948 264.795C105.99 264.59 106.09 264.401 106.236 264.253C106.382 264.105 106.569 264.003 106.771 263.961C106.974 263.918 107.184 263.938 107.376 264.016C110.335 265.194 111.18 264.337 112.025 263.266C112.226 262.944 112.336 262.574 112.342 262.194C111.922 260.926 111.057 259.858 109.912 259.193C109.725 259.044 109.586 258.843 109.511 258.615C109.435 258.386 109.428 258.141 109.489 257.907C109.593 257.691 109.761 257.512 109.97 257.397C110.177 257.282 110.416 257.236 110.652 257.264C112.237 257.586 114.878 257.693 115.512 256.622C116.252 255.336 115.724 254.478 113.821 252.442L113.504 252.013C113.362 251.856 113.274 251.655 113.255 251.442C113.236 251.229 113.286 251.016 113.399 250.835C113.487 250.635 113.64 250.473 113.832 250.374C114.026 250.277 114.246 250.25 114.455 250.298C114.94 250.439 115.449 250.464 115.944 250.372C116.439 250.278 116.906 250.07 117.308 249.763C117.63 249.343 117.854 248.856 117.964 248.336C118.074 247.817 118.066 247.279 117.942 246.762C117.625 243.654 112.765 243.333 112.765 243.333C112.536 243.314 112.319 243.22 112.148 243.066C111.976 242.911 111.859 242.704 111.814 242.476C111.771 242.235 111.811 241.987 111.926 241.773C112.042 241.559 112.226 241.39 112.448 241.297C115.207 240.112 117.889 238.752 120.479 237.225L121.006 236.903C123.12 235.402 124.282 234.331 123.648 233.474C122.592 231.866 115.407 233.046 110.229 233.796C105.368 234.546 100.402 235.296 97.1263 234.867C91.949 234.117 84.4469 231.116 81.6996 230.045L73.0352 249.442Z" fill="black"/>
<path d="M114.349 251.371C112.456 251.308 110.576 251.02 108.748 250.514L114.349 251.371Z" fill="white"/>
<path d="M114.349 252.442C112.351 252.392 110.365 252.104 108.432 251.585C108.3 251.535 108.18 251.46 108.076 251.363C107.973 251.267 107.89 251.151 107.831 251.021C107.712 250.76 107.7 250.461 107.798 250.191C107.896 249.921 108.097 249.701 108.354 249.581C108.612 249.46 108.906 249.449 109.172 249.548C110.901 249.989 112.672 250.24 114.455 250.298C114.736 250.298 115.005 250.411 115.202 250.613C115.4 250.813 115.512 251.086 115.512 251.37C115.472 251.658 115.335 251.923 115.122 252.119C114.909 252.315 114.637 252.429 114.349 252.442Z" fill="black"/>
<path d="M110.44 258.23C110.44 258.23 107.376 257.8 106.107 257.48L110.44 258.23Z" fill="white"/>
<path d="M110.44 259.301H110.335C110.228 259.301 107.164 258.873 105.897 258.551C105.675 258.443 105.496 258.261 105.393 258.035C105.289 257.809 105.267 257.553 105.33 257.311C105.393 257.07 105.536 256.859 105.736 256.713C105.936 256.567 106.18 256.498 106.425 256.515C107.587 256.836 110.545 257.265 110.545 257.265C110.81 257.329 111.046 257.478 111.217 257.692C111.389 257.904 111.487 258.169 111.497 258.444C111.448 258.69 111.314 258.91 111.121 259.067C110.928 259.223 110.687 259.306 110.44 259.301Z" fill="black"/>
<path d="M106.953 265.086C105.527 264.523 104.149 263.842 102.832 263.049L106.953 265.086Z" fill="white"/>
<path d="M106.953 266.157C106.804 266.173 106.655 266.136 106.531 266.05C104.972 265.484 103.484 264.741 102.093 263.832C101.972 263.74 101.871 263.622 101.799 263.488C101.726 263.353 101.683 263.204 101.672 263.05C101.662 262.897 101.683 262.744 101.736 262.6C101.79 262.456 101.872 262.326 101.979 262.217C102.086 262.108 102.215 262.025 102.357 261.97C102.499 261.917 102.65 261.895 102.801 261.906C102.953 261.917 103.1 261.96 103.233 262.034C103.365 262.107 103.481 262.209 103.572 262.332C104.779 263.061 106.053 263.671 107.376 264.154C107.509 264.202 107.631 264.276 107.735 264.372C107.839 264.468 107.923 264.585 107.982 264.714C108.041 264.845 108.075 264.985 108.079 265.128C108.084 265.27 108.06 265.413 108.01 265.547C107.733 265.863 107.362 266.077 106.953 266.157Z" fill="black"/>
<path d="M112.87 242.26C110.917 242.101 108.976 241.814 107.059 241.402L112.87 242.26Z" fill="white"/>
<path d="M112.87 243.332C110.845 243.191 108.832 242.904 106.847 242.474C106.625 242.367 106.447 242.184 106.343 241.958C106.241 241.732 106.217 241.476 106.28 241.235C106.343 240.994 106.486 240.782 106.686 240.637C106.887 240.491 107.13 240.421 107.376 240.439C109.277 240.867 112.976 241.189 112.976 241.189C113.121 241.185 113.264 241.215 113.396 241.276C113.527 241.337 113.644 241.428 113.735 241.542C113.827 241.656 113.892 241.789 113.925 241.932C113.958 242.076 113.959 242.224 113.927 242.367C113.888 242.627 113.761 242.865 113.568 243.041C113.376 243.218 113.129 243.32 112.87 243.332Z" fill="black"/>
<path d="M172.887 174.532C174.155 170.674 182.819 167.888 187.469 165.53C192.118 163.172 193.809 166.387 193.492 168.638C193.068 170.674 189.582 171.745 186.307 174.746C183.031 177.746 184.827 184.177 181.023 188.248C177.219 192.321 166.23 190.821 166.23 190.821L158.623 171.959C158.623 171.959 166.97 168.638 170.139 162.743C173.31 156.849 176.797 152.134 181.869 149.669C186.2 147.633 194.548 146.348 197.613 147.204C199.831 147.848 201.839 151.705 194.231 153.313C186.624 154.92 184.193 155.456 182.186 158.028C180.178 160.6 179.332 166.494 179.755 169.066" fill="white"/>
<path d="M170.668 192.108C169.113 192.162 167.554 192.054 166.02 191.786C165.83 191.78 165.648 191.715 165.496 191.6C165.346 191.485 165.233 191.325 165.174 191.143L157.566 172.282C157.46 172.007 157.46 171.7 157.566 171.425C157.631 171.297 157.721 171.184 157.83 171.092C157.939 170.999 158.064 170.931 158.2 170.889C158.306 170.889 166.23 167.567 169.084 162.101C172.782 155.029 176.586 150.849 181.341 148.598C185.884 146.455 194.443 145.062 197.824 146.027C198.603 146.226 199.295 146.68 199.792 147.32C200.289 147.96 200.563 148.748 200.572 149.563C200.572 150.849 199.727 153.099 194.338 154.279C186.729 155.886 184.616 156.422 182.925 158.565C181.552 160.386 180.602 164.674 180.602 167.46C181.552 167.031 182.503 166.602 183.349 166.281C184.616 165.745 185.884 165.209 186.941 164.674C190.005 163.173 191.907 163.816 192.858 164.566C193.47 165.1 193.936 165.785 194.214 166.554C194.491 167.323 194.571 168.151 194.443 168.96C194.126 170.675 192.542 171.746 190.534 173.032C189.245 173.843 188.009 174.738 186.835 175.711C185.462 176.89 185.145 178.926 184.722 181.176C184.299 183.749 183.771 186.749 181.552 189C179.333 191.571 174.367 192.108 170.668 192.108ZM166.864 189.75C170.14 190.071 177.537 190.286 180.178 187.499C181.869 185.677 182.291 183.106 182.715 180.748C183.137 178.39 183.56 175.711 185.567 173.996C186.941 172.818 188.314 171.961 189.477 171.103C190.956 170.138 192.225 169.281 192.435 168.531C192.526 168.124 192.506 167.698 192.375 167.301C192.245 166.905 192.01 166.551 191.696 166.281C190.956 165.637 189.583 165.745 187.997 166.602C186.941 167.138 185.673 167.674 184.299 168.21C180.284 169.925 174.684 172.389 173.839 174.854C173.741 175.124 173.54 175.343 173.283 175.464C173.025 175.584 172.731 175.596 172.465 175.497C172.199 175.398 171.983 175.195 171.863 174.934C171.744 174.672 171.733 174.374 171.831 174.104C172.571 171.746 175.318 169.925 178.488 168.317C178.277 165.209 179.228 159.636 181.235 157.172C183.454 154.279 186.307 153.742 193.809 152.135C197.085 151.385 198.353 150.313 198.353 149.456C198.353 148.813 197.719 148.277 197.085 148.063C194.443 147.313 186.413 148.385 182.081 150.528C177.748 152.671 174.261 156.529 170.775 163.173C168.133 168.21 162.11 171.318 159.786 172.496L166.864 189.75Z" fill="black"/>
<path d="M12.0669 265.086C11.4329 264.978 10.9046 264.549 11.0102 263.906L14.1802 231.221C14.194 231.081 14.2351 230.944 14.301 230.819C14.367 230.694 14.4565 230.585 14.5643 230.495C14.6723 230.406 14.7965 230.338 14.9301 230.298C15.0636 230.257 15.2037 230.242 15.3425 230.257C15.4812 230.271 15.6159 230.313 15.7388 230.379C15.8617 230.446 15.9704 230.537 16.0587 230.647C16.147 230.756 16.2131 230.882 16.2534 231.018C16.2937 231.153 16.3073 231.295 16.2935 231.436L13.1235 264.121C13.0847 264.381 12.9581 264.619 12.7654 264.795C12.5727 264.971 12.3259 265.073 12.0669 265.086Z" fill="black"/>
<path d="M75.677 452.445C75.3967 452.445 75.1279 452.332 74.9298 452.131C74.7316 451.93 74.6203 451.657 74.6203 451.373L71.4504 342.709C71.441 342.565 71.4619 342.422 71.5118 342.287C71.5616 342.153 71.639 342.031 71.7392 341.93C71.8392 341.828 71.9594 341.75 72.0919 341.699C72.2243 341.648 72.3659 341.627 72.507 341.636C72.7872 341.636 73.056 341.75 73.2542 341.95C73.4523 342.152 73.5637 342.424 73.5637 342.709L76.7336 451.373C76.7336 451.657 76.6222 451.93 76.424 452.131C76.2259 452.332 75.9571 452.445 75.677 452.445Z" fill="black"/>
<path d="M400.784 478.956H1.05664C0.776401 478.956 0.50764 478.843 0.309482 478.641C0.111324 478.441 0 478.168 0 477.884C0 477.6 0.111324 477.327 0.309482 477.126C0.50764 476.925 0.776401 476.812 1.05664 476.812H400.889C401.03 476.803 401.172 476.825 401.304 476.874C401.437 476.925 401.557 477.004 401.657 477.105C401.757 477.207 401.835 477.329 401.885 477.463C401.934 477.597 401.955 477.741 401.946 477.884C401.946 478.034 401.916 478.183 401.857 478.321C401.797 478.458 401.71 478.582 401.6 478.683C401.491 478.783 401.361 478.86 401.22 478.907C401.079 478.955 400.931 478.971 400.784 478.956Z" fill="black"/>
<path d="M205.844 233.376C215.438 157.717 239.931 106.729 239.931 106.729L271.07 106.868L318.999 107.147C318.999 107.147 355.189 185.205 354.609 290.678C354.376 331.207 350.022 361.46 344.623 383.439C335.324 421.675 322.835 435.446 322.835 435.446L246.239 434.996H240.628L231.985 434.91C231.985 434.91 219.707 420.99 210.926 382.785C209.563 376.977 208.263 370.493 207.101 363.421L205.844 233.376Z" fill="#F8FCFB"/>
<path d="M279.714 52.7307L239.931 106.731L279.387 106.935L318.905 107.224L279.714 52.7307Z" fill="url(#paint0_linear_3218_56)"/>
<path d="M316.284 475.313L238.082 474.81L231.985 434.923L322.835 435.448L316.284 475.313Z" fill="url(#paint1_linear_3218_56)"/>
<path d="M210.926 382.786L171.345 415.117L171.123 445.648L231.985 434.932C231.985 434.932 219.707 420.99 210.926 382.786Z" fill="url(#paint2_linear_3218_56)" fill-opacity="0.74"/>
<path d="M344.602 383.603C335.324 421.678 322.835 435.449 322.835 435.449L383.539 446.851L383.75 416.319L344.602 383.603Z" fill="url(#paint3_linear_3218_56)" fill-opacity="0.74"/>
<path d="M323.606 436.37C323.374 436.552 323.087 436.647 322.794 436.637C322.501 436.627 322.22 436.514 322.001 436.316C321.879 436.208 321.781 436.076 321.715 435.927C321.648 435.778 321.614 435.617 321.614 435.454C321.614 435.29 321.648 435.128 321.715 434.979C321.781 434.831 321.879 434.698 322.001 434.59C322.18 434.44 334.352 420.466 343.482 383.152C349.821 357.036 353.16 325.914 353.361 290.647C353.974 186.697 318.228 108.467 317.869 107.631C317.771 107.352 317.778 107.047 317.89 106.773C318.002 106.5 318.21 106.279 318.474 106.153C318.738 106.027 319.039 106.006 319.317 106.092C319.596 106.179 319.833 106.369 319.982 106.623C320.33 107.427 356.298 186.15 355.718 290.69C355.496 326.129 352.156 357.421 345.69 383.783C336.412 421.849 324.166 435.727 323.69 436.295L323.606 436.37Z" fill="black"/>
<path d="M232.746 435.845C232.627 435.948 232.488 436.026 232.338 436.074C232.19 436.122 232.032 436.14 231.875 436.126C231.719 436.113 231.567 436.067 231.428 435.993C231.289 435.919 231.166 435.817 231.067 435.695C230.612 435.137 218.514 421.056 209.712 382.991C208.307 376.754 207.007 370.26 205.982 363.541C205.949 363.228 206.033 362.914 206.218 362.662C206.402 362.408 206.673 362.235 206.977 362.176C207.283 362.117 207.598 362.175 207.861 362.341C208.125 362.506 208.318 362.767 208.401 363.069C209.521 369.713 210.726 376.282 212.142 382.358C220.743 419.802 232.841 433.883 232.989 434.077C233.162 434.354 233.232 434.685 233.188 435.011C233.144 435.337 232.987 435.636 232.746 435.855V435.845Z" fill="black"/>
<path d="M206.605 234.311C206.488 234.418 206.351 234.498 206.201 234.544C206.051 234.591 205.893 234.602 205.738 234.579C205.575 234.575 205.416 234.532 205.273 234.455C205.129 234.378 205.005 234.268 204.91 234.134C204.814 234.001 204.751 233.846 204.725 233.684C204.698 233.521 204.708 233.354 204.755 233.196C214.265 158.181 238.663 106.742 238.97 106.131C239.109 105.846 239.355 105.631 239.652 105.531C239.95 105.429 240.274 105.453 240.554 105.595C240.834 105.738 241.048 105.986 241.147 106.288C241.246 106.589 241.223 106.918 241.083 107.203C240.871 107.706 216.6 158.974 207.185 233.528C207.033 233.818 206.837 234.081 206.605 234.311Z" fill="black"/>
<path d="M317.489 251.36C317.292 251.508 317.052 251.588 316.807 251.588C316.562 251.588 316.322 251.508 316.125 251.36C315.852 251.194 315.652 250.927 315.57 250.614C315.486 250.302 315.527 249.97 315.682 249.687C319.385 243.127 321.329 235.695 321.319 228.135C321.31 220.575 319.348 213.149 315.628 206.597C311.909 200.046 306.562 194.596 300.12 190.792C293.677 186.988 286.365 184.963 278.911 184.917C275.145 184.852 271.388 185.324 267.753 186.321C267.453 186.408 267.131 186.37 266.859 186.217C266.586 186.063 266.385 185.805 266.3 185.501C266.214 185.197 266.251 184.871 266.402 184.595C266.554 184.318 266.808 184.115 267.108 184.027C270.973 182.991 274.956 182.479 278.953 182.506C284.857 182.515 290.702 183.717 296.144 186.04C301.587 188.364 306.518 191.764 310.652 196.041C314.826 200.31 318.129 205.371 320.375 210.935C322.619 216.499 323.761 222.457 323.734 228.469C323.744 236.373 321.687 244.138 317.774 250.973C317.712 251.124 317.614 251.257 317.489 251.36Z" fill="black"/>
<path d="M307.514 263.459C302.787 267.473 297.297 270.458 291.384 272.228C285.47 273.998 279.261 274.514 273.143 273.744C267.025 272.976 261.128 270.938 255.819 267.758C250.512 264.578 245.905 260.324 242.287 255.261C242.185 255.129 242.111 254.978 242.068 254.815C242.027 254.653 242.018 254.484 242.043 254.318C242.067 254.153 242.127 253.994 242.214 253.853C242.302 253.711 242.419 253.589 242.556 253.494C242.692 253.4 242.847 253.335 243.008 253.304C243.171 253.272 243.338 253.276 243.499 253.313C243.66 253.35 243.813 253.42 243.946 253.519C244.079 253.618 244.191 253.745 244.274 253.889C248.215 259.343 253.356 263.792 259.288 266.882C265.218 269.972 271.779 271.617 278.446 271.689C284.134 271.743 289.774 270.632 295.028 268.422C300.282 266.213 305.044 262.95 309.025 258.83C309.136 258.716 309.267 258.627 309.412 258.566C309.558 258.505 309.713 258.473 309.87 258.473C310.027 258.473 310.182 258.505 310.328 258.566C310.473 258.627 310.605 258.716 310.716 258.83C310.922 259.068 311.036 259.374 311.036 259.692C311.036 260.01 310.922 260.317 310.716 260.555C309.638 261.498 308.613 262.526 307.514 263.459Z" fill="black"/>
<path d="M280.485 53.6616C280.286 53.8301 280.037 53.9279 279.777 53.9402C279.62 53.9418 279.465 53.911 279.321 53.8496C279.176 53.7882 279.045 53.6976 278.937 53.5833C278.828 53.4689 278.743 53.3332 278.687 53.1845C278.633 53.0358 278.608 52.8773 278.614 52.7185L278.89 1.09718C278.917 0.797041 279.054 0.518265 279.274 0.315358C279.494 0.11245 279.781 0 280.078 0C280.375 0 280.662 0.11245 280.882 0.315358C281.102 0.518265 281.239 0.797041 281.267 1.09718L280.982 52.7185C280.968 52.902 280.917 53.0806 280.831 53.2429C280.746 53.4053 280.628 53.5478 280.485 53.6616Z" fill="black"/>
<path d="M276.459 268.816C298.926 268.816 317.139 250.343 317.139 227.558C317.139 204.771 298.926 186.299 276.459 186.299C253.992 186.299 235.778 204.771 235.778 227.558C235.778 250.343 253.992 268.816 276.459 268.816Z" fill="url(#paint4_linear_3218_56)"/>
<defs>
<linearGradient id="paint0_linear_3218_56" x1="279.418" y1="52.7307" x2="279.418" y2="107.224" gradientUnits="userSpaceOnUse">
<stop stop-color="#2A2552"/>
<stop offset="1" stop-color="#3AD4AF"/>
</linearGradient>
<linearGradient id="paint1_linear_3218_56" x1="277.41" y1="434.923" x2="277.41" y2="475.313" gradientUnits="userSpaceOnUse">
<stop stop-color="#2A2552"/>
<stop offset="1" stop-color="#3AD4AF"/>
</linearGradient>
<linearGradient id="paint2_linear_3218_56" x1="201.554" y1="382.786" x2="201.554" y2="445.648" gradientUnits="userSpaceOnUse">
<stop stop-color="#2A2552"/>
<stop offset="1" stop-color="#3AD4AF"/>
</linearGradient>
<linearGradient id="paint3_linear_3218_56" x1="353.293" y1="383.603" x2="353.293" y2="446.851" gradientUnits="userSpaceOnUse">
<stop stop-color="#2A2552"/>
<stop offset="1" stop-color="#3AD4AF"/>
</linearGradient>
<linearGradient id="paint4_linear_3218_56" x1="245" y1="192.5" x2="317" y2="269" gradientUnits="userSpaceOnUse">
<stop stop-color="#2A2552"/>
<stop offset="1" stop-color="#3AD4AF"/>
</linearGradient>
</defs>
</svg>
