<svg width="427" height="367" viewBox="0 0 427 367" fill="none" xmlns="http://www.w3.org/2000/svg">
<path d="M373.762 136.861C370.341 138.008 364.796 137.173 364.796 137.173L364.443 132.486L364.115 132.551C362.804 132.842 361.447 132.851 360.132 132.577C358.817 132.304 357.576 131.755 356.49 130.967C355.404 130.178 354.498 129.167 353.833 128.003C353.167 126.838 352.757 125.545 352.63 124.21C352.63 121.506 352.253 118.368 350.448 116.647C349.504 115.697 344.115 114.951 344.59 111.936C345.066 108.921 350.891 108.871 350.891 108.871L352.162 106.307L382.441 106.84L377.519 136.132L373.762 136.861Z" fill="white"/>
<path d="M344.296 210.605C344.296 210.605 349.898 175.437 350.596 171.202L346.986 153.724L350.874 144.367C352.515 140.344 355.452 136.297 360.645 135.887L364.598 135.583L394.549 137.902C394.549 137.902 399.799 139.705 401.719 144.228C402.826 146.907 406.879 160.14 410.005 170.448C410.966 173.62 410.714 177.035 409.297 180.031C407.88 183.028 405.398 185.391 402.335 186.663L402.581 188.474C402.581 188.474 405.115 205.984 405.156 210.416L344.296 210.605Z" fill="#B0EEDF"/>
<path d="M317.413 127.98L332.598 124.596C332.598 124.596 332.032 113.985 321.933 114.993C310.326 116.23 317.413 127.98 317.413 127.98Z" fill="white"/>
<path d="M344.229 211.424H344.148C343.945 211.365 343.768 211.242 343.642 211.073C343.516 210.905 343.449 210.7 343.45 210.49C343.557 209.916 352.548 153.658 353.245 149.431C353.277 149.213 353.393 149.017 353.57 148.886C353.745 148.755 353.966 148.698 354.185 148.73C354.402 148.761 354.598 148.878 354.729 149.054C354.861 149.23 354.917 149.451 354.886 149.668C354.188 153.904 345.198 210.162 345.091 210.727C345.061 210.93 344.955 211.114 344.796 211.243C344.636 211.371 344.434 211.436 344.229 211.424Z" fill="black"/>
<path d="M314.583 118.31C314.583 118.31 313.525 118.097 312.794 119.704C312.064 121.309 311.31 126.775 313.073 127.594C314.837 128.413 315.469 125.578 315.756 124.767C316.043 123.956 316.913 119.491 316.913 119.491C316.913 119.491 315.33 118.147 314.583 118.31Z" fill="white"/>
<path d="M313.681 128.611C313.379 128.57 313.082 128.499 312.794 128.398C310.145 127.128 311.507 120.795 312.065 119.426C312.803 117.788 313.886 117.46 314.525 117.493C315.6 117.378 316.937 118.509 317.495 118.943C317.6 119.036 317.681 119.154 317.73 119.285C317.781 119.416 317.799 119.557 317.782 119.697C317.684 120.188 316.83 124.244 316.543 125.055L316.454 125.293C316.167 126.186 315.674 127.882 314.501 128.398C314.261 128.564 313.971 128.639 313.681 128.611ZM314.501 119.132C314.337 119.132 314.001 119.353 313.64 120.073C312.893 121.844 312.516 126.416 313.557 126.874C313.803 126.973 313.886 126.973 313.968 126.874C314.477 126.653 314.87 125.236 315.059 124.794L315.149 124.465C315.338 123.982 315.863 121.549 316.199 119.762C315.798 119.41 315.336 119.133 314.838 118.943C314.797 119.005 314.741 119.056 314.675 119.089C314.609 119.123 314.534 119.137 314.46 119.132H314.501Z" fill="black"/>
<path d="M317.503 113.863C317.503 113.863 315.165 112.929 313.983 113.691C312.802 114.452 313.385 117.598 313.737 118.77C314.09 119.942 315.51 123.031 316.937 122.367C318.364 121.704 319.504 114.936 317.503 113.863Z" fill="white"/>
<path d="M316.403 123.242C316.18 123.24 315.959 123.202 315.748 123.128C314.057 122.391 312.983 119.137 312.901 119.031C312.819 118.924 311.408 114.287 313.516 113.075C315.157 112.083 317.536 113.075 317.782 113.189H317.864C318.824 113.722 319.341 114.976 319.324 116.95C319.324 119.08 318.578 122.407 317.232 123.079C316.965 123.173 316.686 123.228 316.403 123.242ZM315.354 114.229C315.007 114.198 314.659 114.269 314.353 114.434C313.762 114.73 313.992 116.958 314.492 118.532C314.845 119.613 315.748 121.383 316.396 121.653H316.477C316.904 121.342 317.847 118.761 317.708 116.459C317.708 115.311 317.372 114.819 317.134 114.631C316.567 114.402 315.965 114.272 315.354 114.246V114.229Z" fill="black"/>
<path d="M322.589 112.298C321.985 111.356 321.102 110.625 320.063 110.208C318.52 109.725 317.199 113.437 317.142 116.222C317.084 119.008 317.478 121.409 319.365 121.327C321.252 121.246 321.826 119.23 322.138 118.263C322.45 117.296 322.589 112.298 322.589 112.298Z" fill="white"/>
<path d="M319.169 122.136C318.552 122.099 317.969 121.84 317.528 121.407C316.585 120.457 316.175 118.72 316.298 116.18C316.404 113.812 317.291 110.813 318.652 109.732C318.872 109.56 319.128 109.441 319.401 109.383C319.674 109.324 319.956 109.329 320.227 109.395C321.468 109.873 322.523 110.734 323.238 111.854C323.32 111.975 323.368 112.117 323.377 112.263C323.319 113.493 323.213 117.507 322.836 118.556L322.737 118.802C322.36 119.851 321.523 122.022 319.3 122.162L319.169 122.136ZM319.85 111.1C319.819 111.1 319.788 111.106 319.76 111.119C319.732 111.132 319.706 111.151 319.686 111.174C318.915 111.797 318.045 114.214 317.963 116.344C317.824 119.203 318.439 120.137 318.676 120.392C318.739 120.479 318.827 120.545 318.928 120.58C319.029 120.615 319.14 120.618 319.243 120.588C320.309 120.588 320.768 119.425 321.236 118.302L321.327 118.056C321.583 116.27 321.726 114.47 321.753 112.665C321.566 112.283 321.299 111.946 320.971 111.676C320.643 111.407 320.26 111.21 319.85 111.1Z" fill="black"/>
<path d="M327.937 112.059C327.937 112.059 326.847 116.024 326.158 118.45C325.468 120.875 323.696 121.727 322.056 121.047C320.415 120.367 321.391 116.131 322.441 112.944C323.492 109.756 326.543 108.298 329.185 109.248C330.235 109.625 331.465 111.485 331.203 113.443" fill="white"/>
<path d="M323.024 122.163C322.604 122.136 322.193 122.034 321.809 121.86C319.349 120.917 320.702 115.73 321.744 112.749C322.306 111.038 323.525 109.62 325.132 108.807C326.496 108.143 328.066 108.041 329.505 108.52C330.957 109.004 332.327 111.281 332.129 113.65C332.098 113.867 331.981 114.062 331.805 114.194C331.629 114.326 331.408 114.381 331.191 114.35C330.972 114.318 330.776 114.202 330.645 114.026C330.514 113.85 330.457 113.63 330.489 113.412C330.653 111.773 329.578 110.249 329.013 110.053C327.983 109.706 326.861 109.771 325.879 110.233C324.655 110.857 323.722 111.933 323.279 113.232C321.842 117.509 321.802 120.049 322.458 120.246C322.986 120.451 323.571 120.451 324.099 120.246C324.45 120.028 324.751 119.738 324.98 119.395C325.21 119.051 325.362 118.662 325.427 118.254C326.117 115.796 327.208 111.855 327.208 111.855L328.848 112.265C328.848 112.265 327.757 116.231 327.068 118.656C326.951 119.291 326.693 119.891 326.313 120.413C325.932 120.935 325.439 121.365 324.87 121.671C324.326 122.033 323.677 122.207 323.024 122.163Z" fill="black"/>
<path d="M337.536 119.238L304.247 109.462C303.775 109.329 303.375 109.014 303.134 108.588C302.893 108.161 302.83 107.657 302.959 107.185C303.023 106.951 303.133 106.732 303.283 106.541C303.431 106.35 303.617 106.191 303.828 106.071C304.039 105.951 304.272 105.874 304.512 105.845C304.753 105.815 304.997 105.834 305.231 105.898L338.528 115.69C338.999 115.825 339.398 116.14 339.638 116.565C339.879 116.991 339.943 117.495 339.817 117.968C339.754 118.203 339.645 118.423 339.496 118.616C339.346 118.808 339.159 118.968 338.946 119.086C338.734 119.205 338.499 119.279 338.257 119.306C338.014 119.332 337.769 119.308 337.536 119.238Z" fill="white"/>
<path d="M337.905 120.155C337.68 120.162 337.457 120.124 337.249 120.041L303.959 110.266C303.617 110.167 303.298 110 303.021 109.776C302.744 109.552 302.514 109.276 302.345 108.962C302.177 108.648 302.072 108.304 302.038 107.95C302.004 107.596 302.04 107.239 302.147 106.898C302.238 106.558 302.402 106.241 302.627 105.97C302.852 105.698 303.133 105.479 303.451 105.325C303.759 105.142 304.103 105.027 304.459 104.986C304.815 104.945 305.176 104.979 305.518 105.087L338.807 114.871C339.148 114.97 339.466 115.136 339.743 115.36C340.02 115.583 340.249 115.859 340.417 116.171C340.586 116.484 340.691 116.827 340.726 117.181C340.76 117.534 340.724 117.891 340.62 118.23C340.446 118.807 340.084 119.309 339.593 119.657C339.101 120.006 338.507 120.181 337.905 120.155ZM337.733 118.517C338.005 118.581 338.289 118.567 338.553 118.476C338.792 118.328 338.976 118.107 339.078 117.845C339.144 117.573 339.13 117.289 339.037 117.026C338.963 116.78 338.643 116.599 338.405 116.501L305.116 106.677C304.843 106.614 304.559 106.63 304.296 106.726C304.056 106.87 303.873 107.093 303.778 107.357C303.736 107.484 303.72 107.618 303.73 107.752C303.742 107.885 303.78 108.015 303.843 108.133C303.906 108.251 303.992 108.355 304.097 108.438C304.202 108.522 304.322 108.583 304.452 108.619L337.74 118.451L337.733 118.517Z" fill="black"/>
<path d="M360.341 201.107L327.159 199.542L316.264 152.19L349.447 153.756L360.341 201.107Z" fill="white"/>
<path d="M360.308 201.927L327.117 200.362C326.938 200.345 326.766 200.278 326.621 200.17C326.476 200.062 326.364 199.915 326.297 199.748L315.427 152.478C315.399 152.35 315.403 152.217 315.437 152.09C315.471 151.963 315.536 151.846 315.625 151.749C315.803 151.568 316.043 151.463 316.297 151.454L349.48 153.019C349.66 153.038 349.831 153.104 349.976 153.212C350.12 153.321 350.233 153.466 350.3 153.634L361.178 200.903C361.206 201.031 361.203 201.165 361.169 201.292C361.134 201.418 361.07 201.535 360.981 201.632C360.803 201.813 360.562 201.918 360.308 201.927ZM327.823 198.756L359.283 200.239L348.799 154.633L317.331 153.142L327.823 198.756Z" fill="black"/>
<path d="M359.838 112.901C359.866 112.313 359.412 111.815 358.824 111.787C358.235 111.759 357.736 112.212 357.708 112.8C357.68 113.388 358.135 113.887 358.722 113.915C359.311 113.943 359.81 113.489 359.838 112.901Z" fill="black"/>
<path d="M364.324 113.612C364.352 113.025 363.897 112.526 363.309 112.498C362.72 112.471 362.221 112.924 362.193 113.511C362.165 114.099 362.62 114.598 363.208 114.626C363.796 114.654 364.296 114.2 364.324 113.612Z" fill="black"/>
<path d="M367.511 138.204C366.525 138.201 365.541 138.099 364.574 137.901C364.164 137.901 363.935 137.54 363.869 137.131L363.516 132.436C363.51 132.325 363.528 132.214 363.566 132.11C363.605 132.006 363.665 131.911 363.741 131.83C363.818 131.749 363.91 131.686 364.013 131.642C364.115 131.598 364.225 131.575 364.336 131.576C364.448 131.569 364.56 131.585 364.665 131.623C364.771 131.661 364.867 131.721 364.949 131.797C365.03 131.874 365.095 131.967 365.139 132.07C365.183 132.172 365.206 132.283 365.206 132.395L365.509 136.427C367.06 136.582 370.899 136.926 373.492 136.066C373.701 135.999 373.929 136.019 374.124 136.12C374.32 136.222 374.467 136.397 374.533 136.606C374.6 136.816 374.579 137.044 374.478 137.239C374.376 137.434 374.201 137.581 373.992 137.647C371.88 138.208 369.687 138.396 367.511 138.204Z" fill="black"/>
<path d="M350.883 106.251L377.134 107.488C377.134 107.488 373.852 111.765 375.296 115.116C376.74 118.467 378.667 121.835 376.895 124.621C375.699 126.435 375.033 128.547 374.973 130.718C374.914 132.89 375.464 135.034 376.559 136.911C378.2 140.025 376.773 144.548 376.773 144.548L406.559 136.354C406.559 136.354 399.397 128.054 399.996 123.326C400.595 118.598 404.541 115.673 399.996 111.109C395.452 106.545 400.743 104.088 398.027 99.0405C396.133 95.5827 391.826 94.6401 387.535 96.7375C386.231 93.0667 385.312 90.0684 379.676 91.0024C376.699 91.5185 374.229 91.5679 371.178 90.1093C368.126 88.6506 359.783 87.9295 354.172 93.8129C349.693 98.3194 350.883 106.251 350.883 106.251Z" fill="#243244"/>
<path d="M387.511 97.483H387.347C387.14 97.4149 386.965 97.2751 386.853 97.088C386.741 96.9017 386.701 96.6809 386.74 96.4666C386.83 96.2293 388.381 90.6411 394.123 89.6004C394.232 89.5796 394.344 89.581 394.453 89.6039C394.562 89.6276 394.664 89.6735 394.755 89.7373C394.845 89.8018 394.921 89.8842 394.979 89.9788C395.037 90.0734 395.075 90.1788 395.091 90.2892C395.109 90.3981 395.106 90.5093 395.08 90.6168C395.054 90.7243 395.007 90.8254 394.941 90.9142C394.875 91.0031 394.792 91.0777 394.697 91.1336C394.601 91.1895 394.495 91.2253 394.385 91.2397C389.669 92.059 388.29 96.8522 388.282 96.9748C388.257 97.2701 387.839 97.4995 387.511 97.483Z" fill="black"/>
<path d="M361.457 133.487C359.665 133.423 357.927 132.855 356.444 131.848C355.158 130.99 354.081 129.854 353.29 128.526C352.5 127.198 352.016 125.71 351.875 124.171C351.817 121.951 351.645 118.747 349.988 117.19C349.541 116.907 349.055 116.692 348.545 116.551C346.526 115.732 343.458 114.584 343.917 111.815C344.582 108.243 350.341 108.103 350.997 108.136C351.206 108.162 351.399 108.256 351.548 108.405C351.697 108.553 351.791 108.747 351.817 108.955C351.804 109.168 351.713 109.369 351.562 109.52C351.411 109.671 351.21 109.761 350.997 109.775C349.684 109.775 345.887 110.275 345.55 112.143C345.32 113.445 347.01 114.265 349.184 115.109C349.895 115.348 350.571 115.682 351.194 116.1C353.318 118.092 353.565 121.549 353.598 124.294C353.721 125.566 354.127 126.794 354.785 127.889C355.444 128.985 356.338 129.92 357.404 130.628C359.955 132.307 363.401 132.389 367.166 130.84C367.269 130.78 367.383 130.742 367.502 130.73C367.62 130.719 367.74 130.732 367.853 130.771C367.966 130.81 368.068 130.873 368.154 130.956C368.24 131.039 368.307 131.139 368.35 131.25C368.393 131.362 368.411 131.481 368.403 131.6C368.395 131.719 368.361 131.834 368.304 131.939C368.247 132.043 368.167 132.134 368.071 132.205C367.976 132.276 367.865 132.324 367.748 132.349C365.747 133.138 363.608 133.525 361.457 133.487Z" fill="black"/>
<path d="M368.208 198.035C368.044 198.035 367.962 198.035 367.888 197.946C367.793 197.89 367.709 197.815 367.643 197.727C367.576 197.638 367.529 197.537 367.503 197.43L361.891 175.43C361.866 175.318 361.863 175.202 361.883 175.09C361.903 174.977 361.945 174.87 362.006 174.774C362.154 174.585 362.363 174.451 362.597 174.397L391.629 170.03C391.737 170.011 391.848 170.014 391.955 170.04C392.063 170.065 392.163 170.111 392.252 170.176C392.341 170.241 392.416 170.323 392.473 170.418C392.529 170.512 392.565 170.617 392.58 170.726C392.599 170.834 392.595 170.945 392.57 171.053C392.545 171.16 392.498 171.261 392.434 171.349C392.368 171.438 392.286 171.512 392.192 171.569C392.097 171.625 391.992 171.661 391.883 171.677L363.762 175.848L368.955 196.184L401.038 186.302C404.191 185.316 406.829 183.129 408.382 180.217C409.935 177.304 410.28 173.899 409.339 170.735C404.795 155.666 401.957 146.596 401.054 144.515C399.356 140.418 394.434 138.624 394.352 138.624C394.232 138.611 394.115 138.571 394.012 138.507C393.908 138.444 393.82 138.358 393.754 138.257C393.687 138.156 393.644 138.041 393.627 137.92C393.611 137.8 393.622 137.678 393.658 137.562C393.695 137.447 393.756 137.341 393.839 137.252C393.921 137.163 394.023 137.093 394.135 137.048C394.248 137.003 394.369 136.984 394.491 136.991C394.612 136.999 394.73 137.033 394.837 137.091C395.074 137.181 400.489 139.074 402.482 143.851C403.589 146.522 407.641 159.673 410.841 170.16C411.905 173.741 411.518 177.595 409.765 180.893C408.011 184.192 405.03 186.67 401.465 187.794L368.545 197.962C368.442 198.019 368.325 198.045 368.208 198.035Z" fill="black"/>
<path d="M336.707 181.615C339.516 181.615 341.793 179.34 341.793 176.534C341.793 173.729 339.516 171.454 336.707 171.454C333.898 171.454 331.621 173.729 331.621 176.534C331.621 179.34 333.898 181.615 336.707 181.615Z" fill="#243244"/>
<path d="M362.638 175.217C362.638 175.217 360.579 171.939 358.176 170.58C355.772 169.219 354.074 164.311 352.245 165.786C352.909 169.064 354.632 176.151 354.632 176.151C354.632 176.151 346.141 176.733 341.859 175.217C337.577 173.701 337.109 176.717 337.109 176.717C337.109 176.717 336.675 178.994 339.718 180.617C337.905 180.691 336.355 182.182 336.437 183.411C336.518 184.64 337.364 186.409 339.997 186.369C337.725 187.574 337.536 188.63 337.462 189.532C337.306 192.809 345.058 192.186 345.058 192.186C345.058 192.186 341.202 193.825 342.179 195.742C343.229 197.848 346.691 197.594 351.244 196.75C357.462 195.562 366.92 191.834 366.92 191.834L362.638 175.217Z" fill="white"/>
<path d="M345.46 198.11C343.574 198.019 342.122 197.462 341.359 196.028C341.225 195.749 341.15 195.445 341.138 195.134C341.125 194.825 341.175 194.516 341.285 194.226C341.498 193.753 341.796 193.323 342.163 192.956C340.44 192.874 338.405 192.448 337.306 191.407C337.025 191.158 336.805 190.846 336.663 190.499C336.52 190.15 336.459 189.775 336.486 189.4C336.489 188.892 336.605 188.392 336.825 187.934C337.044 187.477 337.363 187.073 337.757 186.754C337.113 186.466 336.557 186.01 336.152 185.433C335.745 184.855 335.504 184.18 335.452 183.476C335.431 183.076 335.494 182.676 335.634 182.301C335.776 181.925 335.993 181.583 336.272 181.297C336.643 180.897 337.075 180.56 337.552 180.297C337.003 179.85 336.579 179.269 336.322 178.609C336.065 177.951 335.983 177.236 336.083 176.536C336.175 176.107 336.355 175.701 336.612 175.346C336.869 174.99 337.197 174.692 337.577 174.471C338.676 173.782 340.161 173.775 341.933 174.471C345.165 175.61 351.079 175.561 353.467 175.43C352.991 173.357 351.826 168.539 351.285 165.974C351.251 165.825 351.26 165.668 351.31 165.523C351.361 165.379 351.452 165.251 351.572 165.155C351.96 164.807 352.469 164.624 352.991 164.647C354.139 164.786 354.984 165.892 355.993 167.252C356.655 168.248 357.489 169.119 358.455 169.825C361.014 171.259 363.154 174.643 363.228 174.741C363.259 174.774 363.281 174.813 363.294 174.856C363.307 174.898 363.309 174.944 363.302 174.987L367.527 191.514C367.567 191.701 367.544 191.896 367.463 192.069C367.381 192.242 367.246 192.384 367.076 192.472C366.657 192.62 357.454 196.2 351.235 197.462C349.35 197.947 347.406 198.165 345.46 198.11ZM345.042 191.284C345.222 191.302 345.393 191.369 345.538 191.478C345.682 191.586 345.795 191.732 345.862 191.899C345.899 192.087 345.874 192.281 345.791 192.454C345.708 192.626 345.572 192.768 345.403 192.858C344.583 193.226 343.213 193.988 342.942 194.791C342.891 194.868 342.869 194.96 342.88 195.051C342.89 195.143 342.933 195.228 342.999 195.291C343.82 196.93 347.617 196.488 351.203 195.84C356.338 194.848 363.778 192.087 366.034 191.211L361.965 175.503C360.896 173.815 359.502 172.356 357.864 171.21C356.69 170.411 355.682 169.392 354.894 168.211C354.409 167.532 353.86 166.9 353.253 166.326C353.992 169.808 355.435 175.782 355.435 175.864C355.483 176.086 355.441 176.318 355.321 176.511C355.249 176.6 355.159 176.673 355.057 176.725C354.955 176.777 354.844 176.808 354.73 176.814C354.402 176.814 345.993 177.388 341.604 175.782C340.317 175.315 339.25 175.265 338.651 175.642C338.475 175.743 338.321 175.88 338.201 176.043C338.081 176.207 337.997 176.394 337.954 176.593C337.954 176.675 337.708 178.305 340.112 179.649C340.268 179.744 340.393 179.882 340.472 180.046C340.551 180.211 340.579 180.395 340.554 180.575C340.506 180.744 340.406 180.894 340.27 181.005C340.134 181.116 339.967 181.183 339.792 181.198C339.022 181.258 338.302 181.603 337.773 182.165C337.503 182.417 337.339 182.762 337.314 183.132C337.372 183.623 337.618 185.36 340.087 185.311C340.273 185.306 340.456 185.363 340.605 185.475C340.754 185.587 340.861 185.746 340.907 185.926C340.932 186.112 340.902 186.301 340.822 186.471C340.742 186.641 340.615 186.784 340.456 186.884C338.438 187.941 338.397 188.67 338.364 189.343C338.353 189.482 338.374 189.623 338.425 189.753C338.476 189.884 338.556 190.001 338.66 190.096C339.759 191.137 343.204 191.301 345.099 191.137C344.96 191.276 345.05 191.284 345.05 191.284H345.042Z" fill="black"/>
<path d="M348.668 182.354C344.739 182.165 339.685 181.354 339.522 181.346C339.319 181.287 339.142 181.164 339.016 180.996C338.89 180.827 338.823 180.622 338.824 180.412C338.839 180.305 338.875 180.201 338.93 180.108C338.986 180.015 339.059 179.933 339.146 179.869C339.233 179.804 339.332 179.757 339.437 179.73C339.542 179.705 339.652 179.699 339.759 179.715C339.841 179.715 345.961 180.666 349.808 180.764C349.92 180.764 350.029 180.786 350.132 180.83C350.234 180.874 350.327 180.938 350.403 181.018C350.48 181.099 350.54 181.194 350.578 181.298C350.617 181.403 350.634 181.513 350.629 181.624C350.618 181.834 350.527 182.033 350.375 182.178C350.222 182.322 350.019 182.403 349.808 182.403L348.668 182.354Z" fill="black"/>
<path d="M342.277 187.295L339.898 187.188C339.68 187.177 339.476 187.08 339.33 186.919C339.184 186.758 339.108 186.545 339.118 186.328C339.13 186.111 339.227 185.906 339.388 185.761C339.55 185.614 339.763 185.539 339.98 185.549C340.054 185.549 347.092 186.131 350.825 185.402C351.019 185.393 351.21 185.454 351.364 185.572C351.517 185.691 351.624 185.86 351.664 186.05C351.704 186.24 351.676 186.438 351.584 186.609C351.492 186.78 351.342 186.913 351.161 186.984C348.22 187.412 345.241 187.516 342.277 187.295Z" fill="black"/>
<path d="M344.968 192.922C344.761 192.909 344.565 192.824 344.415 192.682C344.265 192.54 344.171 192.348 344.148 192.143C344.141 192.034 344.156 191.926 344.191 191.824C344.227 191.721 344.283 191.626 344.356 191.546C344.428 191.465 344.516 191.4 344.614 191.353C344.712 191.306 344.819 191.279 344.927 191.274C345.009 191.274 351.104 190.914 353.458 189.71C353.558 189.66 353.666 189.631 353.778 189.623C353.888 189.615 354 189.629 354.106 189.665C354.211 189.7 354.309 189.756 354.393 189.829C354.476 189.902 354.545 189.991 354.594 190.09C354.644 190.19 354.673 190.298 354.681 190.409C354.689 190.52 354.675 190.631 354.639 190.737C354.604 190.842 354.548 190.94 354.475 191.024C354.401 191.107 354.313 191.176 354.213 191.225C351.514 192.659 345.255 193.02 345.009 193.003C345.012 192.987 345.01 192.97 345.003 192.955C344.995 192.94 344.983 192.928 344.968 192.922Z" fill="black"/>
<path d="M346.954 154.461C346.863 154.465 346.774 154.432 346.708 154.371C346.606 154.329 346.514 154.268 346.438 154.189C346.361 154.111 346.301 154.019 346.26 153.918C346.22 153.816 346.199 153.707 346.202 153.598C346.204 153.489 346.228 153.381 346.273 153.281L350.161 143.949C352.475 138.401 355.985 135.361 360.604 135.009L364.558 134.706C364.666 134.7 364.775 134.714 364.878 134.75C364.98 134.786 365.074 134.842 365.155 134.914C365.236 134.986 365.302 135.074 365.348 135.172C365.396 135.27 365.422 135.376 365.427 135.485C365.433 135.596 365.416 135.707 365.377 135.811C365.338 135.915 365.279 136.01 365.202 136.09C365.125 136.171 365.033 136.235 364.931 136.279C364.829 136.323 364.718 136.345 364.607 136.345L360.645 136.656C356.773 136.959 353.688 139.606 351.621 144.596L347.733 153.929C347.673 154.087 347.567 154.222 347.427 154.318C347.288 154.413 347.122 154.463 346.954 154.461Z" fill="black"/>
<path d="M342.974 153.455L338.331 131.823L317.897 135.044L323.065 152.512L342.974 153.455Z" fill="#B0EEDF"/>
<path d="M342.933 154.274L323.024 153.331C322.859 153.314 322.703 153.246 322.577 153.138C322.451 153.03 322.361 152.886 322.318 152.725L317.158 135.174C317.115 135.065 317.102 134.946 317.122 134.83C317.143 134.714 317.195 134.607 317.274 134.519C317.364 134.281 317.618 134.207 317.864 134.134L338.307 130.922C338.512 130.899 338.719 130.947 338.892 131.059C339.066 131.172 339.195 131.34 339.258 131.537L343.894 153.25C343.922 153.378 343.919 153.511 343.884 153.638C343.85 153.765 343.785 153.882 343.696 153.979C343.601 154.085 343.483 154.167 343.35 154.217C343.218 154.269 343.075 154.288 342.933 154.274ZM323.672 151.742L341.949 152.562L337.716 132.676L318.93 135.642L323.672 151.742Z" fill="black"/>
<path d="M315.83 124.857C316.664 126.442 317.382 128.085 317.979 129.774C318.398 131.347 319.8 134.69 321.621 134.453C323.443 134.215 335.568 132.24 335.568 132.24C335.568 132.24 334.69 126.627 335.255 123.367C335.822 120.105 336.798 118.45 334.165 116.918C331.531 115.386 328.914 111.502 327.331 112.083C325.748 112.665 325.846 117.262 328.734 118.877C326.765 120.425 325.797 121.777 325.584 122.916" fill="white"/>
<path d="M321.26 135.281C318.635 135.158 317.233 130.168 317.159 130.004C316.567 128.37 315.874 126.775 315.084 125.227C315.034 125.128 315.006 125.019 314.998 124.909C314.991 124.799 315.006 124.688 315.042 124.582C315.078 124.477 315.134 124.381 315.207 124.297C315.28 124.214 315.369 124.146 315.469 124.097C315.569 124.047 315.677 124.019 315.788 124.012C315.899 124.004 316.009 124.019 316.115 124.055C316.22 124.091 316.317 124.147 316.401 124.22C316.484 124.293 316.552 124.382 316.601 124.482C317.434 126.15 318.168 127.865 318.8 129.619C319.357 131.701 320.653 133.814 321.474 133.716L334.714 131.635C334.304 128.891 334.215 126.107 334.452 123.343C334.566 122.688 334.673 122.122 334.78 121.63C335.296 119.361 335.329 118.623 333.811 117.73C332.602 116.982 331.499 116.075 330.53 115.034C329.595 114.093 328.07 112.708 327.676 112.928C327.512 113.011 327.241 113.404 327.208 114.141C327.174 114.939 327.342 115.733 327.696 116.449C328.05 117.165 328.579 117.78 329.234 118.238C329.353 118.304 329.452 118.402 329.519 118.52C329.586 118.639 329.618 118.774 329.612 118.91C329.616 119.044 329.594 119.177 329.546 119.303C329.498 119.428 329.425 119.542 329.333 119.639C327.2 121.344 326.65 122.466 326.535 123.195C326.519 123.303 326.483 123.407 326.428 123.5C326.372 123.594 326.298 123.675 326.211 123.74C326.124 123.805 326.024 123.852 325.919 123.879C325.813 123.905 325.704 123.911 325.596 123.896C325.378 123.865 325.182 123.748 325.051 123.572C324.919 123.396 324.863 123.175 324.895 122.958C325.114 121.734 325.994 120.464 327.536 119.147C326.874 118.521 326.359 117.754 326.03 116.904C325.701 116.054 325.566 115.14 325.633 114.232C325.619 113.694 325.754 113.163 326.024 112.698C326.293 112.232 326.686 111.85 327.159 111.593C328.578 111.003 330.079 112.412 331.802 114.051C332.668 114.993 333.653 115.819 334.731 116.51C337.364 118.025 336.954 119.894 336.519 122.089C336.412 122.573 336.306 123.146 336.19 123.728C335.723 126.825 336.527 132.274 336.527 132.356C336.546 132.465 336.542 132.577 336.516 132.684C336.49 132.792 336.443 132.893 336.378 132.982C336.312 133.07 336.228 133.145 336.133 133.201C336.038 133.257 335.931 133.293 335.822 133.306L321.835 135.518C321.655 135.414 321.462 135.333 321.26 135.281Z" fill="black"/>
<path d="M405.115 211.186C404.904 211.186 404.702 211.106 404.549 210.96C404.397 210.816 404.306 210.618 404.295 210.408C404.295 206.057 401.547 186.982 401.555 186.736C401.539 186.629 401.544 186.519 401.57 186.413C401.597 186.308 401.643 186.208 401.709 186.121C401.773 186.033 401.854 185.959 401.948 185.903C402.041 185.847 402.145 185.81 402.253 185.794C402.36 185.778 402.47 185.783 402.576 185.809C402.681 185.835 402.781 185.883 402.868 185.947C402.956 186.012 403.03 186.093 403.087 186.187C403.143 186.28 403.18 186.383 403.196 186.49C403.319 187.31 405.887 205.893 406.01 210.325C405.982 210.56 405.87 210.776 405.695 210.934C405.52 211.092 405.294 211.182 405.058 211.186H405.115Z" fill="black"/>
<path d="M350.349 336.098C350.639 340.823 350.691 345.559 350.505 350.289C338.134 349.986 308.167 357.352 307.478 360.802C306.789 364.251 310.858 364.334 310.858 364.334L376.854 364.489L375.624 335.483L350.349 336.098Z" fill="#FEEBC8" fill-opacity="0.51"/>
<mask id="path-37-inside-1_34_366" fill="white">
<path d="M376.854 365.234L310.932 365.004C310.858 365.004 308.553 364.923 307.405 363.464C307.088 363.055 306.87 362.581 306.763 362.076C306.656 361.571 306.665 361.048 306.789 360.547C307.708 356.172 338.364 349.421 349.89 349.421C350.193 344.053 349.66 336.147 349.66 336.073C349.667 335.87 349.749 335.678 349.89 335.532C349.956 335.457 350.038 335.396 350.131 335.357C350.223 335.318 350.323 335.299 350.423 335.303L375.624 334.688C375.825 334.7 376.014 334.785 376.156 334.927C376.298 335.069 376.383 335.258 376.395 335.458L377.625 364.464C377.617 364.668 377.531 364.86 377.388 365.004C377.32 365.079 377.238 365.138 377.146 365.177C377.054 365.217 376.955 365.237 376.854 365.234ZM351.194 336.761C351.493 341.256 351.545 345.763 351.35 350.264C351.333 350.456 351.244 350.635 351.102 350.764C350.959 350.894 350.772 350.964 350.579 350.961C337.519 350.575 309.168 358.245 308.323 360.858C308.201 361.439 308.311 362.045 308.627 362.547C308.926 362.856 309.284 363.104 309.68 363.276C310.075 363.447 310.501 363.539 310.932 363.546L376.083 363.693L374.935 336.229L351.194 336.761Z"/>
</mask>
<path d="M376.854 365.234L310.932 365.004C310.858 365.004 308.553 364.923 307.405 363.464C307.088 363.055 306.87 362.581 306.763 362.076C306.656 361.571 306.665 361.048 306.789 360.547C307.708 356.172 338.364 349.421 349.89 349.421C350.193 344.053 349.66 336.147 349.66 336.073C349.667 335.87 349.749 335.678 349.89 335.532C349.956 335.457 350.038 335.396 350.131 335.357C350.223 335.318 350.323 335.299 350.423 335.303L375.624 334.688C375.825 334.7 376.014 334.785 376.156 334.927C376.298 335.069 376.383 335.258 376.395 335.458L377.625 364.464C377.617 364.668 377.531 364.86 377.388 365.004C377.32 365.079 377.238 365.138 377.146 365.177C377.054 365.217 376.955 365.237 376.854 365.234ZM351.194 336.761C351.493 341.256 351.545 345.763 351.35 350.264C351.333 350.456 351.244 350.635 351.102 350.764C350.959 350.894 350.772 350.964 350.579 350.961C337.519 350.575 309.168 358.245 308.323 360.858C308.201 361.439 308.311 362.045 308.627 362.547C308.926 362.856 309.284 363.104 309.68 363.276C310.075 363.447 310.501 363.539 310.932 363.546L376.083 363.693L374.935 336.229L351.194 336.761Z" fill="#FEEBC8" fill-opacity="0.39"/>
<path d="M376.854 365.234L376.911 363.235L376.886 363.234L376.861 363.234L376.854 365.234ZM310.932 365.004L310.939 363.004H310.932V365.004ZM307.405 363.464L305.824 364.689L305.829 364.695L305.833 364.701L307.405 363.464ZM306.763 362.076L304.805 362.488L304.806 362.491L306.763 362.076ZM306.789 360.547L308.73 361.028L308.739 360.994L308.746 360.959L306.789 360.547ZM349.89 349.421V351.421H351.781L351.887 349.533L349.89 349.421ZM349.66 336.073L347.661 336.002L347.66 336.038V336.073H349.66ZM349.89 335.532L351.328 336.922L351.362 336.887L351.394 336.851L349.89 335.532ZM350.131 335.357L350.914 337.197L350.919 337.195L350.131 335.357ZM350.423 335.303L350.351 337.301L350.411 337.303L350.472 337.302L350.423 335.303ZM375.624 334.688L375.738 332.691L375.656 332.687L375.575 332.689L375.624 334.688ZM376.395 335.458L378.393 335.373L378.393 335.355L378.391 335.336L376.395 335.458ZM377.625 364.464L379.623 364.549L379.627 364.464L379.623 364.379L377.625 364.464ZM377.388 365.004L375.971 363.593L375.937 363.627L375.905 363.662L377.388 365.004ZM377.146 365.177L376.362 363.337L376.354 363.341L376.345 363.345L377.146 365.177ZM351.194 336.761L351.149 334.762L349.06 334.809L349.199 336.894L351.194 336.761ZM351.35 350.264L353.343 350.435L353.346 350.393L353.348 350.351L351.35 350.264ZM351.102 350.764L349.761 349.28L349.757 349.283L351.102 350.764ZM350.579 350.961L350.52 352.96L350.535 352.961L350.549 352.961L350.579 350.961ZM308.323 360.858L306.42 360.243L306.388 360.344L306.366 360.447L308.323 360.858ZM308.627 362.547L306.935 363.614L307.045 363.788L307.189 363.936L308.627 362.547ZM310.932 363.546L310.899 365.546L310.913 365.546L310.928 365.546L310.932 363.546ZM376.083 363.693L376.078 365.693L378.168 365.698L378.081 363.61L376.083 363.693ZM374.935 336.229L376.933 336.145L376.851 334.185L374.89 334.229L374.935 336.229ZM376.861 363.234L310.939 363.004L310.925 367.004L376.847 367.234L376.861 363.234ZM310.932 363.004C311.043 363.004 310.633 363.001 310.107 362.854C309.56 362.702 309.171 362.475 308.976 362.227L305.833 364.701C306.787 365.912 308.125 366.455 309.035 366.708C309.968 366.967 310.747 367.004 310.932 367.004V363.004ZM308.986 362.239C308.855 362.071 308.764 361.874 308.719 361.662L304.806 362.491C304.975 363.288 305.321 364.04 305.824 364.689L308.986 362.239ZM308.72 361.665C308.675 361.453 308.679 361.235 308.73 361.028L304.848 360.066C304.651 360.862 304.638 361.689 304.805 362.488L308.72 361.665ZM308.746 360.959C308.697 361.193 308.6 361.234 308.742 361.086C308.87 360.952 309.109 360.753 309.506 360.501C310.298 359.997 311.48 359.429 313.021 358.825C316.085 357.624 320.265 356.394 324.833 355.287C334.005 353.064 344.367 351.421 349.89 351.421V347.421C343.888 347.421 333.159 349.153 323.891 351.4C319.24 352.527 314.863 353.806 311.561 355.101C309.918 355.745 308.465 356.422 307.359 357.125C306.807 357.477 306.282 357.871 305.854 358.317C305.441 358.749 304.996 359.355 304.832 360.136L308.746 360.959ZM351.887 349.533C352.191 344.152 351.66 335.819 351.66 336.073H347.66C347.66 336.475 348.196 343.955 347.893 349.308L351.887 349.533ZM351.659 336.144C351.648 336.437 351.529 336.714 351.328 336.922L348.452 334.142C347.969 334.642 347.686 335.304 347.661 336.002L351.659 336.144ZM351.394 336.851C351.269 336.993 351.107 337.115 350.914 337.197L349.347 333.517C348.969 333.678 348.644 333.92 348.387 334.213L351.394 336.851ZM350.919 337.195C350.738 337.273 350.545 337.308 350.351 337.301L350.495 333.304C350.101 333.29 349.707 333.363 349.342 333.519L350.919 337.195ZM350.472 337.302L375.672 336.688L375.575 332.689L350.374 333.303L350.472 337.302ZM375.51 336.685C375.218 336.668 374.946 336.545 374.743 336.342L377.57 333.512C377.082 333.025 376.431 332.731 375.738 332.691L375.51 336.685ZM374.743 336.342C374.537 336.136 374.416 335.864 374.399 335.58L378.391 335.336C378.35 334.652 378.06 334.002 377.57 333.512L374.743 336.342ZM374.397 335.543L375.627 364.549L379.623 364.379L378.393 335.373L374.397 335.543ZM375.627 364.379C375.64 364.078 375.765 363.799 375.971 363.593L378.805 366.416C379.297 365.922 379.593 365.257 379.623 364.549L375.627 364.379ZM375.905 363.662C376.028 363.527 376.183 363.413 376.362 363.337L377.929 367.017C378.294 366.862 378.613 366.631 378.871 366.346L375.905 363.662ZM376.345 363.345C376.522 363.267 376.716 363.229 376.911 363.235L376.797 367.233C377.194 367.244 377.586 367.167 377.947 367.01L376.345 363.345ZM349.199 336.894C349.492 341.316 349.544 345.75 349.352 350.178L353.348 350.351C353.546 345.777 353.493 341.196 353.19 336.629L349.199 336.894ZM349.357 350.093C349.384 349.779 349.53 349.489 349.761 349.28L352.442 352.248C352.959 351.781 353.283 351.134 353.343 350.435L349.357 350.093ZM349.757 349.283C349.992 349.07 350.297 348.957 350.609 348.961L350.549 352.961C351.246 352.971 351.926 352.717 352.446 352.244L349.757 349.283ZM350.638 348.962C343.819 348.76 333.243 350.641 324.388 352.844C319.932 353.953 315.83 355.163 312.764 356.275C311.239 356.828 309.917 357.375 308.922 357.893C308.429 358.15 307.958 358.429 307.568 358.732C307.252 358.977 306.669 359.473 306.42 360.243L310.227 361.474C310.083 361.917 309.821 362.047 310.02 361.892C310.144 361.796 310.381 361.643 310.77 361.441C311.538 361.041 312.672 360.563 314.127 360.035C317.023 358.986 320.983 357.813 325.354 356.726C334.15 354.537 344.28 352.776 350.52 352.96L350.638 348.962ZM306.366 360.447C306.137 361.537 306.342 362.673 306.935 363.614L310.319 361.48C310.279 361.417 310.266 361.341 310.281 361.27L306.366 360.447ZM307.189 363.936C307.671 364.435 308.248 364.835 308.885 365.111L310.475 361.44C310.321 361.374 310.181 361.277 310.065 361.157L307.189 363.936ZM308.885 365.111C309.519 365.386 310.204 365.535 310.899 365.546L310.965 361.547C310.798 361.544 310.631 361.508 310.475 361.44L308.885 365.111ZM310.928 365.546L376.078 365.693L376.087 361.693L310.937 361.546L310.928 365.546ZM378.081 363.61L376.933 336.145L372.936 336.312L374.085 363.777L378.081 363.61ZM374.89 334.229L351.149 334.762L351.239 338.761L374.98 338.228L374.89 334.229Z" fill="black" mask="url(#path-37-inside-1_34_366)"/>
<path d="M373.704 343.743C373.704 343.743 374.237 344.816 373.86 350.299C361.49 349.995 331.522 357.361 330.833 360.811C330.144 364.26 334.213 364.342 334.213 364.342L400.21 364.498L398.979 343.194L373.704 343.743Z" fill="#FEEBC8" fill-opacity="0.39"/>
<path d="M400.21 365.236L334.287 365.08C334.213 365.08 331.908 365.006 330.76 363.548C330.445 363.139 330.226 362.665 330.12 362.159C330.013 361.655 330.021 361.132 330.144 360.631C331.063 356.256 361.719 349.504 373.245 349.504C373.475 345.203 373.089 344.129 373.089 344.129C373.014 344.015 372.973 343.881 372.973 343.744C372.973 343.607 373.014 343.473 373.089 343.359C373.137 343.238 373.222 343.136 373.334 343.067C373.444 342.999 373.575 342.969 373.705 342.982L398.979 342.441C399.17 342.438 399.356 342.508 399.499 342.635C399.642 342.763 399.732 342.939 399.75 343.13L400.98 364.433C400.972 364.637 400.886 364.829 400.743 364.974C400.675 365.048 400.593 365.107 400.501 365.146C400.409 365.186 400.309 365.206 400.21 365.204V365.236ZM374.705 344.441C374.908 346.377 374.908 348.329 374.705 350.266C374.689 350.458 374.6 350.637 374.457 350.766C374.314 350.895 374.127 350.965 373.934 350.963C360.875 350.577 332.523 358.247 331.679 360.861C331.554 361.443 331.666 362.05 331.99 362.549C332.286 362.86 332.643 363.109 333.037 363.281C333.432 363.452 333.857 363.544 334.287 363.548L399.438 363.695L398.29 343.9L374.705 344.441Z" fill="black"/>
<path d="M385.46 340.827H334.599L344.738 211.555L380.833 211.097C380.85 223.502 385.46 340.753 385.46 340.827Z" fill="#2A2552"/>
<path d="M410.193 345.202H359.332L363.335 211.555L405.665 211.097C405.665 223.887 410.275 345.202 410.193 345.202Z" fill="#2A2552"/>
<path d="M359.414 345.971C359.21 345.971 359.013 345.89 358.869 345.746C358.724 345.601 358.643 345.405 358.643 345.201L360.948 267.361C360.948 267.157 361.029 266.961 361.174 266.816C361.318 266.672 361.515 266.591 361.719 266.591C361.822 266.585 361.925 266.6 362.021 266.638C362.118 266.674 362.204 266.73 362.278 266.803C362.35 266.876 362.407 266.963 362.443 267.059C362.48 267.155 362.496 267.258 362.49 267.361L360.185 345.201C360.185 345.302 360.165 345.402 360.126 345.495C360.087 345.589 360.031 345.674 359.959 345.746C359.888 345.817 359.802 345.874 359.709 345.913C359.615 345.951 359.515 345.971 359.414 345.971Z" fill="black"/>
<path d="M425.492 366.334H256.454C256.219 366.334 255.993 366.241 255.828 366.075C255.661 365.909 255.568 365.684 255.568 365.449C255.568 365.215 255.661 364.99 255.828 364.823C255.993 364.658 256.219 364.564 256.454 364.564H425.583C425.702 364.554 425.821 364.57 425.933 364.611C426.045 364.652 426.147 364.717 426.231 364.801C426.315 364.886 426.381 364.987 426.422 365.099C426.462 365.211 426.478 365.331 426.469 365.449C426.465 365.572 426.437 365.693 426.386 365.805C426.335 365.917 426.262 366.017 426.17 366.101C426.079 366.183 425.972 366.247 425.855 366.287C425.739 366.327 425.616 366.343 425.492 366.334Z" fill="black"/>
<path d="M41.4433 334.68L40.1307 365.652L110.598 365.488C110.598 365.488 114.946 365.406 114.207 361.719C113.469 358.031 81.4759 350.166 68.2683 350.494C68.0651 345.441 68.1198 340.382 68.4324 335.336L41.4433 334.68Z" fill="#FFF7EA"/>
<path d="M40.1311 366.473C40.0233 366.476 39.9162 366.455 39.8171 366.413C39.7179 366.371 39.6292 366.307 39.5569 366.227C39.4079 366.072 39.3204 365.868 39.3108 365.654L40.6234 334.682C40.6386 334.469 40.7299 334.27 40.8806 334.119C41.0313 333.969 41.2311 333.878 41.4437 333.863L68.3507 334.518C68.4585 334.515 68.5657 334.536 68.6649 334.578C68.764 334.62 68.8527 334.683 68.925 334.764C69.074 334.918 69.1615 335.123 69.1711 335.337C69.1711 335.419 68.5968 343.858 68.925 349.594C81.2298 349.594 113.962 356.804 114.946 361.475C115.078 362.01 115.088 362.567 114.974 363.106C114.86 363.645 114.626 364.152 114.29 364.589C113.059 366.145 110.598 366.227 110.516 366.227L40.1311 366.473ZM42.182 335.501L40.9515 364.834L110.516 364.67C110.977 364.667 111.433 364.571 111.855 364.388C112.278 364.205 112.66 363.939 112.977 363.605C113.321 363.071 113.439 362.423 113.305 361.803C112.403 359.016 82.1326 350.823 68.1867 351.233C67.9826 351.234 67.7854 351.159 67.6338 351.023C67.4821 350.886 67.3867 350.698 67.3663 350.495C67.1566 345.689 67.2114 340.875 67.5304 336.075L42.182 335.501Z" fill="black"/>
<path d="M42.2863 344.502C42.278 344.578 42.27 344.657 42.2624 344.741C42.1636 345.826 42.1251 347.625 42.3326 350.566L42.3998 351.519L43.3549 351.495C49.8199 351.335 61.0133 353.192 70.7374 355.574C75.587 356.762 80.0255 358.069 83.2831 359.301C84.9165 359.918 86.219 360.503 87.1202 361.03C87.5723 361.294 87.8906 361.524 88.0933 361.714C88.2403 361.851 88.2845 361.928 88.2933 361.943C88.4304 362.652 88.3115 363.086 88.1504 363.365C87.9772 363.665 87.6865 363.903 87.3056 364.088C86.9241 364.272 86.5051 364.377 86.1649 364.433C85.9985 364.46 85.8594 364.475 85.765 364.482C85.718 364.486 85.6827 364.488 85.6611 364.489L85.6433 364.49L16.2519 364.651L17.4478 343.899L42.2863 344.502Z" fill="#FEEBC8" fill-opacity="0.39" stroke="black" stroke-width="2"/>
<path d="M15.1929 366.471C15.0851 366.474 14.978 366.454 14.8789 366.412C14.7797 366.369 14.691 366.305 14.6187 366.225C14.4697 366.07 14.3822 365.867 14.3726 365.652L15.6851 342.873C15.7055 342.671 15.8009 342.483 15.9526 342.347C16.1042 342.21 16.3014 342.135 16.5055 342.136L43.4945 342.71C43.6335 342.698 43.7724 342.732 43.8906 342.806C44.0089 342.88 44.1001 342.989 44.1508 343.119C44.2309 343.241 44.2736 343.384 44.2736 343.529C44.2736 343.675 44.2309 343.817 44.1508 343.939C44.1508 343.939 43.7406 345.086 43.9868 349.674C56.2918 349.674 89.0234 356.885 90.0073 361.555C90.1401 362.09 90.1494 362.648 90.036 363.187C89.9219 363.726 89.688 364.232 89.3514 364.669C88.1206 366.225 85.6598 366.308 85.578 366.308L15.1929 366.471ZM17.2438 343.693L16.0132 364.832L85.578 364.669C86.0387 364.665 86.4937 364.569 86.9171 364.387C87.3398 364.203 87.7216 363.937 88.0388 363.604C88.3826 363.07 88.5003 362.421 88.3668 361.801C87.4647 359.015 57.1942 350.821 43.2485 351.231C43.0444 351.232 42.8472 351.157 42.6956 351.02C42.5439 350.884 42.4485 350.696 42.4281 350.494C42.2074 348.424 42.2074 346.336 42.4281 344.267L17.2438 343.693Z" fill="#FEEBC8"/>
<path d="M35.8649 201.862L74.4207 202.354L85.2492 340.417H30.9429C30.9429 340.335 35.8649 215.136 35.8649 201.862Z" fill="#DAF8E9"/>
<path d="M9.36838 201.862L54.5689 202.354L58.8346 345.112H4.52836C4.44632 345.112 9.36838 215.546 9.36838 201.862Z" fill="#DAF8E9"/>
<path d="M151.368 116.731C153.665 116.567 155.47 120.336 151.368 121.729C147.267 123.122 143.903 121.401 141.524 123.86L138.161 124.187L138.489 120.172L143.493 116.485L151.368 116.731Z" fill="white"/>
<path d="M138.161 124.924C138.053 124.927 137.946 124.907 137.847 124.865C137.748 124.822 137.659 124.758 137.586 124.678C137.423 124.5 137.335 124.265 137.34 124.023L137.669 120.008C137.671 119.893 137.702 119.78 137.759 119.679C137.817 119.579 137.899 119.495 137.997 119.435L143.001 115.748C143.15 115.657 143.319 115.601 143.493 115.583L151.368 115.829C152.111 115.829 152.831 116.08 153.412 116.541C153.993 117.003 154.401 117.647 154.567 118.37C154.814 119.68 154.24 121.483 151.614 122.384C149.971 122.899 148.249 123.121 146.528 123.04C144.642 123.04 143.165 123.121 142.098 124.269C142.037 124.341 141.962 124.399 141.877 124.442C141.793 124.484 141.701 124.508 141.606 124.515L138.243 124.842C138.243 124.924 138.243 124.924 138.161 124.924ZM139.31 120.5L139.063 123.204L141.196 122.958C142.755 121.565 144.642 121.483 146.61 121.483C148.162 121.525 149.711 121.331 151.205 120.909C152.599 120.418 153.255 119.68 153.091 118.779C153.026 118.42 152.831 118.097 152.544 117.87C152.257 117.644 151.898 117.53 151.533 117.55H151.451L143.821 117.305L139.31 120.5Z" fill="black"/>
<path d="M137.177 124.351C137.177 124.351 141.689 123.121 143.329 124.022C145.217 125.006 145.463 125.743 144.724 128.693L139.064 132.708L135.864 127.98L137.177 124.351Z" fill="white"/>
<path d="M138.981 133.528H138.817C138.704 133.516 138.594 133.48 138.496 133.424C138.397 133.368 138.311 133.291 138.243 133.199L135.044 128.448C134.973 128.34 134.928 128.217 134.914 128.089C134.9 127.96 134.916 127.831 134.961 127.71L136.274 124.105C136.326 123.985 136.405 123.878 136.505 123.794C136.604 123.708 136.722 123.647 136.848 123.613C137.668 123.367 141.77 122.384 143.657 123.367C146.118 124.678 146.2 125.989 145.38 128.939C145.3 129.121 145.189 129.287 145.051 129.431L139.391 133.445C139.256 133.481 139.119 133.508 138.981 133.528ZM136.766 127.874L139.227 131.561L143.985 128.202C144.642 125.662 144.314 125.497 142.919 124.761C142.098 124.269 139.556 124.678 137.751 125.088L136.766 127.874Z" fill="black"/>
<path d="M95.0933 163.843L130.696 149.915L121.755 128.119L82.2144 146.227L69.4991 124.76C67.8602 122.003 65.6643 119.618 63.0514 117.755C60.4385 115.893 57.4658 114.595 54.3228 113.944L48.7446 112.797L35.0449 112.552L22.2477 116.075C22.2477 116.075 13.4701 119.762 11.9114 126.562C10.3528 133.363 4.85654 157.452 4.85654 157.452C4.85654 157.452 2.47756 165.646 7.89179 172.693C9.20429 174.332 11.8294 176.871 11.8294 176.871L9.36842 201.862H74.5033L73.5187 170.89L95.0933 163.843Z" fill="#2A2552" fill-opacity="0.6"/>
<path d="M95.0933 164.662C94.9332 164.675 94.7725 164.634 94.6383 164.544C94.5048 164.455 94.4043 164.323 94.3548 164.17C94.3161 164.068 94.2981 163.959 94.3017 163.85C94.3053 163.741 94.3304 163.633 94.3763 163.534C94.4223 163.435 94.4876 163.345 94.5687 163.272C94.649 163.198 94.7445 163.142 94.8471 163.105L129.712 149.503L121.427 129.265L82.6242 147.045C82.4354 147.12 82.2273 147.128 82.0335 147.068C81.8398 147.009 81.6718 146.885 81.5577 146.718L68.8427 125.25C67.2628 122.587 65.1385 120.285 62.6084 118.497C60.0783 116.707 57.1991 115.472 54.1587 114.869L48.5803 113.722C48.4726 113.7 48.3702 113.657 48.2789 113.597C48.1876 113.536 48.1093 113.457 48.0483 113.366C47.9874 113.275 47.9451 113.172 47.9237 113.065C47.9024 112.957 47.9025 112.846 47.9241 112.739C47.9456 112.631 47.9882 112.529 48.0493 112.437C48.1104 112.346 48.189 112.268 48.2804 112.207C48.3718 112.146 48.4743 112.104 48.582 112.083C48.6898 112.061 48.8008 112.061 48.9085 112.083L54.4868 113.23C57.7529 113.895 60.8429 115.237 63.5562 117.171C66.2695 119.105 68.5458 121.587 70.2373 124.455L82.5423 145.267L121.427 127.487C121.638 127.405 121.872 127.405 122.083 127.487C122.199 127.522 122.304 127.586 122.39 127.672C122.476 127.757 122.54 127.862 122.575 127.978L131.517 149.774C131.599 149.985 131.599 150.218 131.517 150.429C131.466 150.527 131.397 150.613 131.312 150.684C131.228 150.755 131.13 150.807 131.024 150.839L95.4219 164.768C95.3243 164.703 95.211 164.665 95.0933 164.662Z" fill="black"/>
<path d="M98.7849 165.729L49.6466 140.739L13.8799 210.548L62.854 236.44L98.7849 165.729Z" fill="white"/>
<path d="M62.854 237.258C62.7122 237.271 62.5698 237.243 62.4438 237.177L13.5518 211.285C13.4567 211.24 13.3721 211.176 13.3033 211.097C13.2345 211.017 13.183 210.925 13.1522 210.824C13.1212 210.724 13.1117 210.619 13.124 210.515C13.1363 210.41 13.1702 210.31 13.2236 210.219L48.9903 140.41C49.0351 140.314 49.0992 140.23 49.1785 140.161C49.2578 140.093 49.3506 140.041 49.451 140.011C49.5514 139.98 49.6571 139.97 49.7614 139.982C49.8657 139.995 49.9663 140.028 50.0567 140.081L99.1946 165.073C99.2901 165.117 99.3747 165.181 99.4436 165.26C99.5118 165.339 99.5635 165.432 99.5943 165.533C99.6252 165.633 99.6352 165.739 99.623 165.842C99.6101 165.947 99.5764 166.047 99.5233 166.138L63.5103 236.849C63.4599 236.947 63.3904 237.033 63.3059 237.104C63.2212 237.174 63.1234 237.227 63.018 237.258H62.854ZM15.0284 210.219L62.5259 235.374L97.8002 166.138L50.1388 141.909L15.0284 210.219Z" fill="black"/>
<path d="M26.5132 152.208L65.5612 169.25L53.5022 195.634L18.4739 180.393L26.5132 152.208Z" fill="#7F7C97"/>
<path d="M64.6591 74.8593C64.6591 74.8593 69.9092 54.8666 47.8422 57.7343C36.6035 59.3731 23.232 67.4028 26.0212 75.5145C22.4937 77.6448 16.1771 87.4771 18.5561 97.146C20.8531 106.651 27.2517 109.682 35.373 108.699C35.209 105.421 32.4198 78.71 32.4198 78.71L64.6591 74.8593Z" fill="#243244"/>
<path d="M48.7444 109.193V113.862C48.7444 113.862 44.1505 116.976 35.783 113.944C35.5369 111.24 35.2088 102.883 35.2088 102.883C34.7982 103.68 34.1251 104.31 33.3032 104.668C32.4812 105.026 31.5607 105.09 30.697 104.849C27.3336 104.194 26.5132 101.326 26.2671 98.8685C26.021 96.4099 27.7437 91.9034 33.8962 95.9181L32.5017 78.7122L62.9362 75.025C62.9362 75.025 70.4833 73.8774 70.6474 77.647C70.8114 81.4159 68.4324 82.6445 63.4283 83.7921C63.3463 86.0858 65.3972 110.504 51.6155 109.52L48.7444 109.193Z" fill="white"/>
<path d="M48.3346 85.8385C49.0141 85.8385 49.565 85.2887 49.565 84.6099C49.565 83.9311 49.0141 83.3806 48.3346 83.3806C47.6549 83.3806 47.104 83.9311 47.104 84.6099C47.104 85.2887 47.6549 85.8385 48.3346 85.8385Z" fill="black"/>
<path d="M53.7484 85.511C54.428 85.511 54.9789 84.9612 54.9789 84.2824C54.9789 83.6036 54.428 83.0531 53.7484 83.0531C53.0688 83.0531 52.5179 83.6036 52.5179 84.2824C52.5179 84.9612 53.0688 85.511 53.7484 85.511Z" fill="black"/>
<path d="M42.6736 116.156C40.2022 116.138 37.7552 115.665 35.4547 114.763C35.3012 114.704 35.1666 114.604 35.0655 114.474C34.9644 114.344 34.9004 114.189 34.8804 114.026C34.7164 112.141 34.4703 107.553 34.3883 104.931C33.8204 105.323 33.1763 105.591 32.498 105.718C31.8196 105.845 31.122 105.828 30.4506 105.669C27.4154 105.095 25.6927 102.801 25.3646 98.9495C25.2568 98.0155 25.3973 97.0693 25.7717 96.2063C26.1461 95.3433 26.7412 94.5942 27.4974 94.0337C29.2201 93.0502 31.4351 93.3778 34.2242 95.1806C34.4091 95.3003 34.539 95.4881 34.5851 95.7031C34.6312 95.9181 34.5899 96.1432 34.4703 96.3274C34.3506 96.5124 34.1624 96.6421 33.947 96.688C33.7316 96.7346 33.5068 96.693 33.3218 96.5733C31.1069 95.1806 29.3842 94.7706 28.3177 95.4264C27.2513 96.0816 26.9231 97.8026 27.0052 98.786C27.2513 101.982 28.4818 103.62 30.6967 104.029C33.4039 104.521 34.3062 102.555 34.3062 102.555C34.3781 102.382 34.5067 102.24 34.6707 102.151C34.8348 102.061 35.0246 102.03 35.2086 102.063C35.3833 102.098 35.5419 102.189 35.6603 102.322C35.7787 102.455 35.8505 102.623 35.8649 102.801C35.8649 102.883 36.193 110.257 36.4391 113.288C42.7557 115.419 46.6113 113.862 47.8418 113.288V109.192C47.8418 108.975 47.9282 108.766 48.082 108.613C48.2359 108.459 48.4445 108.372 48.6621 108.372C48.8796 108.372 49.0883 108.459 49.2422 108.613C49.396 108.766 49.4824 108.975 49.4824 109.192V113.862C49.4593 114.114 49.3422 114.348 49.1543 114.518C48.9902 114.682 46.7753 116.156 42.6736 116.156Z" fill="black"/>
<path d="M52.2717 110.339H51.3693L45.791 109.765C45.586 109.717 45.4026 109.603 45.2692 109.439C45.1358 109.276 45.0597 109.074 45.0527 108.864C45.09 108.654 45.2015 108.464 45.3671 108.328C45.5326 108.193 45.7412 108.122 45.9551 108.127L51.5334 108.7C52.6337 108.823 53.7475 108.703 54.7963 108.349C55.8451 107.995 56.8035 107.416 57.6039 106.652C62.854 101.653 62.5259 89.1989 62.4439 85.1025V83.7914C62.4583 83.6137 62.53 83.4459 62.6484 83.3133C62.7668 83.18 62.9254 83.089 63.1001 83.0538C68.2683 81.907 69.7449 80.6777 69.6629 77.7281C69.6769 77.5238 69.6393 77.3188 69.5532 77.1324C69.4672 76.9467 69.3356 76.7847 69.1706 76.6629C67.7761 75.516 64.2486 75.7619 62.9361 75.9253C62.821 75.9791 62.695 76.0049 62.5681 76.0013C62.4413 75.9977 62.317 75.9647 62.205 75.9052C62.0931 75.845 61.9965 75.7604 61.9228 75.6572C61.8492 75.554 61.8006 75.435 61.7808 75.3096C61.7611 75.1849 61.7706 75.0566 61.8088 74.9354C61.847 74.815 61.9126 74.7046 62.0008 74.6136C62.0889 74.5218 62.197 74.4523 62.3166 74.41C62.4362 74.3677 62.564 74.3534 62.69 74.3684C63.2642 74.2867 68.0222 73.6316 70.155 75.4336C70.4978 75.7139 70.7774 76.0629 70.9754 76.4579C71.1734 76.8536 71.2852 77.2865 71.3036 77.7281C71.4676 82.3163 68.1862 83.6273 64.0846 84.6107V85.1842C64.1666 89.4448 64.4947 102.555 58.7524 107.963C56.9636 109.533 54.6528 110.38 52.2717 110.339Z" fill="black"/>
<path d="M26.0211 76.359C25.8731 76.3604 25.7275 76.3231 25.5982 76.2507C25.4689 76.1791 25.3602 76.0758 25.2828 75.9497C25.2008 75.7038 22.4937 70.9515 17.7357 72.6725C17.6333 72.7098 17.5245 72.727 17.4156 72.7227C17.3066 72.7184 17.1996 72.6926 17.1005 72.6467C17.0015 72.6015 16.9124 72.5363 16.8385 72.4567C16.7644 72.3765 16.7069 72.2826 16.6692 72.1808C16.6316 72.0783 16.6143 71.97 16.6187 71.8611C16.623 71.7521 16.6488 71.6451 16.6945 71.5462C16.7401 71.4473 16.8049 71.3583 16.885 71.2844C16.9652 71.2105 17.0591 71.1531 17.1615 71.1154C22.0014 69.3128 25.5289 72.9184 26.6773 75.1304C26.7346 75.2264 26.7715 75.3332 26.786 75.4436C26.8004 75.5547 26.792 75.6673 26.7613 75.7748C26.7306 75.8823 26.6781 75.9819 26.6073 76.0687C26.5364 76.1547 26.4486 76.2264 26.3492 76.2773C26.2672 76.2529 26.1852 76.359 26.0211 76.359Z" fill="black"/>
<path d="M53.5024 196.454C53.3867 196.466 53.2704 196.437 53.1742 196.372L17.0794 180.722C12.4522 179.105 8.5745 175.858 6.17325 171.588C3.772 167.32 3.0121 162.322 4.03603 157.534L10.2706 128.774C10.9922 125.356 12.6582 122.21 15.0797 119.689C17.5011 117.169 20.581 115.378 23.9702 114.517L35.3729 111.567C35.5633 111.554 35.7525 111.608 35.9077 111.719C36.0628 111.83 36.1743 111.992 36.2229 112.177C36.2714 112.361 36.2542 112.556 36.1738 112.729C36.0935 112.903 35.9554 113.042 35.7831 113.124L24.3804 116.074C21.2881 116.859 18.479 118.497 16.2742 120.801C14.0694 123.104 12.5575 125.981 11.9113 129.102L5.67671 157.862C4.72826 162.271 5.4319 166.875 7.65434 170.801C9.87682 174.728 13.4637 177.703 17.7356 179.165L53.0922 194.569L64.4128 169.66L26.1851 152.945C26.0251 152.838 25.9081 152.677 25.8547 152.492C25.8014 152.307 25.8151 152.109 25.8935 151.933C25.9718 151.757 26.1098 151.614 26.2832 151.529C26.4565 151.445 26.6542 151.424 26.8414 151.471L65.8894 168.513C65.9873 168.563 66.0741 168.633 66.1446 168.718C66.215 168.802 66.2677 168.9 66.2996 169.005C66.382 169.216 66.382 169.449 66.2996 169.66L54.3227 196.044C54.2281 196.172 54.1044 196.276 53.9618 196.347C53.8192 196.419 53.6618 196.455 53.5024 196.454Z" fill="black"/>
<path d="M63.0183 174.823C63.0183 174.823 70.7294 178.1 75.4872 178.756C81.148 179.575 94.7653 175.151 96.652 178.019C97.7184 179.657 95.2576 181.132 94.0268 182.033C91.955 183.216 89.8186 184.283 87.6283 185.229C87.6283 185.229 92.1402 185.475 92.4681 188.588C92.5506 189.817 92.5507 192.685 88.7765 192.193C90.2535 193.832 91.4017 194.98 90.4178 196.618C89.4332 198.257 85.7416 197.437 85.7416 197.437C85.7416 197.437 89.1052 199.732 87.6283 201.78C86.6437 203.091 85.4955 203.664 83.0347 202.682C83.7731 204.156 83.4444 205.304 82.8703 205.877C80.1633 208.908 71.2216 203.993 68.5965 202.026C66.4637 200.387 57.7681 191.21 55.5532 191.21L63.0183 174.823Z" fill="white"/>
<path d="M80.2459 207.598C75.8159 207.598 69.4171 203.665 68.1046 202.681C67.4483 202.19 66.2178 200.961 64.5771 199.486C62.0341 197.11 56.7019 192.03 55.4714 192.03C55.3346 192.03 55.2004 191.991 55.0845 191.919C54.9684 191.846 54.8751 191.743 54.8151 191.62C54.7402 191.499 54.6939 191.362 54.6797 191.22C54.6655 191.078 54.6838 190.935 54.7331 190.801L62.1982 174.413C62.2877 174.22 62.4491 174.069 62.6482 173.992C62.8473 173.916 63.0684 173.92 63.2646 174.004C63.3466 174.004 70.8937 177.199 75.4879 177.854C77.7844 178.183 81.5578 177.609 85.1675 177.035C90.9101 176.134 95.8317 175.397 97.2269 177.445C98.6212 179.494 96.0779 181.378 94.6835 182.279L94.3556 182.525C92.9884 183.364 91.5632 184.103 90.0899 184.737C91.4842 185.311 93.043 186.294 93.2066 188.343C93.3709 189.981 93.043 191.211 92.1402 191.948C91.6773 192.364 91.1104 192.647 90.4996 192.767C91.4024 193.996 91.9766 195.225 91.0738 196.782C90.7128 197.262 90.2406 197.647 89.6973 197.903C89.1548 198.161 88.557 198.282 87.957 198.257C88.3589 198.76 88.6395 199.349 88.7773 199.978C88.9007 200.725 88.7242 201.491 88.285 202.108C87.863 202.78 87.2386 203.3 86.5016 203.595C85.7639 203.889 84.9522 203.942 84.1829 203.747C84.2532 204.185 84.2238 204.635 84.0954 205.06C83.9676 205.486 83.7451 205.877 83.4452 206.204C83.0749 206.69 82.5861 207.073 82.0264 207.316C81.4666 207.56 80.8537 207.657 80.2459 207.598ZM56.7019 190.719C58.6707 191.62 61.788 194.488 65.8076 198.257C66.8641 199.337 67.9874 200.35 69.171 201.289C72.1243 203.501 80.1634 207.598 82.2962 205.222C82.4606 205.058 82.9529 204.32 82.2962 202.927C82.2366 202.778 82.2223 202.615 82.2546 202.458C82.2869 202.301 82.3644 202.157 82.4778 202.043C82.5912 201.93 82.7361 201.852 82.8933 201.82C83.0505 201.788 83.2141 201.803 83.3626 201.862C85.6598 202.763 86.3158 202.108 86.9724 201.289C87.1281 201.043 87.2135 200.76 87.2185 200.469C86.892 199.5 86.2203 198.683 85.3319 198.175C85.1869 198.061 85.0785 197.907 85.0204 197.733C84.9616 197.558 84.9558 197.37 85.0032 197.191C85.0843 197.026 85.2142 196.89 85.3764 196.802C85.5378 196.713 85.723 196.678 85.906 196.7C87.1367 196.946 89.1871 197.028 89.6794 196.209C90.2535 195.225 89.8437 194.569 88.3668 193.013L88.1206 192.685C88.0101 192.565 87.9419 192.411 87.9269 192.248C87.9125 192.086 87.9513 191.922 88.0388 191.784C88.107 191.631 88.2261 191.507 88.3754 191.432C88.5254 191.357 88.6962 191.337 88.8591 191.374C89.2351 191.481 89.6306 191.501 90.0145 191.43C90.3992 191.358 90.7616 191.199 91.0738 190.965C91.3235 190.644 91.4979 190.271 91.5833 189.874C91.6687 189.477 91.6622 189.065 91.5661 188.67C91.3199 186.294 87.5465 186.048 87.5465 186.048C87.3693 186.034 87.2006 185.962 87.0678 185.844C86.9344 185.726 86.8432 185.567 86.8081 185.393C86.775 185.209 86.8059 185.02 86.8956 184.855C86.9853 184.692 87.1281 184.563 87.3004 184.491C89.4425 183.586 91.5244 182.546 93.5353 181.378L93.9451 181.132C95.5856 179.985 96.4884 179.165 95.9961 178.51C95.1758 177.281 89.5976 178.183 85.578 178.756C81.8039 179.33 77.9487 179.903 75.4054 179.575C71.3859 179.002 65.5615 176.708 63.4286 175.888L56.7019 190.719Z" fill="black"/>
<path d="M88.7765 192.194C87.3067 192.146 85.847 191.926 84.4282 191.539L88.7765 192.194Z" fill="white"/>
<path d="M88.7764 193.013C87.2249 192.975 85.6834 192.754 84.1828 192.357C84.0802 192.319 83.9869 192.262 83.9065 192.188C83.8261 192.114 83.7615 192.026 83.7156 191.927C83.6237 191.727 83.6144 191.498 83.6905 191.292C83.7666 191.085 83.9223 190.917 84.1218 190.826C84.322 190.733 84.5502 190.725 84.7569 190.801C86.0996 191.137 87.4746 191.33 88.859 191.374C89.0764 191.374 89.2853 191.46 89.4388 191.614C89.5924 191.767 89.6792 191.976 89.6792 192.193C89.6484 192.413 89.5415 192.616 89.3764 192.766C89.2113 192.916 88.9996 193.003 88.7764 193.013Z" fill="black"/>
<path d="M85.7415 197.438C85.7415 197.438 83.3625 197.11 82.3779 196.865L85.7415 197.438Z" fill="white"/>
<path d="M85.7417 198.257H85.6599C85.5773 198.257 83.1983 197.93 82.2144 197.684C82.0422 197.602 81.9037 197.462 81.8233 197.289C81.7429 197.116 81.7257 196.921 81.7745 196.736C81.8233 196.551 81.9346 196.39 82.0896 196.278C82.2446 196.167 82.434 196.114 82.6242 196.127C83.527 196.373 85.8235 196.701 85.8235 196.701C86.0287 196.749 86.2124 196.863 86.3452 197.027C86.4787 197.189 86.5548 197.392 86.5619 197.602C86.5239 197.79 86.4206 197.959 86.2706 198.078C86.1206 198.198 85.9333 198.261 85.7417 198.257Z" fill="black"/>
<path d="M83.0347 202.68C81.9274 202.25 80.8574 201.729 79.8354 201.123L83.0347 202.68Z" fill="white"/>
<path d="M83.0347 203.499C82.9192 203.512 82.8029 203.483 82.7067 203.418C81.4968 202.985 80.3414 202.416 79.2613 201.722C79.1673 201.652 79.0891 201.561 79.0331 201.459C78.9764 201.355 78.9434 201.242 78.9348 201.124C78.9269 201.007 78.9434 200.89 78.9843 200.78C79.0259 200.669 79.0898 200.57 79.173 200.487C79.2563 200.404 79.356 200.34 79.4666 200.298C79.5764 200.257 79.694 200.241 79.811 200.249C79.9287 200.257 80.0428 200.29 80.1462 200.347C80.2488 200.403 80.3392 200.481 80.4095 200.575C81.3468 201.132 82.3357 201.598 83.3627 201.968C83.466 202.004 83.5607 202.061 83.6418 202.135C83.7222 202.208 83.7875 202.297 83.8334 202.396C83.8794 202.496 83.9052 202.603 83.9088 202.712C83.9124 202.821 83.8937 202.93 83.855 203.033C83.6404 203.274 83.3519 203.438 83.0347 203.499Z" fill="black"/>
<path d="M87.6283 185.228C86.1119 185.106 84.6049 184.887 83.1165 184.572L87.6283 185.228Z" fill="white"/>
<path d="M87.6282 186.047C86.0559 185.94 84.4928 185.721 82.952 185.392C82.7798 185.31 82.6413 185.17 82.5609 184.997C82.4813 184.824 82.4633 184.628 82.5121 184.444C82.5609 184.26 82.6722 184.098 82.8272 183.987C82.9829 183.876 83.1716 183.822 83.3625 183.835C84.8387 184.163 87.71 184.409 87.71 184.409C87.8227 184.406 87.934 184.429 88.0366 184.476C88.1385 184.522 88.2289 184.592 88.3 184.679C88.371 184.766 88.4212 184.868 88.4471 184.977C88.4729 185.087 88.4736 185.2 88.4485 185.31C88.4184 185.508 88.32 185.691 88.1701 185.825C88.0208 185.96 87.8292 186.038 87.6282 186.047Z" fill="black"/>
<path d="M134.223 133.444C135.208 130.494 141.934 128.364 145.544 126.561C149.154 124.758 150.466 127.216 150.22 128.937C149.891 130.494 147.184 131.314 144.642 133.608C142.098 135.902 143.493 140.818 140.54 143.931C137.587 147.045 129.055 145.898 129.055 145.898L123.149 131.477C123.149 131.477 129.629 128.937 132.09 124.431C134.552 119.924 137.259 116.319 141.196 114.434C144.559 112.878 151.04 111.895 153.419 112.55C155.142 113.042 156.7 115.991 150.794 117.221C144.888 118.449 143 118.859 141.442 120.825C139.884 122.792 139.227 127.299 139.555 129.265" fill="white"/>
<path d="M132.501 146.882C131.293 146.924 130.083 146.842 128.892 146.637C128.745 146.632 128.603 146.582 128.485 146.494C128.368 146.407 128.281 146.284 128.235 146.145L122.329 131.724C122.246 131.514 122.246 131.279 122.329 131.069C122.379 130.971 122.449 130.884 122.533 130.814C122.618 130.743 122.716 130.691 122.821 130.659C122.903 130.659 129.055 128.119 131.271 123.94C134.142 118.532 137.095 115.337 140.787 113.616C144.314 111.977 150.959 110.912 153.584 111.65C154.188 111.802 154.725 112.149 155.112 112.638C155.497 113.128 155.71 113.731 155.717 114.354C155.717 115.337 155.061 117.057 150.877 117.959C144.97 119.188 143.329 119.598 142.017 121.236C140.95 122.629 140.213 125.907 140.213 128.037C140.95 127.709 141.689 127.381 142.345 127.135C143.329 126.726 144.314 126.316 145.134 125.907C147.513 124.759 148.99 125.251 149.728 125.824C150.203 126.233 150.565 126.756 150.781 127.345C150.996 127.933 151.058 128.565 150.959 129.184C150.712 130.495 149.482 131.314 147.924 132.298C146.923 132.918 145.964 133.602 145.052 134.346C143.986 135.247 143.74 136.804 143.412 138.525C143.083 140.492 142.673 142.785 140.95 144.506C139.228 146.472 135.372 146.882 132.501 146.882ZM129.548 145.08C132.091 145.326 137.834 145.49 139.884 143.359C141.196 141.966 141.524 140 141.853 138.197C142.181 136.394 142.509 134.346 144.068 133.035C145.134 132.134 146.201 131.479 147.103 130.823C148.252 130.085 149.236 129.43 149.4 128.856C149.47 128.545 149.454 128.219 149.353 127.916C149.252 127.613 149.07 127.343 148.826 127.135C148.252 126.644 147.185 126.726 145.954 127.381C145.134 127.791 144.15 128.201 143.083 128.611C139.966 129.922 135.618 131.806 134.962 133.691C134.886 133.897 134.73 134.065 134.531 134.157C134.331 134.249 134.102 134.258 133.896 134.182C133.689 134.106 133.521 133.951 133.429 133.751C133.336 133.551 133.327 133.324 133.403 133.117C133.978 131.314 136.11 129.922 138.571 128.692C138.408 126.316 139.146 122.056 140.704 120.171C142.427 117.959 144.642 117.549 150.466 116.32C153.01 115.746 153.994 114.927 153.994 114.272C153.994 113.78 153.502 113.37 153.01 113.207C150.959 112.633 144.724 113.453 141.361 115.091C137.997 116.73 135.29 119.679 132.583 124.759C130.532 128.611 125.856 130.987 124.052 131.888L129.548 145.08Z" fill="black"/>
<path d="M9.36832 202.68C8.87616 202.598 8.46595 202.27 8.54798 201.778L11.009 176.788C11.0198 176.68 11.0516 176.576 11.1028 176.48C11.154 176.385 11.2235 176.301 11.3073 176.232C11.3911 176.164 11.4875 176.113 11.5912 176.082C11.6949 176.05 11.8037 176.04 11.9114 176.05C12.0191 176.061 12.1237 176.093 12.219 176.144C12.3145 176.195 12.3989 176.265 12.4674 176.348C12.5359 176.432 12.5873 176.528 12.6186 176.632C12.6499 176.736 12.6605 176.845 12.6497 176.952L10.1887 201.942C10.1585 202.141 10.0602 202.323 9.91065 202.458C9.76102 202.593 9.5694 202.671 9.36832 202.68Z" fill="black"/>
<path d="M58.7528 345.932C58.5352 345.932 58.3265 345.846 58.1727 345.692C58.0188 345.538 57.9324 345.33 57.9324 345.113L55.4714 262.029C55.4642 261.92 55.4804 261.81 55.5191 261.707C55.5577 261.604 55.6179 261.511 55.6956 261.434C55.7733 261.356 55.8666 261.296 55.9695 261.257C56.0722 261.219 56.1822 261.202 56.2918 261.209C56.5093 261.209 56.718 261.296 56.8718 261.45C57.0256 261.604 57.1121 261.812 57.1121 262.029L59.5731 345.113C59.5731 345.33 59.4866 345.538 59.3328 345.692C59.179 345.846 58.9703 345.932 58.7528 345.932Z" fill="black"/>
<path d="M311.154 366.201H0.820335C0.60277 366.201 0.394113 366.115 0.24027 365.961C0.0864277 365.808 0 365.599 0 365.382C0 365.165 0.0864277 364.956 0.24027 364.803C0.394113 364.649 0.60277 364.563 0.820335 364.563H311.236C311.345 364.556 311.455 364.572 311.558 364.61C311.661 364.649 311.754 364.709 311.832 364.787C311.909 364.865 311.97 364.958 312.009 365.06C312.047 365.163 312.063 365.273 312.056 365.382C312.057 365.497 312.033 365.611 311.987 365.716C311.94 365.821 311.873 365.916 311.787 365.993C311.703 366.07 311.602 366.128 311.493 366.164C311.383 366.201 311.268 366.213 311.154 366.201Z" fill="black"/>
<path d="M159.81 178.435C167.258 120.588 186.274 81.603 186.274 81.603L210.449 81.7091L247.659 81.9227C247.659 81.9227 275.756 141.605 275.305 222.247C275.124 253.235 271.744 276.366 267.552 293.171C260.334 322.406 250.638 332.935 250.638 332.935L191.171 332.591H186.815L180.105 332.525C180.105 332.525 170.572 321.882 163.756 292.671C162.697 288.23 161.688 283.273 160.786 277.866L159.81 178.435Z" fill="white"/>
<path d="M217.16 40.317L186.274 81.6044L216.906 81.7607L247.586 81.9815L217.16 40.317Z" fill="url(#paint0_linear_34_366)"/>
<path d="M245.552 363.417L184.838 363.032L180.105 332.535L250.637 332.936L245.552 363.417Z" fill="url(#paint1_linear_34_366)"/>
<path d="M163.756 292.672L133.026 317.392L132.854 340.735L180.105 332.542C180.105 332.542 170.573 321.882 163.756 292.672Z" fill="url(#paint2_linear_34_366)"/>
<path d="M267.537 293.296C260.334 322.408 250.637 332.937 250.637 332.937L297.766 341.655L297.93 318.311L267.537 293.296Z" fill="url(#paint3_linear_34_366)"/>
<path d="M251.236 333.641C251.056 333.781 250.833 333.853 250.605 333.845C250.378 333.838 250.16 333.751 249.99 333.6C249.895 333.518 249.819 333.417 249.768 333.303C249.716 333.189 249.69 333.065 249.69 332.941C249.69 332.815 249.716 332.692 249.768 332.578C249.819 332.465 249.895 332.363 249.99 332.28C250.129 332.166 259.579 321.481 266.667 292.951C271.589 272.983 274.181 249.189 274.336 222.223C274.812 142.745 247.061 82.9319 246.782 82.2926C246.706 82.0797 246.711 81.846 246.798 81.6367C246.885 81.4281 247.046 81.2589 247.252 81.1629C247.456 81.0668 247.69 81.0503 247.906 81.1163C248.123 81.183 248.307 81.3277 248.422 81.522C248.693 82.137 276.617 142.327 276.166 222.256C275.994 249.353 273.401 273.278 268.381 293.434C261.178 322.538 251.671 333.149 251.301 333.584L251.236 333.641Z" fill="black"/>
<path d="M180.696 333.24C180.603 333.318 180.495 333.378 180.379 333.415C180.264 333.452 180.141 333.465 180.02 333.455C179.898 333.445 179.78 333.409 179.672 333.353C179.565 333.296 179.469 333.219 179.392 333.125C179.039 332.698 169.646 321.932 162.813 292.829C161.722 288.06 160.713 283.095 159.917 277.957C159.891 277.718 159.956 277.478 160.1 277.285C160.243 277.091 160.454 276.959 160.69 276.914C160.927 276.869 161.171 276.913 161.376 277.04C161.58 277.166 161.73 277.365 161.795 277.597C162.665 282.677 163.6 287.699 164.699 292.345C171.377 320.974 180.77 331.74 180.884 331.888C181.019 332.1 181.073 332.353 181.039 332.602C181.004 332.851 180.883 333.08 180.696 333.247V333.24Z" fill="black"/>
<path d="M160.401 179.15C160.31 179.232 160.203 179.293 160.087 179.328C159.971 179.364 159.848 179.373 159.727 179.355C159.601 179.352 159.478 179.32 159.366 179.26C159.254 179.201 159.158 179.118 159.084 179.015C159.01 178.913 158.961 178.795 158.941 178.671C158.92 178.546 158.928 178.419 158.965 178.298C166.348 120.942 185.289 81.6131 185.528 81.1457C185.636 80.9285 185.827 80.7637 186.057 80.687C186.288 80.6096 186.54 80.6275 186.758 80.7364C186.975 80.8454 187.141 81.0353 187.218 81.2661C187.294 81.4962 187.276 81.7478 187.168 81.9657C187.004 82.3506 168.16 121.549 160.851 178.552C160.733 178.773 160.581 178.975 160.401 179.15Z" fill="black"/>
<path d="M246.487 192.186C246.334 192.299 246.148 192.36 245.958 192.36C245.767 192.36 245.581 192.299 245.428 192.186C245.216 192.059 245.061 191.854 244.997 191.616C244.932 191.377 244.964 191.123 245.084 190.907C247.959 185.891 249.468 180.209 249.461 174.428C249.453 168.648 247.93 162.97 245.042 157.961C242.155 152.952 238.003 148.785 233.002 145.877C228 142.968 222.323 141.42 216.536 141.385C213.613 141.334 210.696 141.696 207.874 142.458C207.64 142.524 207.391 142.496 207.18 142.378C206.968 142.261 206.812 142.063 206.745 141.831C206.679 141.599 206.707 141.35 206.825 141.138C206.943 140.927 207.14 140.771 207.373 140.704C210.373 139.912 213.466 139.52 216.569 139.541C221.153 139.548 225.691 140.467 229.915 142.243C234.141 144.02 237.97 146.619 241.179 149.889C244.419 153.154 246.984 157.023 248.727 161.277C250.47 165.531 251.356 170.087 251.335 174.683C251.343 180.727 249.746 186.664 246.708 191.89C246.66 192.006 246.584 192.107 246.487 192.186Z" fill="black"/>
<path d="M238.743 201.436C235.073 204.506 230.81 206.788 226.22 208.141C221.629 209.494 216.808 209.889 212.058 209.3C207.308 208.713 202.73 207.154 198.609 204.723C194.488 202.292 190.912 199.039 188.103 195.168C188.024 195.068 187.966 194.952 187.933 194.828C187.901 194.704 187.894 194.575 187.913 194.448C187.932 194.321 187.978 194.2 188.047 194.091C188.115 193.983 188.205 193.89 188.311 193.818C188.418 193.745 188.537 193.696 188.663 193.672C188.789 193.648 188.919 193.651 189.044 193.679C189.169 193.707 189.287 193.761 189.391 193.836C189.494 193.912 189.581 194.009 189.645 194.119C192.705 198.29 196.696 201.691 201.301 204.053C205.906 206.416 210.999 207.674 216.175 207.729C220.591 207.77 224.97 206.921 229.049 205.231C233.128 203.542 236.825 201.047 239.916 197.897C240.002 197.81 240.104 197.742 240.217 197.695C240.329 197.649 240.45 197.624 240.572 197.624C240.694 197.624 240.814 197.649 240.927 197.695C241.04 197.742 241.142 197.81 241.228 197.897C241.388 198.079 241.477 198.313 241.477 198.556C241.477 198.799 241.388 199.034 241.228 199.216C240.392 199.937 239.596 200.723 238.743 201.436Z" fill="black"/>
<path d="M217.758 41.0287C217.603 41.1576 217.41 41.2324 217.209 41.2418C217.087 41.243 216.966 41.2195 216.854 41.1725C216.742 41.1256 216.64 41.0563 216.556 40.9689C216.472 40.8814 216.406 40.7776 216.363 40.664C216.32 40.5503 216.301 40.4291 216.306 40.3077L216.52 0.838882C216.541 0.609404 216.648 0.396257 216.818 0.241118C216.989 0.0859776 217.212 0 217.443 0C217.673 0 217.896 0.0859776 218.066 0.241118C218.237 0.396257 218.343 0.609404 218.366 0.838882L218.144 40.3077C218.133 40.448 218.094 40.5845 218.027 40.7086C217.961 40.8328 217.869 40.9418 217.758 41.0287Z" fill="black"/>
<path d="M214.632 205.532C232.076 205.532 246.215 191.408 246.215 173.987C246.215 156.564 232.076 142.441 214.632 142.441C197.19 142.441 183.05 156.564 183.05 173.987C183.05 191.408 197.19 205.532 214.632 205.532Z" fill="url(#paint4_linear_34_366)"/>
<defs>
<linearGradient id="paint0_linear_34_366" x1="197" y1="44" x2="227.5" y2="88.5" gradientUnits="userSpaceOnUse">
<stop stop-color="#2A2552"/>
<stop offset="0.479167" stop-color="#32797F"/>
<stop offset="1" stop-color="#3AD4AF"/>
</linearGradient>
<linearGradient id="paint1_linear_34_366" x1="185" y1="333" x2="241" y2="363" gradientUnits="userSpaceOnUse">
<stop stop-color="#2A2552"/>
<stop offset="0.479167" stop-color="#32797F"/>
<stop offset="1" stop-color="#3AD4AF"/>
</linearGradient>
<linearGradient id="paint2_linear_34_366" x1="141.5" y1="310" x2="173.5" y2="333" gradientUnits="userSpaceOnUse">
<stop stop-color="#2A2552"/>
<stop offset="0.479167" stop-color="#32797F"/>
<stop offset="1" stop-color="#3AD4AF"/>
</linearGradient>
<linearGradient id="paint3_linear_34_366" x1="231.5" y1="293" x2="292" y2="342" gradientUnits="userSpaceOnUse">
<stop stop-color="#2A2552"/>
<stop offset="0.479167" stop-color="#32797F"/>
<stop offset="1" stop-color="#3AD4AF"/>
</linearGradient>
<linearGradient id="paint4_linear_34_366" x1="192.5" y1="169.5" x2="214.632" y2="205.532" gradientUnits="userSpaceOnUse">
<stop stop-color="#2A2552"/>
<stop offset="1" stop-color="#3AD4AF"/>
</linearGradient>
</defs>
</svg>
