<svg xmlns="http://www.w3.org/2000/svg" data-name="Layer 1" viewBox="0 0 512 512"><defs><clipPath id="a"><rect width="429.12" height="285.18" x="41.44" y="172.348" fill="none"/></clipPath></defs><rect width="429.12" height="285.18" x="41.44" y="172.348" fill="#ffec7d"/><g clip-path="url(#a)"><line x1="59.62" x2="183.46" y1="120.965" y2="508.912" fill="none" stroke="#fff" stroke-miterlimit="10" stroke-width="3"/><line x1="41.44" x2="197.457" y1="392.723" y2="123.9" fill="none" stroke="#fff" stroke-miterlimit="10" stroke-width="3"/><line x1="294.012" x2="150.7" y1="120.965" y2="505.358" fill="none" stroke="#fff" stroke-miterlimit="10" stroke-width="3"/><line x1="162.58" x2="468.22" y1="183.994" y2="300.253" fill="none" stroke="#fff" stroke-miterlimit="10" stroke-width="3"/><line x1="422.5" x2="470.56" y1="123.9" y2="498.473" fill="none" stroke="#fff" stroke-miterlimit="10" stroke-width="3"/><path fill="none" stroke="#fff" stroke-miterlimit="10" stroke-width="3" d="M361.21977,124.67853,328.9,508.91236"/><line x1="41.44" x2="468.22" y1="508.912" y2="350.092" fill="none" stroke="#fff" stroke-miterlimit="10" stroke-width="3"/></g><path fill="#350313" d="M194.41777,173.9271s6.4044-25.20388,9.71983-37.43248c2.771-10.22012,12.19382-24.90233,33.39684-27.139a306.66545,306.66545,0,0,0-8.0288,119.54025,302.669,302.669,0,0,0,17.43325,68.56182c-18.97435-4.05453-49.63421,17.88411-59.72508,15.54453-22.53926-5.22545-34.4185-32.78239-35.37913-39.64487-2.28653-16.33447-.96782-25.27411,22.68673-64.74079C174.52141,208.61656,190.51141,188.91375,194.41777,173.9271Z"/><path fill="#38101b" d="M194.41777,173.92709s6.4045-25.20372,9.71988-37.43241c2.77084-10.22016,12.19382-24.90234,33.39686-27.139,0,0,24.75935-26.27809,60.61291,4.6387s17.2394,55.25046,19.56779,77.29119S336.1118,299.6513,321.156,329.13714l-89.197,8.25057s-80.43476-39.63747-80.79668-68.56766c-.17337-13.85756-.29542-20.73688,23.359-60.20359C174.52134,208.61646,190.51147,188.91379,194.41777,173.92709Z"/><path fill="#ed9a72" d="M440.51025,457.52848H74.0498c14.17041-60.23,25.68995-93.51,25.68995-93.51,4.89013-29.35,27.5205-38.84,27.5205-38.84l25.71973-9.56q7.17041-2.235,14.33984-4.46l8.9502-2.78,5.21-1.63,18.35986-5.71a27.57937,27.57937,0,0,0,8.48-4.35,27.9073,27.9073,0,0,0,10.4502-15.94h.00977c.12011-.53.23046-1.07.32031-1.61005.02-.16.0498-.31994.08008-.49.02978-.16.0498-.32995.06982-.49a1.91835,1.91835,0,0,0,.02979-.24c.06005-.39.11035-.78.14013-1.18.04-.49.06983-.99.09033-1.49.00977-.32.01954-.64.01954-.96v-37.5h70.10009v37.5a27.91882,27.91882,0,0,0,7.88037,19.45,25.3001,25.3001,0,0,0,2.63965,2.42,6.01862,6.01862,0,0,0,.49024.39,27.9711,27.9711,0,0,0,8.67968,4.49l17.36036,5.4.04.01,19.55958,6.09,14.32031,4.46,8.92969,2.78,17.36035,5.4c8,3.7,14.10986,9.92,18.62988,16.3a79.58068,79.58068,0,0,1,10.95019,22.54h.10987S426.87988,397.2985,440.51025,457.52848Z"/><path fill="#b86a55" d="M246.12209 276.67245c25.00088-4.35788 43.50554-33.3231 43.50554-33.3231s-24.79416-2.04143-40.30059-6.55921H219.52846v37.49431a27.99373 27.99373 0 01-.75519 6.42607l-.0007.0392S221.1209 281.03033 246.12209 276.67245zM255.76369 360.929c.37256 3.59445.58936 7.16781.76416 10.73791l.45947 10.69138c.03614 1.78125.12989 3.55822.19678 5.33654l.21826 5.33338c.17676 3.55636.355 7.10306.645 10.70514a50.88711 50.88711 0 01-2.5415-10.522 99.93094 99.93094 0 01-.957-10.762c-.11719-3.59643-.11377-7.19266.08105-10.78326A85.83055 85.83055 0 01255.76369 360.929z"/><path fill="#e8e9ea" d="M376.94971,457.52848H135.73l8.31006-62.39.54-4.81v-.01995l8.36963-74.38.03027-.31q7.17041-2.235,14.33984-4.46a93.40481,93.40481,0,0,0,44.11036,57.95,91.522,91.522,0,0,0,43.08984,12.11c.3999.01.7998.02,1.20019.01,41.83985.57,79.41993-27.72,90.55958-68.69l14.32031,4.46,8.79,78.14h.00976Z"/><path fill="none" stroke="#db3a3a" stroke-dasharray=".661 5.295" stroke-linecap="round" stroke-miterlimit="10" stroke-width="3.253" d="M214.51153,292.03239s36.73246,52.15044,84.6,0"/><path fill="#e9966e" d="M310.91259,184.0987a9.485,9.485,0,0,0-3.98867-.76518c2.274-32.9727-11.76309-61.09972-34.77443-66.06936-23.07546-4.98349-47.54353,14.96559-59.03983,46.08637a9.661,9.661,0,0,0-4.76186-1.40224c-7.4314-.12229-13.60286,8.72586-13.78436,19.76259-.17523,10.65065,5.29671,19.42223,12.35774,20.13458,1.354,26.523,14.5531,47.86629,30.76467,56.04412a15.928,15.928,0,0,0,3.86086,1.077,12.35426,12.35426,0,0,0,3.14364.525c20.32517-.99188,40.3971-14.56845,52.16405-38.16326,6.53734,1.33169,14.45222-4.2956,18.45849-13.5398C319.70222,197.66056,317.73214,187.05412,310.91259,184.0987Z"/><path fill="#b86a55" d="M263.31219,208.732a18.52492,18.52492,0,0,1-12.2035,2.908c.12555.04984.25345.08882.38134.1278l-.78144-.16877c.13258.01728.26517.03455.4001.041a18.46833,18.46833,0,0,1-9.80752-7.50255Z"/><path fill="#38101b" d="M234.71315 182.84929c4.2868 0 4.2939-6.66219 0-6.66219-4.28681 0-4.29391 6.66219 0 6.66219zM277.84155 191.33082c4.2868 0 4.2939-6.66219 0-6.66219-4.2868 0-4.2939 6.66219 0 6.66219zM250.85207 166.64575a33.27537 33.27537 0 01-7.46094-.38085c-1.209-.18077-2.40234-.4138-3.58691-.67865l-1.72754-.409q-.78516-.195-1.58252-.32648a30.48981 30.48981 0 00-6.51172-.4257c-.55908.01771-1.12012.06106-1.6914.10551-.59864.05936-1.22413.11249-1.84083.14983a25.76826 25.76826 0 01-3.79248-.0342 25.74319 25.74319 0 013.1836-2.06185c.54638-.29918 1.08252-.58863 1.64844-.86078a14.83655 14.83655 0 011.84228-.72968 16.53283 16.53283 0 017.9375-.515c.65967.13243 1.3169.27584 1.95947.47308.65967.21022 1.17383.38583 1.76123.60249 1.13916.41857 2.269.869 3.3833 1.3716A33.27785 33.27785 0 01250.85207 166.64575zM268.02541 170.90716a33.278 33.278 0 017.43652-.71454c1.22217.002 2.437.058 3.64746.14673.62452.04512 1.165.09732 1.85254.178.667.08553 1.3252.22631 1.98047.37774A16.53292 16.53292 0 01289.96 174.64a14.76249 14.76249 0 011.377 1.42494c.40284.48128.772.96619 1.14649 1.46431a25.78262 25.78262 0 012.04883 3.19188 25.7714 25.7714 0 01-3.46875-1.53406c-.54639-.28839-1.09375-.59485-1.61475-.89612-.502-.2761-.99512-.54721-1.49756-.79415a30.485 30.485 0 00-6.10693-2.2995q-.78-.20807-1.57617-.35569l-1.74219-.34037c-1.188-.24749-2.37158-.52779-3.54736-.86205A33.27447 33.27447 0 01268.02541 170.90716z"/><ellipse cx="307.882" cy="202.954" fill="#b86a55" rx="11.631" ry="4.669" transform="rotate(-70.531 307.882 202.954)"/><ellipse cx="204.145" cy="180.551" fill="#b86a55" rx="11.631" ry="4.669" transform="rotate(-85.095 204.145 180.55)"/><path fill="#b86a55" d="M213.10988 163.35053c-.35937 3.26725-.852 6.486-1.38232 9.69362L210.083 182.6378q-.86573 4.781-1.67969 9.5661c-.52588 3.1958-1.04834 6.38333-1.48193 9.64157a46.23924 46.23924 0 01-.23926-9.84287 90.85377 90.85377 0 011.21533-9.752c.58643-3.22 1.28027-6.41663 2.14258-9.57158A77.96686 77.96686 0 01213.10988 163.35053zM307.13625 183.657a77.93141 77.93141 0 01-1.05371 9.76377c-.51611 3.22973-1.20361 6.42773-1.998 9.60278a90.96663 90.96663 0 01-2.91748 9.38452 46.28916 46.28916 0 01-4.27978 8.86688c.94922-3.14685 1.78906-6.2659 2.6289-9.39386q1.23854-4.69326 2.418-9.4067l2.46094-9.4173C305.23586 189.91654 306.11525 186.78123 307.13625 183.657z"/><path fill="#b86a55" d="M312.93608,209.72579c1.631-14.6807-6.766-25.85116-11.01643-30.47653-.23774-17.05088-1.383-32.4396-4.22305-41.852a45.47533,45.47533,0,0,0-12.71115-14.38242c-7.681-3.91052-17.44258-5.61626-27.00983-5.78825-9.15455,1.83379-18.06372,7.15177-25.83268,15.1058a28.24993,28.24993,0,0,1,5.917-2.20769c22.90234-5.68636,38.39429,9.67351,44.69279,20.28483,7.79625,13.13406,7.50328,21.6948,3.84046,52.28006a167.11368,167.11368,0,0,1-11.81246,44.90567c5.98467,3.685,16.78951-15.67159,22.07378-26.26691,5.22636,1.06465,11.32805-2.327,15.61409-8.45042C312.65048,211.86754,312.81378,210.82758,312.93608,209.72579Z"/><path fill="#38101b" d="M250.7985,292.51905s8.34941-2.11612,18.46481-5.78442l.00017-.0008.00587-.0015c1.96759-.71353,4.00117-1.486,6.054-2.31315,9.7325-4.6332,28.01608-17.46836,30.5105-49.13879.077-2.16488.16675-4.3922.28212-6.68442,0,0,5.37892-22.04019,10.83389-37.74072a44.58978,44.58978,0,0,0-9.51688-16.09512c-.31982-22.93369-2.2783-42.86939-7.7991-49.28558-17.17343-19.95847-67.93272-13.03537-72.6397-2.6013-4.70718,10.43375-16.68953,29.93294-14.2791,41.49505,0,0,7.95576-33.04606,30.85817-38.73269,22.90235-5.68636,38.39429,9.67351,44.69279,20.28483,7.79626,13.13406,7.50329,21.6948,3.84046,52.28006-4.19275,35.01023-13.27916,44.83962-17.75548,50.41606C269.87527,254.19311,250.7985,292.51905,250.7985,292.51905Z"/><path fill="#350313" d="M312.93608,209.72579c1.631-14.6807-6.766-25.85116-11.01643-30.47653-.23774-17.05088-1.383-32.4396-4.22305-41.852a45.47533,45.47533,0,0,0-12.71115-14.38242c-7.681-3.91052-17.44258-5.61626-27.00983-5.78825-7.74227,1.55085-15.30592,5.6019-22.15594,11.62389a28.68532,28.68532,0,0,1,7.7536-3.21491c22.90235-5.68636,38.39429,9.67351,44.69279,20.28483,7.79626,13.13406,7.50329,21.6948,3.84046,52.28006-2.49129,20.80345-6.11691,34.50816-9.58858,43.37527a78.27729,78.27729,0,0,0,14.33655-20.24738c5.22636,1.06465,11.32805-2.327,15.61409-8.45042C312.65048,211.86754,312.81378,210.82758,312.93608,209.72579Z"/><path fill="#38101b" d="M299.63908,146.25022l-6.03327,38.65461s-3.90031,41.05172-11.08786,56.67094,19.24143-3.24121,19.24143-3.24121l14.66191-33.53594Z"/><path fill="#350313" d="M280.34978,306.0716l41.35852,23.37782c13.79225-30.78579-1.70071-116.46447-3.993-138.16374-.07535-.71183-.12775-1.42591-.16182-2.14269-5.65465,15.75447-11.43747,39.453-11.43747,39.453-.35693,49.32739-36.85252,58.13786-36.85252,58.13786-.34568.92514-.6258,1.81258-.876,2.68345A24.40844,24.40844,0,0,0,280.34978,306.0716Z"/><path fill="#fdffff" d="M229.10452,218.96246s33.428,5.02082,39.289,9.07258c0,0-16.87733,6.61874-20.15,5.21785S229.10452,218.96246,229.10452,218.96246Z"/><path fill="#d7645d" d="M229.10446,218.96232s6.25793,16.00013,18.38313,17.45276,20.906-8.38,20.906-8.38a44.43436,44.43436,0,0,1-39.28917-9.07272Z"/><path fill="#a75844" d="M229.10452,218.96246s14.4925-3.41561,39.289,9.07258C268.39348,228.035,250.93168,224.3123,229.10452,218.96246Z"/><path fill="#f37041" d="M210.68994,457.52848H135.23c2.99023-23.2,6.4502-48.85,9.3501-67.2v-.01995c4.06982-25.77,8.00976-70.27,8.36963-74.38l.03027-.31a91.499,91.499,0,0,1,19.2002-10.15c1.71972-.7,3.43994-1.33,5.13964-1.9a141.80523,141.80523,0,0,1,31-6.88s.16993,3.76.4502,9.99c.21973,4.85.5,11.21.81006,18.47.56982,12.96,1.25,28.78,1.8501,43.96.83984,20.81,1.5498,40.44,1.67968,49.91C213.23,427.94846,212.1499,442.47849,210.68994,457.52848Z"/></svg>