<svg xmlns="http://www.w3.org/2000/svg" data-name="Layer 1" viewBox="0 0 512 512"><defs><clipPath id="a"><rect width="429.12" height="285.185" x="41.44" y="172.343" fill="none"/></clipPath><clipPath id="b"><rect width="429.12" height="387.948" x="41.44" y="120.963" fill="none"/></clipPath><clipPath id="c"><rect width="429.12" height="285.185" x="41.44" y="-391.522" fill="none"/></clipPath></defs><rect width="429.12" height="285.185" x="41.44" y="172.343" fill="#ffec7d"/><g clip-path="url(#a)"><g clip-path="url(#b)"><path fill="#e5d277" d="M174.031,178.176c5.79107,0,5.80066-9,0-9-5.79107,0-5.80066,9,0,9Z"/><path fill="#fff" d="M174.03109 167.676a9.48889 9.48889 0 01-1.56726-3.27838 12.70789 12.70789 0 01-.4325-3.2784 12.47633 12.47633 0 01.42713-3.2784 9.38911 9.38911 0 011.57263-3.27838 9.39118 9.39118 0 011.57251 3.27838 12.47632 12.47632 0 01.42712 3.2784 12.7083 12.7083 0 01-.43249 3.2784A9.49084 9.49084 0 01174.03109 167.676zM174.03109 192.78956a9.489 9.489 0 01-1.56726-3.27841 12.70745 12.70745 0 01-.4325-3.27838 12.47608 12.47608 0 01.42713-3.27838 9.38882 9.38882 0 011.57263-3.27839 9.39089 9.39089 0 011.57251 3.27839 12.47606 12.47606 0 01.42712 3.27838 12.70787 12.70787 0 01-.43249 3.27838A9.491 9.491 0 01174.03109 192.78956zM180.03109 173.676a9.49043 9.49043 0 013.27832-1.5672 12.705 12.705 0 013.27844-.4325 12.47559 12.47559 0 013.27832.4271 9.38915 9.38915 0 013.27844 1.5726 9.389 9.389 0 01-3.27844 1.5726 12.47516 12.47516 0 01-3.27832.42709 12.70459 12.70459 0 01-3.27844-.43249A9.49043 9.49043 0 01180.03109 173.676zM154.91744 173.676a9.492 9.492 0 013.27844-1.5672 12.70419 12.70419 0 013.27832-.4325 12.476 12.476 0 013.27845.4271 9.3913 9.3913 0 013.27844 1.5726 9.39113 9.39113 0 01-3.27844 1.5726 12.47553 12.47553 0 01-3.27845.42709 12.70374 12.70374 0 01-3.27832-.43249A9.492 9.492 0 01154.91744 173.676zM178.27364 169.43334a9.49069 9.49069 0 011.21009-3.42634 12.70118 12.70118 0 012.01232-2.624 12.477 12.477 0 012.62012-2.01618 9.39056 9.39056 0 013.43018-1.20616 9.38873 9.38873 0 01-1.20618 3.43016 12.4775 12.4775 0 01-2.01611 2.62018 12.70631 12.70631 0 01-2.624 2.01234A9.49076 9.49076 0 01178.27364 169.43334zM160.51571 187.19132a9.49311 9.49311 0 011.21-3.42636 12.70618 12.70618 0 012.01233-2.624 12.47756 12.47756 0 012.62024-2.01617 9.39051 9.39051 0 013.43017-1.20617 9.391 9.391 0 01-1.20617 3.43017A12.47313 12.47313 0 01166.566 183.969a12.70229 12.70229 0 01-2.6239 2.01236A9.49076 9.49076 0 01160.51571 187.19132zM178.27364 177.91863a9.49077 9.49077 0 013.42639 1.21 12.70523 12.70523 0 012.624 2.01233 12.477 12.477 0 012.01611 2.62018 9.38865 9.38865 0 011.20618 3.43017 9.39074 9.39074 0 01-3.43018-1.20617 12.47637 12.47637 0 01-2.62012-2.01618 12.70091 12.70091 0 01-2.01232-2.624A9.49047 9.49047 0 01178.27364 177.91863zM160.51571 160.16067a9.49076 9.49076 0 013.42639 1.21 12.70225 12.70225 0 012.6239 2.01235 12.47338 12.47338 0 012.01624 2.62017 9.39092 9.39092 0 011.20617 3.43016 9.39032 9.39032 0 01-3.43017-1.20616A12.47723 12.47723 0 01163.738 166.211a12.70618 12.70618 0 01-2.01233-2.624A9.49292 9.49292 0 01160.51571 160.16067z"/><path fill="#e5d277" d="M75.391,276.80889c5.79107,0,5.80066-9,0-9-5.79107,0-5.80066,9,0,9Z"/><path fill="#fff" d="M75.39107 266.30888a9.48908 9.48908 0 01-1.56726-3.27838 12.7081 12.7081 0 01-.43249-3.27838 12.476 12.476 0 01.42712-3.27839 9.38958 9.38958 0 011.57263-3.27841 9.39367 9.39367 0 011.57264 3.27841 12.47627 12.47627 0 01.427 3.27839 12.70248 12.70248 0 01-.4325 3.27838A9.49049 9.49049 0 0175.39107 266.30888zM75.39107 291.42246a9.48929 9.48929 0 01-1.56726-3.27841 12.708 12.708 0 01-.43249-3.27838 12.476 12.476 0 01.42712-3.27838 9.3895 9.3895 0 011.57263-3.27841 9.39359 9.39359 0 011.57264 3.27841 12.4762 12.4762 0 01.427 3.27838 12.70236 12.70236 0 01-.4325 3.27838A9.4907 9.4907 0 0175.39107 291.42246zM81.39107 272.30888a9.49023 9.49023 0 013.27832-1.56717 12.70429 12.70429 0 013.27845-.43253 12.4757 12.4757 0 013.27832.4271 9.38924 9.38924 0 013.27844 1.5726 9.38934 9.38934 0 01-3.27844 1.57263 12.47439 12.47439 0 01-3.27832.42706 12.70423 12.70423 0 01-3.27845-.43249A9.49033 9.49033 0 0181.39107 272.30888zM56.27743 272.30888a9.49166 9.49166 0 013.27844-1.56717 12.70354 12.70354 0 013.27844-.43253 12.47565 12.47565 0 013.27832.4271 9.39015 9.39015 0 013.27844 1.5726 9.39025 9.39025 0 01-3.27844 1.57263 12.47433 12.47433 0 01-3.27832.42706 12.70348 12.70348 0 01-3.27844-.43249A9.49176 9.49176 0 0156.27743 272.30888zM79.63363 268.06626a9.49045 9.49045 0 011.21008-3.42636 12.70156 12.70156 0 012.01233-2.624 12.47573 12.47573 0 012.62012-2.01617 9.39052 9.39052 0 013.43017-1.20618 9.38865 9.38865 0 01-1.20617 3.43017 12.4772 12.4772 0 01-2.01612 2.62018 12.70613 12.70613 0 01-2.624 2.01233A9.49134 9.49134 0 0179.63363 268.06626zM61.87569 285.82423a9.493 9.493 0 011.21-3.42636 12.70653 12.70653 0 012.01246-2.624 12.47634 12.47634 0 012.62011-2.01617 9.39093 9.39093 0 013.43018-1.20618 9.3887 9.3887 0 01-1.20618 3.43018 12.47724 12.47724 0 01-2.01611 2.62018 12.70523 12.70523 0 01-2.624 2.01233A9.4909 9.4909 0 0161.87569 285.82423zM79.63363 276.55152a9.491 9.491 0 013.42639 1.21 12.7066 12.7066 0 012.624 2.01236 12.477 12.477 0 012.01612 2.62018 9.3887 9.3887 0 011.20617 3.43018 9.3907 9.3907 0 01-3.43017-1.20618 12.4774 12.4774 0 01-2.62012-2.01617 12.70216 12.70216 0 01-2.01233-2.624A9.49086 9.49086 0 0179.63363 276.55152zM61.87569 258.79356a9.49069 9.49069 0 013.42639 1.21 12.7064 12.7064 0 012.624 2.01236 12.477 12.477 0 012.01611 2.62018 9.38865 9.38865 0 011.20618 3.43017 9.39074 9.39074 0 01-3.43018-1.20617 12.477 12.477 0 01-2.62011-2.01618 12.70673 12.70673 0 01-2.01246-2.624A9.49323 9.49323 0 0161.87569 258.79356z"/><path fill="#e5d277" d="M128.21748,385.55117c5.79107,0,5.80066-9,0-9-5.79107,0-5.80066,9,0,9Z"/><path fill="#fff" d="M128.21749 375.05119a9.49362 9.49362 0 01-1.56726-3.27841 12.7077 12.7077 0 01-.4325-3.27839 12.47644 12.47644 0 01.42713-3.27838 9.38923 9.38923 0 011.57263-3.27841 9.39135 9.39135 0 011.57263 3.27841 12.47584 12.47584 0 01.427 3.27838 12.69685 12.69685 0 01-.43249 3.27839A9.49105 9.49105 0 01128.21749 375.05119zM128.21749 400.16474a9.49345 9.49345 0 01-1.56726-3.27841 12.70745 12.70745 0 01-.4325-3.27838 12.47655 12.47655 0 01.42713-3.27838 9.38878 9.38878 0 011.57263-3.27838 9.39089 9.39089 0 011.57263 3.27838 12.47594 12.47594 0 01.427 3.27838 12.6966 12.6966 0 01-.43249 3.27838A9.49088 9.49088 0 01128.21749 400.16474zM134.21749 381.05119a9.48953 9.48953 0 013.27832-1.5672 12.70491 12.70491 0 013.27844-.4325 12.476 12.476 0 013.27845.42707 9.38992 9.38992 0 013.27832 1.57263 9.39 9.39 0 01-3.27832 1.5726 12.47724 12.47724 0 01-3.27845.42709 12.70667 12.70667 0 01-3.27844-.43252A9.49033 9.49033 0 01134.21749 381.05119zM109.104 381.05119a9.48957 9.48957 0 013.27833-1.5672 12.70411 12.70411 0 013.27844-.4325 12.4744 12.4744 0 013.27832.42707 9.38934 9.38934 0 013.27844 1.57263 9.38941 9.38941 0 01-3.27844 1.5726 12.47568 12.47568 0 01-3.27832.42709 12.70588 12.70588 0 01-3.27844-.43252A9.49037 9.49037 0 01109.104 381.05119zM132.46017 376.80854a9.48815 9.48815 0 011.21-3.42636 12.70618 12.70618 0 012.01233-2.624 12.47351 12.47351 0 012.62024-2.01618 9.3892 9.3892 0 013.43005-1.20617 9.39078 9.39078 0 01-1.20606 3.43017 12.47715 12.47715 0 01-2.01623 2.62018 12.70543 12.70543 0 01-2.624 2.01233A9.49021 9.49021 0 01132.46017 376.80854zM114.70211 394.56651a9.49086 9.49086 0 011.21008-3.42636 12.70216 12.70216 0 012.01233-2.624A12.47766 12.47766 0 01120.54464 386.5a9.39076 9.39076 0 013.43017-1.20618 9.3887 9.3887 0 01-1.20617 3.43018 12.477 12.477 0 01-2.01612 2.62018 12.70634 12.70634 0 01-2.624 2.01236A9.491 9.491 0 01114.70211 394.56651zM132.46017 385.2938a9.4904 9.4904 0 013.42627 1.21 12.70543 12.70543 0 012.624 2.01233 12.47741 12.47741 0 012.01623 2.62018 9.39083 9.39083 0 011.20606 3.43018 9.38921 9.38921 0 01-3.43005-1.20618 12.4738 12.4738 0 01-2.62024-2.01617 12.706 12.706 0 01-2.01233-2.624A9.488 9.488 0 01132.46017 385.2938zM114.70211 367.53584a9.49076 9.49076 0 013.42639 1.21 12.706 12.706 0 012.624 2.01236 12.47669 12.47669 0 012.01612 2.62018 9.38865 9.38865 0 011.20617 3.43017 9.39076 9.39076 0 01-3.43017-1.20617 12.47737 12.47737 0 01-2.62012-2.01618 12.70236 12.70236 0 01-2.01233-2.624A9.49086 9.49086 0 01114.70211 367.53584z"/><path fill="#e5d277" d="M68.51748,160.45118c5.79107,0,5.80066-9,0-9-5.79107,0-5.80066,9,0,9Z"/><path fill="#fff" d="M68.51754 149.95118a9.48893 9.48893 0 01-1.56726-3.27839 12.7077 12.7077 0 01-.4325-3.27839 12.47621 12.47621 0 01.42713-3.27839 9.389 9.389 0 011.57263-3.2784 9.39092 9.39092 0 011.57251 3.2784 12.47619 12.47619 0 01.42712 3.27839 12.70812 12.70812 0 01-.43249 3.27839A9.49088 9.49088 0 0168.51754 149.95118zM68.51754 175.06474a9.48889 9.48889 0 01-1.56726-3.2784 12.70762 12.70762 0 01-.4325-3.27838 12.47633 12.47633 0 01.42713-3.2784 9.389 9.389 0 011.57263-3.27838 9.39092 9.39092 0 011.57251 3.27838 12.47632 12.47632 0 01.42712 3.2784 12.708 12.708 0 01-.43249 3.27838A9.49084 9.49084 0 0168.51754 175.06474zM74.51754 155.95118a9.49043 9.49043 0 013.27832-1.5672 12.70391 12.70391 0 013.27844-.43249 12.47473 12.47473 0 013.27832.42708 9.39018 9.39018 0 013.27844 1.57261 9.39015 9.39015 0 01-3.27844 1.5726 12.47559 12.47559 0 01-3.27832.4271 12.70394 12.70394 0 01-3.27844-.43251A9.49022 9.49022 0 0174.51754 155.95118zM49.40389 155.95118a9.491 9.491 0 013.27844-1.5672 12.70374 12.70374 0 013.27832-.43249 12.47509 12.47509 0 013.27845.42708 9.39134 9.39134 0 013.27844 1.57261 9.3913 9.3913 0 01-3.27844 1.5726 12.476 12.476 0 01-3.27845.4271 12.70377 12.70377 0 01-3.27832-.43251A9.4908 9.4908 0 0149.40389 155.95118zM72.76009 151.70854a9.49075 9.49075 0 011.21009-3.42635 12.70144 12.70144 0 012.01232-2.624 12.477 12.477 0 012.62012-2.01618 9.39038 9.39038 0 013.43018-1.20617 9.38872 9.38872 0 01-1.20618 3.43017 12.47718 12.47718 0 01-2.01611 2.62017 12.70566 12.70566 0 01-2.624 2.01235A9.4907 9.4907 0 0172.76009 151.70854zM55.00216 169.4665a9.4928 9.4928 0 011.21-3.42634 12.70571 12.70571 0 012.01233-2.624A12.47414 12.47414 0 0160.84469 161.4a9.3907 9.3907 0 013.43017-1.20618 9.3909 9.3909 0 01-1.20617 3.43018 12.4737 12.4737 0 01-2.01624 2.62018 12.70575 12.70575 0 01-2.6239 2.01234A9.49158 9.49158 0 0155.00216 169.4665zM72.76009 160.19381a9.49108 9.49108 0 013.42639 1.21 12.70562 12.70562 0 012.624 2.01234 12.47769 12.47769 0 012.01611 2.62017 9.38872 9.38872 0 011.20618 3.43017 9.39056 9.39056 0 01-3.43018-1.20616 12.477 12.477 0 01-2.62012-2.01617 12.70184 12.70184 0 01-2.01232-2.624A9.49047 9.49047 0 0172.76009 160.19381zM55.00216 142.43585a9.49159 9.49159 0 013.42639 1.21 12.70475 12.70475 0 012.6239 2.01235 12.47332 12.47332 0 012.01624 2.62016 9.391 9.391 0 011.20617 3.43018 9.39015 9.39015 0 01-3.43017-1.20618 12.4738 12.4738 0 01-2.62024-2.01617 12.70571 12.70571 0 01-2.01233-2.624A9.49273 9.49273 0 0155.00216 142.43585z"/><path fill="#e5d277" d="M309.55373,267.085c5.79107,0,5.80066-9,0-9-5.79107,0-5.80066,9,0,9Z"/><path fill="#fff" d="M309.55367 256.585a9.491 9.491 0 01-1.56714-3.27838 12.70821 12.70821 0 01-.43249-3.27838 12.47629 12.47629 0 01.42712-3.27841 9.39126 9.39126 0 011.57251-3.27838 9.38919 9.38919 0 011.57263 3.27838 12.4763 12.4763 0 01.42713 3.27841 12.70779 12.70779 0 01-.4325 3.27838A9.48889 9.48889 0 01309.55367 256.585zM309.55367 281.69856a9.49085 9.49085 0 01-1.56714-3.27838 12.70812 12.70812 0 01-.43249-3.27839 12.47639 12.47639 0 01.42712-3.27841 9.39143 9.39143 0 011.57251-3.27838 9.38935 9.38935 0 011.57263 3.27838 12.47641 12.47641 0 01.42713 3.27841 12.7077 12.7077 0 01-.4325 3.27839A9.48872 9.48872 0 01309.55367 281.69856zM315.55367 262.585a9.49239 9.49239 0 013.27844-1.5672 12.70485 12.70485 0 013.27845-.43249 12.47568 12.47568 0 013.27832.42709 9.39023 9.39023 0 013.27844 1.5726 9.39023 9.39023 0 01-3.27844 1.5726 12.47486 12.47486 0 01-3.27832.4271 12.70357 12.70357 0 01-3.27845-.4325A9.49185 9.49185 0 01315.55367 262.585zM290.44015 262.585a9.49129 9.49129 0 013.27844-1.5672 12.70455 12.70455 0 013.27832-.43249 12.47587 12.47587 0 013.27844.42709 9.38965 9.38965 0 013.27832 1.5726 9.38965 9.38965 0 01-3.27832 1.5726 12.475 12.475 0 01-3.27844.4271 12.70327 12.70327 0 01-3.27832-.4325A9.49075 9.49075 0 01290.44015 262.585zM313.79635 258.34236a9.49261 9.49261 0 011.21-3.42633 12.706 12.706 0 012.01245-2.624 12.4764 12.4764 0 012.62012-2.01617 9.39015 9.39015 0 013.43017-1.20618 9.3889 9.3889 0 01-1.20617 3.43018 12.47772 12.47772 0 01-2.01612 2.62018 12.70608 12.70608 0 01-2.624 2.01232A9.49077 9.49077 0 01313.79635 258.34236zM296.03841 276.10032a9.49061 9.49061 0 011.21-3.42633 12.70572 12.70572 0 012.01233-2.624 12.474 12.474 0 012.62024-2.01618 9.39074 9.39074 0 013.43018-1.20617 9.391 9.391 0 01-1.20618 3.43017 12.47425 12.47425 0 01-2.01623 2.62018 12.70551 12.70551 0 01-2.62391 2.01233A9.49158 9.49158 0 01296.03841 276.10032zM313.79635 266.82765a9.49076 9.49076 0 013.42639 1.21 12.70626 12.70626 0 012.624 2.01236 12.47643 12.47643 0 012.01612 2.62018 9.38869 9.38869 0 011.20617 3.43014 9.39 9.39 0 01-3.43017-1.20615 12.47673 12.47673 0 01-2.62012-2.01617 12.707 12.707 0 01-2.01245-2.624A9.49311 9.49311 0 01313.79635 266.82765zM296.03841 249.06968a9.49158 9.49158 0 013.42639 1.21 12.70459 12.70459 0 012.62391 2.01236 12.47432 12.47432 0 012.01623 2.62015 9.39128 9.39128 0 011.20618 3.43018 9.39037 9.39037 0 01-3.43018-1.20615A12.47632 12.47632 0 01299.2607 255.12a12.70651 12.70651 0 01-2.01233-2.624A9.49061 9.49061 0 01296.03841 249.06968z"/><path fill="#e5d277" d="M362.9884,168.12993c5.79107,0,5.80066-9,0-9-5.79107,0-5.80066,9,0,9Z"/><path fill="#fff" d="M362.98836 157.62992a9.49081 9.49081 0 01-1.56713-3.27838 12.70249 12.70249 0 01-.4325-3.27839 12.476 12.476 0 01.427-3.27839 9.39365 9.39365 0 011.57263-3.27839 9.38927 9.38927 0 011.57264 3.27839 12.47661 12.47661 0 01.42712 3.27839 12.70812 12.70812 0 01-.43249 3.27839A9.48911 9.48911 0 01362.98836 157.62992zM362.98836 182.74348a9.49056 9.49056 0 01-1.56713-3.27838 12.70257 12.70257 0 01-.4325-3.2784 12.47594 12.47594 0 01.427-3.27838 9.39378 9.39378 0 011.57263-3.2784 9.3894 9.3894 0 011.57264 3.2784 12.47654 12.47654 0 01.42712 3.27838 12.70819 12.70819 0 01-.43249 3.2784A9.48885 9.48885 0 01362.98836 182.74348zM368.98836 163.62992a9.4909 9.4909 0 013.27845-1.56718 12.70323 12.70323 0 013.27832-.43251 12.47587 12.47587 0 013.27844.42709 9.39157 9.39157 0 013.27844 1.5726 9.39129 9.39129 0 01-3.27844 1.57262 12.47544 12.47544 0 01-3.27844.42708 12.70408 12.70408 0 01-3.27832-.4325A9.49061 9.49061 0 01368.98836 163.62992zM343.87484 163.62992a9.48985 9.48985 0 013.27844-1.56718 12.70328 12.70328 0 013.27832-.43251 12.47646 12.47646 0 013.27844.42709 9.39 9.39 0 013.27832 1.5726 9.38972 9.38972 0 01-3.27832 1.57262 12.476 12.476 0 01-3.27844.42708 12.70414 12.70414 0 01-3.27832-.4325A9.48956 9.48956 0 01343.87484 163.62992zM367.231 159.38729a9.49266 9.49266 0 011.21-3.42634 12.70585 12.70585 0 012.01233-2.624 12.47778 12.47778 0 012.62024-2.01618 9.39056 9.39056 0 013.43018-1.20616 9.39122 9.39122 0 01-1.20618 3.43018 12.47384 12.47384 0 01-2.01624 2.62016 12.70129 12.70129 0 01-2.6239 2.01235A9.49114 9.49114 0 01367.231 159.38729zM349.47311 177.14526a9.4881 9.4881 0 011.21-3.42635 12.70564 12.70564 0 012.01233-2.624 12.474 12.474 0 012.62023-2.01617 9.38861 9.38861 0 013.43018-1.20618 9.39312 9.39312 0 01-1.20618 3.43017 12.47794 12.47794 0 01-2.01623 2.62017 12.70193 12.70193 0 01-2.624 2.01234A9.49021 9.49021 0 01349.47311 177.14526zM367.231 167.87257a9.49076 9.49076 0 013.42639 1.21 12.70168 12.70168 0 012.6239 2.01236 12.47306 12.47306 0 012.01624 2.62016 9.39122 9.39122 0 011.20618 3.43018 9.3902 9.3902 0 01-3.43018-1.20618 12.47774 12.47774 0 01-2.62024-2.01617 12.70605 12.70605 0 01-2.01233-2.624A9.49273 9.49273 0 01367.231 167.87257zM349.47311 150.1146a9.49038 9.49038 0 013.42627 1.21 12.70336 12.70336 0 012.624 2.01235 12.478 12.478 0 012.01623 2.62018 9.39312 9.39312 0 011.20618 3.43017 9.38915 9.38915 0 01-3.43018-1.20617 12.47437 12.47437 0 01-2.62023-2.01618 12.70564 12.70564 0 01-2.01233-2.624A9.48823 9.48823 0 01349.47311 150.1146z"/><path fill="#e5d277" d="M134.32906,228.70586c3.93937,0,3.94589-6.12224,0-6.12224-3.93937,0-3.9459,6.12224,0,6.12224Z"/><path fill="#fff" d="M134.32906 221.56324a6.45622 6.45622 0 01-1.066-2.2301 8.6284 8.6284 0 01-.29406-2.23013 8.47264 8.47264 0 01.29028-2.23014 6.38784 6.38784 0 011.06982-2.2301 6.38515 6.38515 0 011.0697 2.2301 8.46741 8.46741 0 01.29041 2.23014 8.62841 8.62841 0 01-.29407 2.23013A6.456 6.456 0 01134.32906 221.56324zM134.32906 238.64671a6.4558 6.4558 0 01-1.066-2.2301 8.62842 8.62842 0 01-.29406-2.23014 8.47218 8.47218 0 01.29028-2.2301 6.3878 6.3878 0 011.06982-2.23013 6.38511 6.38511 0 011.0697 2.23013 8.467 8.467 0 01.29041 2.2301 8.62843 8.62843 0 01-.29407 2.23014A6.45561 6.45561 0 01134.32906 238.64671zM138.41061 225.64475a6.45471 6.45471 0 012.2301-1.0661 8.62729 8.62729 0 012.2301-.294 8.47243 8.47243 0 012.2301.29034 6.38707 6.38707 0 012.23011 1.06976 6.38817 6.38817 0 01-2.23011 1.06977 8.47364 8.47364 0 01-2.2301.29031 8.62729 8.62729 0 01-2.2301-.294A6.455 6.455 0 01138.41061 225.64475zM121.32711 225.64475a6.45479 6.45479 0 012.2301-1.0661 8.62808 8.62808 0 012.2301-.294 8.47186 8.47186 0 012.23011.29034 6.386 6.386 0 012.2301 1.06976 6.38713 6.38713 0 01-2.2301 1.06977 8.47307 8.47307 0 01-2.23011.29031 8.62808 8.62808 0 01-2.2301-.294A6.45508 6.45508 0 01121.32711 225.64475zM137.21517 222.75868a6.45583 6.45583 0 01.823-2.33075 8.62364 8.62364 0 011.36914-1.78482 8.47085 8.47085 0 011.78223-1.37165 6.38656 6.38656 0 012.33325-.82049 6.38552 6.38552 0 01-.82044 2.33334 8.4695 8.4695 0 01-1.3717 1.78223 8.62652 8.62652 0 01-1.78479 1.369A6.45538 6.45538 0 01137.21517 222.75868zM125.13521 234.83854a6.45869 6.45869 0 01.82312-2.33078 8.628 8.628 0 011.369-1.78482 8.4769 8.4769 0 011.78223-1.37164 6.3878 6.3878 0 012.33337-.8205 6.3858 6.3858 0 01-.82043 2.33338 8.47124 8.47124 0 01-1.3717 1.78222 8.62762 8.62762 0 01-1.78479 1.369A6.45552 6.45552 0 01125.13521 234.83854zM137.21517 228.5308a6.45575 6.45575 0 012.33069.82309 8.62825 8.62825 0 011.78479 1.369 8.47027 8.47027 0 011.3717 1.78223 6.38567 6.38567 0 01.82044 2.33337 6.38765 6.38765 0 01-2.33325-.82049 8.47285 8.47285 0 01-1.78223-1.37165 8.62383 8.62383 0 01-1.36914-1.78485A6.45563 6.45563 0 01137.21517 228.5308zM125.13521 216.451a6.45494 6.45494 0 012.33082.82309 8.62671 8.62671 0 011.78479 1.36905 8.4697 8.4697 0 011.3717 1.78222 6.38545 6.38545 0 01.82043 2.33335 6.3878 6.3878 0 01-2.33337-.8205 8.4769 8.4769 0 01-1.78223-1.37164 8.62823 8.62823 0 01-1.369-1.78482A6.45866 6.45866 0 01125.13521 216.451z"/><path fill="#e5d277" d="M74.62906,371.11031c3.93937,0,3.94589-6.12224,0-6.12224-3.93937,0-3.9459,6.12224,0,6.12224Z"/><path fill="#fff" d="M74.62911 363.96769a6.45427 6.45427 0 01-1.06616-2.2301 8.623 8.623 0 01-.29395-2.23013 8.47307 8.47307 0 01.29029-2.23014 6.38784 6.38784 0 011.06982-2.2301 6.38957 6.38957 0 011.0697 2.2301 8.47307 8.47307 0 01.29029 2.23014 8.623 8.623 0 01-.29395 2.23013A6.456 6.456 0 0174.62911 363.96769zM74.62911 381.05119a6.45418 6.45418 0 01-1.06616-2.23014 8.62294 8.62294 0 01-.29395-2.23013 8.47278 8.47278 0 01.29029-2.2301 6.3878 6.3878 0 011.06982-2.23013 6.38952 6.38952 0 011.0697 2.23013 8.47278 8.47278 0 01.29029 2.2301 8.62294 8.62294 0 01-.29395 2.23013A6.456 6.456 0 0174.62911 381.05119zM78.71053 368.0492a6.45744 6.45744 0 012.2301-1.0661 8.62878 8.62878 0 012.23011-.294 8.47332 8.47332 0 012.23022.29034 6.38794 6.38794 0 012.2301 1.06976A6.389 6.389 0 0185.401 369.119a8.47453 8.47453 0 01-2.23022.29031 8.62879 8.62879 0 01-2.23011-.294A6.457 6.457 0 0178.71053 368.0492zM61.627 368.0492a6.45676 6.45676 0 012.23022-1.0661 8.62741 8.62741 0 012.2301-.294 8.47315 8.47315 0 012.23011.29034 6.38712 6.38712 0 012.2301 1.06976 6.38821 6.38821 0 01-2.2301 1.06977 8.47436 8.47436 0 01-2.23011.29031 8.62742 8.62742 0 01-2.2301-.294A6.4563 6.4563 0 0161.627 368.0492zM77.5151 365.16313a6.4559 6.4559 0 01.82312-2.33075 8.62728 8.62728 0 011.369-1.78482 8.47379 8.47379 0 011.78222-1.37165 6.3873 6.3873 0 012.33338-.82049 6.38771 6.38771 0 01-.82044 2.33334 8.47349 8.47349 0 01-1.3717 1.78223A8.62679 8.62679 0 0179.84591 364.34 6.45608 6.45608 0 0177.5151 365.16313zM65.43526 377.243a6.45643 6.45643 0 01.82312-2.33078 8.628 8.628 0 011.369-1.78482 8.47356 8.47356 0 011.78223-1.37164 6.38756 6.38756 0 012.33337-.8205 6.38818 6.38818 0 01-.82043 2.33338 8.47527 8.47527 0 01-1.37171 1.78222 8.62709 8.62709 0 01-1.78479 1.369A6.45622 6.45622 0 0165.43526 377.243zM77.5151 370.93525a6.45627 6.45627 0 012.33081.82309 8.62851 8.62851 0 011.78479 1.36905 8.47426 8.47426 0 011.3717 1.78223 6.38787 6.38787 0 01.82044 2.33337 6.3884 6.3884 0 01-2.33338-.82049 8.47612 8.47612 0 01-1.78222-1.37165 8.62747 8.62747 0 01-1.369-1.78485A6.4557 6.4557 0 0177.5151 370.93525zM65.43526 358.85542a6.45564 6.45564 0 012.33081.82309 8.62618 8.62618 0 011.78479 1.369 8.47347 8.47347 0 011.37171 1.78222 6.38776 6.38776 0 01.82043 2.33335 6.387 6.387 0 01-2.33337-.8205A8.47356 8.47356 0 0167.6274 362.971a8.62823 8.62823 0 01-1.369-1.78482A6.45641 6.45641 0 0165.43526 358.85542z"/><path fill="#e5d277" d="M377.791,237.57711c3.93937,0,3.9459-6.12224,0-6.12224-3.93937,0-3.94589,6.12224,0,6.12224Z"/><path fill="#fff" d="M377.7911 230.43449a6.4541 6.4541 0 01-1.06616-2.2301 8.62307 8.62307 0 01-.29395-2.23014 8.47262 8.47262 0 01.29028-2.23013 6.38822 6.38822 0 011.06983-2.2301 6.38973 6.38973 0 011.0697 2.2301 8.47262 8.47262 0 01.29028 2.23013 8.62306 8.62306 0 01-.29394 2.23014A6.456 6.456 0 01377.7911 230.43449zM377.7911 247.518a6.45406 6.45406 0 01-1.06616-2.23013 8.623 8.623 0 01-.29395-2.23013 8.47229 8.47229 0 01.29028-2.2301 6.38813 6.38813 0 011.06983-2.23014 6.38965 6.38965 0 011.0697 2.23014 8.47229 8.47229 0 01.29028 2.2301 8.623 8.623 0 01-.29394 2.23013A6.456 6.456 0 01377.7911 247.518zM381.87252 234.516a6.45726 6.45726 0 012.2301-1.0661 8.62921 8.62921 0 012.2301-.294 8.47382 8.47382 0 012.23023.29035 6.388 6.388 0 012.2301 1.06976 6.38855 6.38855 0 01-2.2301 1.06976 8.475 8.475 0 01-2.23023.29032 8.62878 8.62878 0 01-2.2301-.294A6.457 6.457 0 01381.87252 234.516zM364.789 234.516a6.45722 6.45722 0 012.23011-1.0661 8.62932 8.62932 0 012.23022-.294 8.47351 8.47351 0 012.2301.29035 6.38807 6.38807 0 012.23011 1.06976 6.3886 6.3886 0 01-2.23011 1.06976 8.47472 8.47472 0 01-2.2301.29032 8.62889 8.62889 0 01-2.23022-.294A6.45694 6.45694 0 01364.789 234.516zM380.67708 231.63a6.45639 6.45639 0 01.82313-2.33078 8.62811 8.62811 0 011.369-1.78482 8.47356 8.47356 0 011.78223-1.37164 6.387 6.387 0 012.33337-.8205 6.38812 6.38812 0 01-.82043 2.33338 8.47435 8.47435 0 01-1.3717 1.78219 8.62671 8.62671 0 01-1.78479 1.369A6.45634 6.45634 0 01380.67708 231.63zM368.59725 243.70979a6.45606 6.45606 0 01.82312-2.33078 8.62728 8.62728 0 011.369-1.78482 8.47085 8.47085 0 011.78223-1.37165 6.38773 6.38773 0 012.33337-.82049 6.38594 6.38594 0 01-.82056 2.33337 8.47054 8.47054 0 01-1.37158 1.78223 8.62709 8.62709 0 01-1.78479 1.369A6.45741 6.45741 0 01368.59725 243.70979zM380.67708 237.40205a6.45632 6.45632 0 012.33082.82309 8.62878 8.62878 0 011.78479 1.369 8.47556 8.47556 0 011.3717 1.78222 6.388 6.388 0 01.82043 2.33338 6.38811 6.38811 0 01-2.33337-.8205 8.47555 8.47555 0 01-1.78223-1.37164 8.62777 8.62777 0 01-1.369-1.78485A6.456 6.456 0 01380.67708 237.40205zM368.59725 225.32221a6.45683 6.45683 0 012.33081.82309 8.62687 8.62687 0 011.78479 1.36905 8.46977 8.46977 0 011.37158 1.78223A6.38554 6.38554 0 01374.905 231.63a6.38757 6.38757 0 01-2.33337-.82052 8.47052 8.47052 0 01-1.78223-1.37165 8.62728 8.62728 0 01-1.369-1.78482A6.4559 6.4559 0 01368.59725 225.32221z"/><path fill="#e5d277" d="M438.313,374.197c3.93937,0,3.9459-6.12224,0-6.12224-3.93937,0-3.94589,6.12224,0,6.12224Z"/><path fill="#fff" d="M438.31307 367.05439a6.45414 6.45414 0 01-1.06616-2.23013 8.62266 8.62266 0 01-.29395-2.2301 8.47307 8.47307 0 01.29029-2.23014 6.38759 6.38759 0 011.06982-2.2301 6.38932 6.38932 0 011.0697 2.2301 8.47307 8.47307 0 01.29029 2.23014 8.62266 8.62266 0 01-.29395 2.2301A6.45591 6.45591 0 01438.31307 367.05439zM438.31307 384.13786a6.45385 6.45385 0 01-1.06616-2.2301 8.62307 8.62307 0 01-.29395-2.23014 8.47262 8.47262 0 01.29029-2.2301 6.3878 6.3878 0 011.06982-2.23013 6.38952 6.38952 0 011.0697 2.23013 8.47262 8.47262 0 01.29029 2.2301 8.62307 8.62307 0 01-.29395 2.23014A6.45561 6.45561 0 01438.31307 384.13786zM442.39449 371.1359a6.4569 6.4569 0 012.2301-1.0661 8.629 8.629 0 012.23023-.294 8.47429 8.47429 0 012.2301.29031 6.38857 6.38857 0 012.2301 1.06979 6.389 6.389 0 01-2.2301 1.06977 8.47429 8.47429 0 01-2.2301.29031 8.629 8.629 0 01-2.23023-.294A6.4572 6.4572 0 01442.39449 371.1359zM425.311 371.1359a6.45622 6.45622 0 012.23022-1.0661 8.62741 8.62741 0 012.2301-.294 8.47436 8.47436 0 012.23011.29031 6.38774 6.38774 0 012.2301 1.06979 6.38821 6.38821 0 01-2.2301 1.06977 8.47436 8.47436 0 01-2.23011.29031 8.62741 8.62741 0 01-2.2301-.294A6.45651 6.45651 0 01425.311 371.1359zM441.19906 368.24983a6.4559 6.4559 0 01.82312-2.33075 8.62728 8.62728 0 011.369-1.78482 8.47525 8.47525 0 011.78222-1.37168 6.3884 6.3884 0 012.33338-.82049 6.38767 6.38767 0 01-.82044 2.33337 8.47426 8.47426 0 01-1.3717 1.78223 8.62782 8.62782 0 01-1.78479 1.36905A6.45608 6.45608 0 01441.19906 368.24983zM429.11922 380.32969a6.45643 6.45643 0 01.82312-2.33078 8.628 8.628 0 011.369-1.78482 8.47356 8.47356 0 011.78223-1.37164 6.387 6.387 0 012.33337-.8205 6.38818 6.38818 0 01-.82043 2.33338 8.47431 8.47431 0 01-1.37171 1.78219 8.62618 8.62618 0 01-1.78479 1.36905A6.45622 6.45622 0 01429.11922 380.32969zM441.19906 374.022a6.45589 6.45589 0 012.33081.82309 8.62748 8.62748 0 011.78479 1.36905 8.47426 8.47426 0 011.3717 1.78223 6.38767 6.38767 0 01.82044 2.33337 6.3884 6.3884 0 01-2.33338-.82049 8.47525 8.47525 0 01-1.78222-1.37168 8.62728 8.62728 0 01-1.369-1.78482A6.4559 6.4559 0 01441.19906 374.022zM429.11922 361.94209a6.45622 6.45622 0 012.33081.82312 8.62618 8.62618 0 011.78479 1.369 8.47406 8.47406 0 011.37171 1.78219 6.38818 6.38818 0 01.82043 2.33338 6.387 6.387 0 01-2.33337-.8205 8.47356 8.47356 0 01-1.78223-1.37164 8.62823 8.62823 0 01-1.369-1.78482A6.45657 6.45657 0 01429.11922 361.94209z"/><path fill="#e5d277" d="M438.313,155.52145c3.93937,0,3.9459-6.12224,0-6.12224-3.93937,0-3.94589,6.12224,0,6.12224Z"/><path fill="#fff" d="M438.31307 148.37884a6.45427 6.45427 0 01-1.06616-2.23012 8.623 8.623 0 01-.29395-2.23013 8.473 8.473 0 01.29029-2.23012 6.38784 6.38784 0 011.06982-2.23012 6.38956 6.38956 0 011.0697 2.23012 8.473 8.473 0 01.29029 2.23012 8.623 8.623 0 01-.29395 2.23013A6.456 6.456 0 01438.31307 148.37884zM438.31307 165.46232a6.45414 6.45414 0 01-1.06616-2.23013 8.62281 8.62281 0 01-.29395-2.23012 8.47292 8.47292 0 01.29029-2.23012 6.38776 6.38776 0 011.06982-2.23012 6.38948 6.38948 0 011.0697 2.23012 8.47292 8.47292 0 01.29029 2.23012 8.62281 8.62281 0 01-.29395 2.23012A6.45591 6.45591 0 01438.31307 165.46232zM442.39449 152.46034a6.45723 6.45723 0 012.2301-1.06609 8.62945 8.62945 0 012.23023-.294 8.47348 8.47348 0 012.2301.29033 6.38833 6.38833 0 012.2301 1.06977 6.38847 6.38847 0 01-2.2301 1.06976 8.47345 8.47345 0 01-2.2301.29031 8.62812 8.62812 0 01-2.23023-.294A6.457 6.457 0 01442.39449 152.46034zM425.311 152.46034a6.45655 6.45655 0 012.23022-1.06609 8.62785 8.62785 0 012.2301-.294 8.47355 8.47355 0 012.23011.29033 6.3875 6.3875 0 012.2301 1.06977 6.38764 6.38764 0 01-2.2301 1.06976 8.47353 8.47353 0 01-2.23011.29031 8.62653 8.62653 0 01-2.2301-.294A6.45633 6.45633 0 01425.311 152.46034zM441.19906 149.57427a6.456 6.456 0 01.82312-2.33076 8.62781 8.62781 0 011.369-1.78482 8.47375 8.47375 0 011.78222-1.37164 6.38767 6.38767 0 012.33338-.8205 6.38782 6.38782 0 01-.82044 2.33336 8.47452 8.47452 0 01-1.3717 1.78223 8.62744 8.62744 0 01-1.78479 1.369A6.45589 6.45589 0 01441.19906 149.57427zM429.11922 161.65412a6.45633 6.45633 0 01.82312-2.33076 8.62836 8.62836 0 011.369-1.78484 8.47489 8.47489 0 011.78223-1.37164 6.38792 6.38792 0 012.33337-.8205 6.38805 6.38805 0 01-.82043 2.33338 8.475 8.475 0 01-1.37171 1.78222 8.62786 8.62786 0 01-1.78479 1.369A6.45621 6.45621 0 01429.11922 161.65412zM441.19906 155.34638a6.45647 6.45647 0 012.33081.82311 8.62843 8.62843 0 011.78479 1.369 8.475 8.475 0 011.3717 1.78223 6.388 6.388 0 01.82044 2.33337 6.38785 6.38785 0 01-2.33338-.82049 8.47479 8.47479 0 01-1.78222-1.37165 8.62734 8.62734 0 01-1.369-1.78483A6.45594 6.45594 0 01441.19906 155.34638zM429.11922 143.26655a6.456 6.456 0 012.33081.82309 8.62756 8.62756 0 011.78479 1.369 8.474 8.474 0 011.37171 1.78223 6.38776 6.38776 0 01.82043 2.33335 6.38755 6.38755 0 01-2.33337-.82049 8.47389 8.47389 0 01-1.78223-1.37164 8.6285 8.6285 0 01-1.369-1.78482A6.45645 6.45645 0 01429.11922 143.26655z"/><path fill="#e5d277" d="M422.5084,295.09863c5.79107,0,5.80066-9,0-9-5.79107,0-5.80066,9,0,9Z"/><path fill="#fff" d="M422.50838 284.59864a9.49093 9.49093 0 01-1.56713-3.27841 12.69705 12.69705 0 01-.4325-3.27838 12.47594 12.47594 0 01.427-3.27838 9.39153 9.39153 0 011.57263-3.27841 9.38927 9.38927 0 011.57264 3.27841 12.47654 12.47654 0 01.42712 3.27838 12.70745 12.70745 0 01-.4325 3.27838A9.49335 9.49335 0 01422.50838 284.59864zM422.50838 309.7122a9.491 9.491 0 01-1.56713-3.27841 12.69711 12.69711 0 01-.4325-3.27838 12.476 12.476 0 01.427-3.27839 9.39133 9.39133 0 011.57263-3.27838A9.38907 9.38907 0 01424.081 299.877a12.47661 12.47661 0 01.42712 3.27839 12.70751 12.70751 0 01-.4325 3.27838A9.49344 9.49344 0 01422.50838 309.7122zM428.50838 290.59864a9.491 9.491 0 013.27845-1.5672 12.70363 12.70363 0 013.27832-.43249 12.47522 12.47522 0 013.27844.42706 9.39019 9.39019 0 013.27832 1.57263 9.38974 9.38974 0 01-3.27832 1.5726 12.47653 12.47653 0 01-3.27844.4271 12.70326 12.70326 0 01-3.27832-.43253A9.49051 9.49051 0 01428.50838 290.59864zM403.39486 290.59864a9.49043 9.49043 0 013.27832-1.5672 12.70527 12.70527 0 013.27844-.43249 12.47587 12.47587 0 013.27844.42706 9.39011 9.39011 0 013.27832 1.57263 9.38965 9.38965 0 01-3.27832 1.5726 12.47718 12.47718 0 01-3.27844.4271 12.7049 12.7049 0 01-3.27844-.43253A9.49 9.49 0 01403.39486 290.59864zM426.75106 286.356a9.49079 9.49079 0 011.21-3.42636 12.70632 12.70632 0 012.01233-2.624 12.47506 12.47506 0 012.62024-2.01617 9.3899 9.3899 0 013.43017-1.20618 9.3909 9.3909 0 01-1.20617 3.43018 12.47745 12.47745 0 01-2.01624 2.62018 12.70314 12.70314 0 01-2.624 2.01236A9.49032 9.49032 0 01426.75106 286.356zM408.99313 304.114a9.48835 9.48835 0 011.21-3.42636 12.70618 12.70618 0 012.01233-2.624 12.477 12.477 0 012.62011-2.01618 9.39074 9.39074 0 013.43018-1.20617 9.38865 9.38865 0 01-1.20618 3.43017 12.473 12.473 0 01-2.01611 2.62018 12.7064 12.7064 0 01-2.624 2.01236A9.49007 9.49007 0 01408.99313 304.114zM426.75106 294.84126a9.49071 9.49071 0 013.42627 1.21 12.70266 12.70266 0 012.624 2.01233 12.478 12.478 0 012.01624 2.62018 9.39084 9.39084 0 011.20617 3.43017 9.3899 9.3899 0 01-3.43017-1.20617 12.47377 12.47377 0 01-2.62024-2.01618 12.70572 12.70572 0 01-2.01233-2.624A9.49038 9.49038 0 01426.75106 294.84126zM408.99313 277.08329a9.49028 9.49028 0 013.42626 1.21 12.70523 12.70523 0 012.624 2.01233 12.47323 12.47323 0 012.01611 2.62018 9.3887 9.3887 0 011.20618 3.43018 9.39093 9.39093 0 01-3.43018-1.20618 12.47634 12.47634 0 01-2.62011-2.01617 12.706 12.706 0 01-2.01233-2.624A9.48815 9.48815 0 01408.99313 277.08329z"/><path fill="#e5d277" d="M383.14437,417.85863c5.79107,0,5.80066-9,0-9-5.79107,0-5.80066,9,0,9Z"/><path fill="#fff" d="M383.14437 407.35862a9.49059 9.49059 0 01-1.56714-3.27838 12.7026 12.7026 0 01-.43262-3.27838 12.47677 12.47677 0 01.42713-3.27841 9.38919 9.38919 0 011.57263-3.27838 9.38919 9.38919 0 011.57263 3.27838 12.47677 12.47677 0 01.42713 3.27841 12.7026 12.7026 0 01-.43262 3.27838A9.49059 9.49059 0 01383.14437 407.35862zM383.14437 432.47218a9.49067 9.49067 0 01-1.56714-3.27838 12.70266 12.70266 0 01-.43262-3.27838 12.47646 12.47646 0 01.42713-3.27839 9.38923 9.38923 0 011.57263-3.27841A9.38923 9.38923 0 01384.717 422.637a12.47646 12.47646 0 01.42713 3.27839 12.70266 12.70266 0 01-.43262 3.27838A9.49067 9.49067 0 01383.14437 432.47218zM389.14437 413.35862a9.48964 9.48964 0 013.27844-1.56717 12.70335 12.70335 0 013.27832-.43252 12.47659 12.47659 0 013.27845.42709 9.39 9.39 0 013.27832 1.5726 9.38929 9.38929 0 01-3.27832 1.5726 12.4741 12.4741 0 01-3.27845.4271 12.70333 12.70333 0 01-3.27832-.4325A9.48956 9.48956 0 01389.14437 413.35862zM364.03084 413.35862a9.49019 9.49019 0 013.27833-1.56717 12.70414 12.70414 0 013.27844-.43252 12.47568 12.47568 0 013.27832.42709 9.38941 9.38941 0 013.27844 1.5726 9.38871 9.38871 0 01-3.27844 1.5726 12.47319 12.47319 0 01-3.27832.4271 12.70411 12.70411 0 01-3.27844-.4325A9.49011 9.49011 0 01364.03084 413.35862zM387.38705 409.116a9.488 9.488 0 011.21-3.42633 12.70517 12.70517 0 012.01233-2.624 12.4738 12.4738 0 012.62024-2.01617 9.389 9.389 0 013.43017-1.20618 9.3931 9.3931 0 01-1.20618 3.43018 12.47818 12.47818 0 01-2.01623 2.62018 12.70328 12.70328 0 01-2.624 2.01233A9.49038 9.49038 0 01387.38705 409.116zM369.629 426.874a9.49045 9.49045 0 011.21008-3.42636 12.70156 12.70156 0 012.01233-2.624 12.47637 12.47637 0 012.62012-2.01618 9.39076 9.39076 0 013.43017-1.20617 9.38865 9.38865 0 01-1.20617 3.43017 12.47746 12.47746 0 01-2.01612 2.62018 12.70517 12.70517 0 01-2.624 2.01233A9.49134 9.49134 0 01369.629 426.874zM387.38705 417.60127a9.4902 9.4902 0 013.42627 1.21 12.70306 12.70306 0 012.624 2.01236 12.47689 12.47689 0 012.01623 2.62018 9.393 9.393 0 011.20618 3.43017 9.389 9.389 0 01-3.43017-1.20617 12.47451 12.47451 0 01-2.62024-2.01618 12.70618 12.70618 0 01-2.01233-2.624A9.48835 9.48835 0 01387.38705 417.60127zM369.629 399.8433a9.491 9.491 0 013.42639 1.21 12.70634 12.70634 0 012.624 2.01236 12.477 12.477 0 012.01612 2.62018 9.38874 9.38874 0 011.20617 3.43015 9.39038 9.39038 0 01-3.43017-1.20615 12.47766 12.47766 0 01-2.62012-2.01617 12.70216 12.70216 0 01-2.01233-2.624A9.49086 9.49086 0 01369.629 399.8433z"/><path fill="#e5d277" d="M75.8284,478.33863c5.79107,0,5.80066-9,0-9-5.79107,0-5.80066,9,0,9Z"/><path fill="#fff" d="M75.82845 467.83863a9.48907 9.48907 0 01-1.56726-3.27838 12.708 12.708 0 01-.43249-3.27838 12.47579 12.47579 0 01.42712-3.27838 9.38919 9.38919 0 011.57263-3.27844 9.39091 9.39091 0 011.57251 3.27844 12.47623 12.47623 0 01.42713 3.27838 12.708 12.708 0 01-.4325 3.27838A9.49084 9.49084 0 0175.82845 467.83863zM75.82845 492.95222a9.48941 9.48941 0 01-1.56726-3.27844 12.70732 12.70732 0 01-.43249-3.27838 12.47652 12.47652 0 01.42712-3.27839 9.38911 9.38911 0 011.57263-3.27838A9.39083 9.39083 0 0177.401 483.117a12.477 12.477 0 01.42713 3.27839 12.70734 12.70734 0 01-.4325 3.27838A9.49118 9.49118 0 0175.82845 492.95222zM81.82845 473.83863a9.49 9.49 0 013.27832-1.5672 12.70335 12.70335 0 013.27844-.43249 12.47566 12.47566 0 013.27833.42706 9.39059 9.39059 0 013.27844 1.57263 9.39147 9.39147 0 01-3.27844 1.57263 12.47568 12.47568 0 01-3.27833.42707 12.70553 12.70553 0 01-3.27844-.4325A9.48961 9.48961 0 0181.82845 473.83863zM56.7148 473.83863a9.49043 9.49043 0 013.27845-1.5672 12.70233 12.70233 0 013.27832-.43249A12.47583 12.47583 0 0166.55 472.266a9.3915 9.3915 0 013.27844 1.57263A9.39238 9.39238 0 0166.55 475.41126a12.47584 12.47584 0 01-3.27844.42707 12.70451 12.70451 0 01-3.27832-.4325A9.49007 9.49007 0 0156.7148 473.83863zM80.071 469.596a9.49041 9.49041 0 011.21008-3.42639 12.70082 12.70082 0 012.01233-2.624 12.47414 12.47414 0 012.62012-2.01617 9.39033 9.39033 0 013.43017-1.20618 9.38892 9.38892 0 01-1.20618 3.43018 12.47691 12.47691 0 01-2.01611 2.62018 12.70543 12.70543 0 01-2.624 2.01233A9.49216 9.49216 0 0180.071 469.596zM62.31307 487.354a9.49286 9.49286 0 011.21-3.42633 12.70592 12.70592 0 012.01233-2.624 12.47912 12.47912 0 012.62024-2.01618 9.39129 9.39129 0 013.43018-1.20617 9.39064 9.39064 0 01-1.20618 3.43017 12.47319 12.47319 0 01-2.01624 2.62018 12.70293 12.70293 0 01-2.6239 2.01239A9.49074 9.49074 0 0162.31307 487.354zM80.071 478.08125a9.492 9.492 0 013.42639 1.21 12.70543 12.70543 0 012.624 2.01233 12.47665 12.47665 0 012.01611 2.62018 9.38887 9.38887 0 011.20618 3.43017 9.39014 9.39014 0 01-3.43017-1.20617 12.47585 12.47585 0 01-2.62012-2.01618 12.70263 12.70263 0 01-2.01233-2.624A9.49082 9.49082 0 0180.071 478.08125zM62.31307 460.32331a9.49093 9.49093 0 013.42639 1.21 12.70327 12.70327 0 012.6239 2.01239 12.47345 12.47345 0 012.01624 2.62018 9.39069 9.39069 0 011.20618 3.43018 9.3913 9.3913 0 01-3.43018-1.20618 12.47941 12.47941 0 01-2.62024-2.01617 12.70571 12.70571 0 01-2.01233-2.624A9.49286 9.49286 0 0162.31307 460.32331z"/><path fill="#e5d277" d="M470.56,494.29688c5.79107,0,5.80066-9,0-9-5.79107,0-5.80066,9,0,9Z"/><path fill="#fff" d="M470.56 483.79688a9.49116 9.49116 0 01-1.56726-3.27838 12.70791 12.70791 0 01-.4325-3.27838 12.47658 12.47658 0 01.42713-3.27844A9.38952 9.38952 0 01470.56 470.6833a9.39164 9.39164 0 011.57263 3.27838 12.47639 12.47639 0 01.427 3.27844 12.69706 12.69706 0 01-.43249 3.27838A9.49076 9.49076 0 01470.56 483.79688zM470.56 508.91041a9.49073 9.49073 0 01-1.56726-3.27838 12.70728 12.70728 0 01-.4325-3.27838 12.47608 12.47608 0 01.42713-3.27838 9.38906 9.38906 0 011.57263-3.27839 9.39118 9.39118 0 011.57263 3.27839 12.47589 12.47589 0 01.427 3.27838 12.69643 12.69643 0 01-.43249 3.27838A9.49034 9.49034 0 01470.56 508.91041zM476.56 489.79688a9.48967 9.48967 0 013.27832-1.56719 12.70361 12.70361 0 013.27844-.4325 12.47749 12.47749 0 013.27844.42706 9.39011 9.39011 0 013.27832 1.57263 9.38976 9.38976 0 01-3.27832 1.57258 12.47506 12.47506 0 01-3.27844.42712 12.70621 12.70621 0 01-3.27844-.4325A9.49061 9.49061 0 01476.56 489.79688zM451.44649 489.79688a9.48976 9.48976 0 013.27832-1.56719 12.703 12.703 0 013.27845-.4325 12.47606 12.47606 0 013.27832.42706 9.39068 9.39068 0 013.27844 1.57263 9.39034 9.39034 0 01-3.27844 1.57258 12.47364 12.47364 0 01-3.27832.42712 12.70555 12.70555 0 01-3.27845-.4325A9.4907 9.4907 0 01451.44649 489.79688zM474.8027 485.55421a9.488 9.488 0 011.21-3.42633 12.70492 12.70492 0 012.01233-2.624 12.474 12.474 0 012.62011-2.01618 9.39038 9.39038 0 013.43018-1.20618 9.3891 9.3891 0 01-1.20618 3.43018 12.47478 12.47478 0 01-2.01611 2.62018 12.70731 12.70731 0 01-2.624 2.01233A9.49006 9.49006 0 01474.8027 485.55421zM457.04464 503.3122a9.49057 9.49057 0 011.21008-3.42633 12.70176 12.70176 0 012.01233-2.624 12.47807 12.47807 0 012.62012-2.01617 9.39125 9.39125 0 013.43017-1.20618 9.38837 9.38837 0 01-1.20617 3.43018 12.47663 12.47663 0 01-2.01612 2.62017 12.70509 12.70509 0 01-2.624 2.01233A9.49078 9.49078 0 01457.04464 503.3122zM474.8027 494.0395a9.49009 9.49009 0 013.42626 1.21 12.70523 12.70523 0 012.624 2.01233 12.473 12.473 0 012.01611 2.62018 9.38912 9.38912 0 011.20618 3.43017 9.3902 9.3902 0 01-3.43018-1.20617 12.476 12.476 0 01-2.62011-2.01618 12.70652 12.70652 0 01-2.01233-2.624A9.48872 9.48872 0 01474.8027 494.0395zM457.04464 476.28156a9.49075 9.49075 0 013.42639 1.21 12.70534 12.70534 0 012.624 2.01239 12.47663 12.47663 0 012.01612 2.62017 9.38838 9.38838 0 011.20617 3.43012 9.39011 9.39011 0 01-3.43017-1.20612 12.47807 12.47807 0 01-2.62012-2.01617 12.70335 12.70335 0 01-2.01233-2.624A9.49055 9.49055 0 01457.04464 476.28156z"/></g></g><g clip-path="url(#a)"><path fill="#ed9a72" d="M448.885,508.906H63.115q1.74024-8.63993,3.44006-16.8c.28-1.36.55994-2.72.85-4.06q1.27515-6.02994,2.52-11.79.82507-3.855,1.65-7.58.8249-3.705,1.62-7.31v-.01q.81006-3.59994,1.6-7.06v-.02q.795-3.465,1.55994-6.8c.51-2.24,1.03-4.44,1.53-6.6q.765-3.21,1.5-6.3,1.47-6.21,2.86011-11.89c.7-2.83,1.37988-5.57,2.04-8.2V414.466c.43994-1.75.87988-3.46,1.29992-5.13v-.02c1.97-7.77,3.76-14.59,5.33-20.41.18994-.67.36011-1.34.54-1.99v-.02c.36-1.3.7-2.55,1.03-3.75.15991-.61005.31994-1.2.49-1.78,3.07995-11.14,4.87988-16.95,4.87988-16.95,4.81006-28.85,27.05005-38.17,27.05005-38.17l53.88013-16.77.0299-.00994,22.32-6.95c.01,0,.01,0,.02-.01a27.30919,27.30919,0,0,0,9.64-5.3c.01-.01.03-.02.04-.04a.17672.17672,0,0,0,.04993-.04,2.83981,2.83981,0,0,0,.26-.23,27.51559,27.51559,0,0,0,6.37012-8.21,26.98724,26.98724,0,0,0,2.23-6.1c.12988-.52.24-1.05.31994-1.58a6.86953,6.86953,0,0,0,.13-.79c.09009-.52.15-1.05.18994-1.58.04-.49.08008-.98.09009-1.47.01-.31.02-.63.02-.94v-36.85H289.385v36.85a27.48089,27.48089,0,0,0,9.43,20.75c.18006.16.36.31.54993.47a.0098.0098,0,0,1,.01.01,1.34257,1.34257,0,0,1,.14014.11,27.5062,27.5062,0,0,0,9.2,4.94c.01.01.01.01.02.01l23.35,7.27,52.88,16.46c21.42993,9.92,29.07007,38.17,29.07007,38.17h.10986s1.8,5.81,4.88013,16.95c.16992.58.32983,1.17.49,1.78.33,1.2.66992,2.45,1.0299,3.75v.02c.18006.65.35,1.32.54,1.99,1.57,5.82,3.36,12.64,5.33,20.41v.02q.63006,2.505,1.3,5.13v.01995c1.1,4.39,2.25,9.07,3.45,14.01.48,1.98.97,4.01,1.45,6.08q1.38026,5.805,2.83008,12.05.87012,3.75,1.76,7.65v.02q1.96509,8.68506,4.04,18.13c.28,1.27.55993,2.54.82995,3.83Q445.39021,491.616,448.885,508.906Z"/><path fill="#3f3f3f" d="M448.895,508.906H63.105q1.74024-8.63993,3.45007-16.8c.28-1.36.55994-2.72.85-4.06q1.26014-6.02994,2.52-11.79.82507-3.855,1.65-7.58.80988-3.72,1.62-7.31v-.01q.81006-3.59994,1.6-7.06v-.02q.78-3.465,1.55994-6.8c.51-2.24,1.03-4.44,1.53-6.6.51-2.14,1-4.24,1.5-6.3q1.47-6.21,2.86011-11.89c.7-2.83,1.37988-5.57,2.04-8.2V414.466q.65991-2.64,1.29992-5.13v-.02c1.97-7.77,3.76-14.59,5.33-20.41.18-.68.36011-1.34.54-1.99v-.02c.35-1.31.7-2.56,1.03-3.75.15991-.61005.31994-1.2.49-1.78,3.07995-11.17,4.87988-16.99,4.87988-16.99,4.81006-28.85,27.05005-38.17,27.05005-38.17l54.37012-16.93.07983-.02,21.78-6.78.02.03,12.37012,18.52.01.01,4.99,7.46,7.22,10.8,4.28,6.41,11.88989,17.79,11.79,17.64,12.22-17.47,13.51-19.31,6.88-9.83.01-.01,6.13-8.77,6.81006-9.74v-.02l9.45-13.48.02-.03,23.32995,7.26,52.9,16.47c21.42993,9.92,29.07007,38.17,29.07007,38.17h.10986s1.8,5.82,4.88013,16.99c.16992.58.32983,1.17.49,1.78.33,1.19.67993,2.44,1.0299,3.75v.02c.18006.65.36,1.31.54,1.99,1.57,5.82,3.36,12.64,5.33,20.41v.02q.64508,2.49,1.3,5.13v.01995c1.1,4.39,2.25,9.07,3.45,14.01.48,1.98.97,4.01,1.45,6.08q1.38026,5.805,2.83008,12.05.87012,3.75,1.76,7.65v.02q1.9801,8.68506,4.04,18.13c.28,1.27.55993,2.54.82995,3.83Q445.405,491.616,448.895,508.906Z"/><polygon fill="#e8e9ea" points="210.741 296.782 221.836 393.309 255.228 457.618 298.564 368.965 299.524 296.782 255.157 308.541 210.741 296.782"/><polygon fill="#577fff" points="246.498 339.252 229.682 428.195 255.228 457.618 273.254 436.805 263.21 336.506 246.498 339.252"/><path fill="#b86a55" d="M246.62539,278.57511c24.56959-4.2827,42.755-32.74823,42.755-32.74823s-24.36643-2.00622-39.60536-6.44607H220.49053v36.8475a27.51058,27.51058,0,0,1-.74217,6.31521l-.00068.03853S222.0555,282.85782,246.62539,278.57511Z"/><path fill="#e9966e" d="M325.02786,174.52853a10.69734,10.69734,0,0,0-4.49763-.86731c2.60047-37.18444-13.20006-68.92161-39.14705-74.55145-26.01929-5.64552-53.6363,16.82662-66.63577,51.91242a10.89565,10.89565,0,0,0-5.369-1.58664c-8.38107-.146-15.35091,9.82631-15.56762,22.27343-.20921,12.01171,5.95256,21.91033,13.91528,22.7214,1.49818,29.91439,7.04928,53.87,25.93347,61.79085,5.07616,2.12917,10.45125.03472,14.65885.94766,4.16322.90331,8.41885,5.57389,12.17668,5.07533,22.75084-3.0184,35.34076-19.14541,48.63729-45.743,7.37142,1.509,16.304-4.82889,20.83238-15.25023C334.92614,189.83328,332.7158,177.8691,325.02786,174.52853Z"/><path fill="#38101b" d="M239.09443 173.03656c4.83469 0 4.8427-7.51369 0-7.51369-4.8347 0-4.84271 7.51369 0 7.51369zM256.90633 157.02989a37.52741 37.52741 0 01-8.26379-1.64193c-1.3197-.39894-2.61365-.85368-3.89209-1.34239l-1.86121-.73822q-.84429-.34575-1.71264-.62243a34.38692 34.38692 0 00-7.19739-1.53719c-.62695-.07146-1.26038-.11462-1.90479-.15814-.6781-.03147-1.38464-.07416-2.07861-.13306a29.06521 29.06521 0 01-4.22705-.65678 29.07057 29.07057 0 013.889-1.78166c.65893-.24471 1.30444-.48028 1.97986-.69175a16.76042 16.76042 0 012.175-.51378 18.64749 18.64749 0 018.94226.72c.71411.25533 1.42468.52264 2.10949.84757.70179.34216 1.24695.622 1.86719.95961 1.20276.65289 2.39 1.33975 3.55151 2.08242A37.52706 37.52706 0 01256.90633 157.02989zM279.50655 162.27271a37.5282 37.5282 0 018.37854-.88726c1.37866-.01113 2.74927.03865 4.11512.12553.70483.044 1.3153.097 2.09155.18047.75281.08915 1.4967.2407 2.23718.40429a18.64774 18.64774 0 017.95544 4.14653 16.7602 16.7602 0 011.56861 1.59189c.45947.53836.88086 1.08118 1.30859 1.63883a29.06457 29.06457 0 012.34571 3.57725 29.0633 29.0633 0 01-3.92884-1.69208c-.619-.31926-1.24-.65887-1.831-.99292-.56885-.30587-1.12805-.60621-1.69715-.87921a34.38659 34.38659 0 00-6.91235-2.52639q-.88219-.22608-1.78149-.38386l-1.96875-.36479c-1.34241-.26608-2.68006-.56924-4.00977-.93332A37.52732 37.52732 0 01279.50655 162.27271z"/><ellipse cx="321.59" cy="195.791" fill="#b86a55" rx="13.117" ry="5.265" transform="rotate(-70.476 321.59 195.791)"/><ellipse cx="204.618" cy="170.411" fill="#b86a55" rx="13.117" ry="5.265" transform="rotate(-85.04 204.618 170.411)"/><path fill="#b86a55" d="M214.7474 151.02218c-.40845 3.68445-.968 7.314-1.56946 10.93106l-1.86523 10.818c-.35083 1.79364-.64356 3.59542-.96314 5.3928l-.94153 5.39412c-.59656 3.60369-1.18921 7.198-1.68188 10.87222a52.18741 52.18741 0 01-.25916-11.10111 102.57862 102.57862 0 011.38147-10.99713c.665-3.63086 1.45081-7.23533 2.427-10.79257A87.99865 87.99865 0 01214.7474 151.02218zM320.76949 174.02629a87.9703 87.9703 0 01-1.19909 11.01052c-.58582 3.642-1.36451 7.24793-2.26416 10.82792a102.54746 102.54746 0 01-3.3003 10.58078 52.18941 52.18941 0 01-4.83655 9.99548c1.07435-3.548 2.02454-7.06476 2.97522-10.59158l1.37854-5.29932c.45411-1.76819.93445-3.52927 1.35852-5.307l2.78589-10.61822C318.61922 181.08378 319.61422 177.5487 320.76949 174.02629z"/><path fill="#38101b" d="M282.77511 180.50062a6.69285 6.69285 0 013.2157-2.54674 6.27069 6.27069 0 014.41076-.08128 6.63723 6.63723 0 013.35523 2.82278 11.02154 11.02154 0 01.83374 1.90226 11.86222 11.86222 0 01.2749 2.02377 14.84561 14.84561 0 01-1.3523-1.43076c-.4624-.42593-.85974-.88427-1.29248-1.263a8.40175 8.40175 0 00-2.66552-1.69867 7.18185 7.18185 0 00-3.10535-.36694A24.46988 24.46988 0 00282.77511 180.50062zM232.853 167.92549a6.69269 6.69269 0 012.90283-2.89838 6.27039 6.27039 0 014.37231-.58611 6.63778 6.63778 0 013.65662 2.41977 11.02446 11.02446 0 011.04614 1.79422 11.85271 11.85271 0 01.50489 1.97895 14.84405 14.84405 0 01-1.50721-1.26641c-.50817-.37014-.95544-.77995-1.42871-1.10659a8.40169 8.40169 0 00-2.84265-1.38209 7.18189 7.18189 0 00-3.12695-.00872A24.47345 24.47345 0 00232.853 167.92549z"/><path fill="#fdffff" d="M233.92645,208.03581s35.99629,5.31582,42.31592,9.6617c0,0-18.1497,7.16942-21.67621,5.67014S233.92645,208.03581,233.92645,208.03581Z"/><path fill="#d7645d" d="M233.92638,208.03567s6.77871,17.20641,19.83451,18.73787,22.48165-9.076,22.48165-9.076a47.83065,47.83065,0,0,1-42.31616-9.66184Z"/><path fill="#a75844" d="M233.92645,208.03581s15.5911-3.71514,42.31592,9.6617C276.24237,217.69751,257.43608,213.7366,233.92645,208.03581Z"/><path fill="#350313" d="M259.3138,201.2396a8.07154,8.07154,0,0,1-.85962,3.10526,11.8599,11.8599,0,0,1-1.80529,2.70621,15.15381,15.15381,0,0,1-5.41529,3.82382,17.96532,17.96532,0,0,1-6.51794,1.375c-.54858.01608-1.09839.009-1.6499.00287-.36853.0209-.6908.01568-1.03565.02069-.66638-.03714-1.382.05371-2.07068.03753-2.8125.14-5.81274.35013-9.03332.60932-1.62561.09131-3.28308.24237-5.02295.35983-.45166.01263-.87451.06238-1.31958.09488-.46362.01871-.8866.07632-1.34961.10959-.476.038-.88892.09518-1.38635.15753-.22168.02933-.45117.07111-.6991.12653a3.43856,3.43856,0,0,0-.70654.26913,2.31386,2.31386,0,0,1,.011-.84021c.056-.26517.12537-.54941.21167-.83621a9.92383,9.92383,0,0,1,.69226-1.4848,15.02914,15.02914,0,0,1,1.841-2.57407,21.08663,21.08663,0,0,1,4.66406-3.92511,23.87006,23.87006,0,0,1,11.67126-3.58429,23.4129,23.4129,0,0,1,3.227.13171c.53638.07145,1.09522.1326,1.60792.22.32958.061.66088.12115.9934.20443a38.15262,38.15262,0,0,0,4.0271.673A25.545,25.545,0,0,0,259.3138,201.2396Z"/><path fill="#350313" d="M258.21627,201.00147a25.54583,25.54583,0,0,0,8.70837,4.82563,38.152,38.152,0,0,0,3.94385,1.05649c.33716.062.66358.14459.98889.22564.50269.13294,1.03662.3089,1.55432.46616a23.411,23.411,0,0,1,2.99158,1.21759,23.87016,23.87016,0,0,1,9.13635,8.099,21.08715,21.08715,0,0,1,2.6178,5.50506,15.01913,15.01913,0,0,1,.60864,3.10556,9.90805,9.90805,0,0,1,.01465,1.63819c-.04028.29681-.095.58423-.15381.84875a2.31672,2.31672,0,0,1-.33825.76923,3.43588,3.43588,0,0,0-.53162-.53778c-.20251-.15317-.394-.28629-.58374-.40485-.42688-.26291-.77893-.48614-1.19629-.71792-.40771-.2222-.76868-.44989-1.18286-.65909-.3916-.214-.75574-.43454-1.16162-.63324-1.53467-.82794-2.98059-1.65235-4.42212-2.40915-2.82361-1.57065-5.467-3.00525-7.96851-4.29828-.63354-.27072-1.24707-.65-1.869-.89237-.31165-.14746-.60718-.27627-.934-.448-.5044-.223-1.00769-.4444-1.50025-.68637a17.96489,17.96489,0,0,1-5.36194-3.95261,15.154,15.154,0,0,1-3.34362-5.72427,11.85066,11.85066,0,0,1-.52137-3.21106A8.06931,8.06931,0,0,1,258.21627,201.00147Z"/><path fill="#b86a55" d="M271.31691,202.25835a20.89252,20.89252,0,0,1-13.76638,3.26637c.14154.05634.28574.10045.42994.14455l-.88113-.19119c.14951.01963.299.03925.45119.04664a20.82872,20.82872,0,0,1-11.05285-8.47211Z"/><polygon fill="#d2d3d5" points="213.661 286.652 210.786 296.823 228.696 347.676 255.228 308.541 213.661 286.652"/><polygon fill="#d2d3d5" points="296.725 286.652 299.599 296.823 281.69 347.676 255.157 308.541 296.725 286.652"/><path fill="#338aca" d="M237.68821,334.41182s19.2061,15.61837,34.136-1.2874l-16.66676-24.58349Z"/><path fill="#595959" d="M210.74143 296.78242L178.20767 309.706l-9.84341 26.74871 29.75418 6.85888-19.91077 25.59362 77.02013 88.71122S227.57208 368.91378 210.74143 296.78242zM299.52378 296.78242L332.05754 309.706l9.84341 26.74871-29.75418 6.85888 19.91077 25.59362L255.2278 457.61839S282.69313 368.91378 299.52378 296.78242z"/><polygon fill="#595959" points="120.374 508.782 125.365 459.716 125.377 509.03 120.374 508.782"/><polygon fill="#595959" points="388.995 459.716 393.987 508.782 388.984 509.03 388.995 459.716"/><path fill="#350313" d="M213.28966,165.34759l14.29417-32.58351L223.512,117.7749l-10.44823,3.75794S210.92533,147.14227,213.28966,165.34759Z"/><path fill="#38101b" d="M318.81351,153.25694a57.91355,57.91355,0,0,0-4.89443-18.96958c-3.50677-7.59117-9.11436-14.94079-15.47286-5.1274-10.709,16.52781-24.86666,37.54558-74.08673,2.3605a34.1791,34.1791,0,0,1-17.17857-23.5009s9.493,4.96974,19.13257-9.23346,61.519-56.72585,102.75481,3.37368c0,0,20.89988,1.057,15.27408,30.65522s-10.43921,51.88657-31.21827,70.691C313.12411,203.506,321.538,182.55377,318.81351,153.25694Z"/></g><path fill="#e9966e" d="M324.62475,174.68959a10.69734,10.69734,0,0,0-4.49763-.86731c2.60047-37.18444-13.20006-68.92161-39.147-74.55144-26.01929-5.64553-53.6363,16.82661-66.63577,51.91241a10.89565,10.89565,0,0,0-5.369-1.58664c-8.38107-.146-15.35091,9.82631-15.56762,22.27343-.20921,12.01171,5.95256,21.91033,13.91528,22.7214,1.49818,29.91439,7.04928,53.87,25.93347,61.79085,5.07616,2.12917,10.45125.03472,14.65885.94766,4.16322.90332,8.41885,5.57389,12.17668,5.07533,22.75084-3.01839,35.34076-19.14541,48.63729-45.74305,7.37142,1.509,16.304-4.82889,20.83238-15.25023C334.523,189.99434,332.31269,178.03016,324.62475,174.68959Z"/><path fill="#38101b" d="M238.69132 173.19762c4.83469 0 4.8427-7.51369 0-7.51369-4.8347 0-4.84271 7.51369 0 7.51369zM256.50326 157.19094a37.52937 37.52937 0 01-8.26392-1.64192c-1.31958-.39894-2.61365-.85367-3.892-1.34239l-1.8612-.73822q-.8443-.34573-1.71265-.62244a34.38866 34.38866 0 00-7.19739-1.53717c-.62707-.07147-1.26037-.11464-1.90478-.15816-.6781-.03146-1.38465-.07415-2.07862-.133a29.06433 29.06433 0 01-4.227-.6568 29.068 29.068 0 013.889-1.78166c.65894-.24469 1.30432-.48027 1.97986-.69174a16.76036 16.76036 0 012.17493-.51376 18.64748 18.64748 0 018.94238.72c.71411.25531 1.42456.52265 2.1095.84757.70178.34214 1.24682.622 1.86718.95959 1.20276.65289 2.39 1.33977 3.55152 2.08245A37.5315 37.5315 0 01256.50326 157.19094zM279.10348 162.43377a37.52933 37.52933 0 018.37854-.88727c1.37854-.01112 2.74926.03867 4.11511.12554.70483.044 1.31531.097 2.09143.18046.75293.08916 1.4967.24071 2.2373.4043a18.64784 18.64784 0 017.95545 4.14653 16.7468 16.7468 0 011.56848 1.59189c.45959.53836.88086 1.08118 1.30872 1.63884a29.07748 29.07748 0 012.3457 3.57724 29.06382 29.06382 0 01-3.92883-1.69206c-.61914-.31928-1.24012-.65888-1.83106-.99294-.56885-.30588-1.12817-.6062-1.69714-.8792a34.3886 34.3886 0 00-6.91248-2.52641q-.882-.22607-1.78137-.38385l-1.96875-.36479c-1.34241-.26608-2.68-.56924-4.00977-.93332A37.52613 37.52613 0 01279.10348 162.43377z"/><ellipse cx="321.187" cy="195.952" fill="#b86a55" rx="13.117" ry="5.265" transform="rotate(-70.476 321.187 195.952)"/><ellipse cx="204.215" cy="170.572" fill="#b86a55" rx="13.117" ry="5.265" transform="rotate(-85.04 204.215 170.572)"/><path fill="#b86a55" d="M214.34432 151.18325c-.40845 3.68444-.968 7.314-1.56946 10.931l-1.86523 10.818c-.35083 1.79366-.64356 3.59543-.96314 5.39279l-.94165 5.39414c-.59643 3.6037-1.18908 7.198-1.68188 10.87222a52.19457 52.19457 0 01-.259-11.1011 102.54256 102.54256 0 011.38147-10.99714c.665-3.63087 1.45068-7.23533 2.427-10.79258A87.95305 87.95305 0 01214.34432 151.18325zM320.36642 174.18736a87.99063 87.99063 0 01-1.1991 11.0105c-.58582 3.642-1.36462 7.248-2.26416 10.82794a102.54953 102.54953 0 01-3.30029 10.58078 52.19057 52.19057 0 01-4.83655 9.99548c1.07422-3.548 2.02453-7.06476 2.97522-10.59161l1.37854-5.29932c.4541-1.76819.93432-3.52927 1.35852-5.307l2.78589-10.61825C318.21615 181.24482 319.21114 177.70976 320.36642 174.18736z"/><path fill="#38101b" d="M282.372 180.66166a6.69228 6.69228 0 013.2157-2.54671 6.27065 6.27065 0 014.41077-.08129 6.63775 6.63775 0 013.35522 2.82276 11.02239 11.02239 0 01.83374 1.90229 11.86222 11.86222 0 01.2749 2.02377 14.84338 14.84338 0 01-1.35229-1.43079c-.4624-.4259-.85974-.88427-1.29248-1.263a8.403 8.403 0 00-2.66553-1.69867 7.18215 7.18215 0 00-3.10547-.36694A24.47243 24.47243 0 00282.372 180.66166zM232.44991 168.08656a6.6929 6.6929 0 012.90271-2.89839 6.27085 6.27085 0 014.37244-.58611 6.63707 6.63707 0 013.65649 2.41977 11.01615 11.01615 0 011.04627 1.79422 11.86423 11.86423 0 01.50488 1.979 14.84524 14.84524 0 01-1.5072-1.26642c-.50818-.37015-.95545-.78-1.42883-1.10658a8.40218 8.40218 0 00-2.84253-1.3821 7.182 7.182 0 00-3.127-.00873A24.46934 24.46934 0 00232.44991 168.08656z"/><path fill="#fdffff" d="M233.52334,208.19688s35.99629,5.31581,42.31592,9.66169c0,0-18.1497,7.16942-21.67621,5.67015S233.52334,208.19688,233.52334,208.19688Z"/><path fill="#d7645d" d="M233.52327,208.19673s6.77871,17.20641,19.83451,18.73787,22.48165-9.076,22.48165-9.076a47.83065,47.83065,0,0,1-42.31616-9.66184Z"/><path fill="#a75844" d="M233.52334,208.19688s15.5911-3.71514,42.31592,9.66169C275.83926,217.85857,257.033,213.89766,233.52334,208.19688Z"/><path fill="#350313" d="M258.91073,201.40068a8.072,8.072,0,0,1-.85974,3.10525,11.85551,11.85551,0,0,1-1.80518,2.70621,15.15439,15.15439,0,0,1-5.4154,3.82382,17.96485,17.96485,0,0,1-6.518,1.375c-.54846.01608-1.09827.009-1.64978.00287-.36853.02087-.6908.01568-1.03564.02066-.66639-.03711-1.382.05371-2.07068.03757-2.8125.14-5.81275.35009-9.03345.60928-1.62549.09131-3.28308.24237-5.02283.35983-.45178.01264-.87451.06238-1.31958.09491-.46362.01871-.88659.07629-1.34961.10959-.476.038-.88891.09518-1.38635.15753-.2218.02933-.45117.07108-.6991.12653a3.43767,3.43767,0,0,0-.70654.2691,2.31366,2.31366,0,0,1,.011-.84021c.05591-.26517.12536-.54938.21167-.83621a9.91372,9.91372,0,0,1,.69226-1.4848,15.02255,15.02255,0,0,1,1.84094-2.57407,21.08965,21.08965,0,0,1,4.66394-3.92508A23.87064,23.87064,0,0,1,239.13,200.95414a23.41471,23.41471,0,0,1,3.22717.13172c.53638.07144,1.09521.13259,1.60791.22.32959.061.66077.12115.99341.20443a38.14716,38.14716,0,0,0,4.027.673A25.54609,25.54609,0,0,0,258.91073,201.40068Z"/><path fill="#350313" d="M257.81319,201.16255a25.54449,25.54449,0,0,0,8.70838,4.82559,38.13334,38.13334,0,0,0,3.94372,1.05649c.33728.06207.6637.14462.98889.22567.50281.13291,1.03675.3089,1.55445.46616a23.40777,23.40777,0,0,1,2.99158,1.21759,23.86971,23.86971,0,0,1,9.13623,8.099,21.08419,21.08419,0,0,1,2.61792,5.50507,15.02716,15.02716,0,0,1,.60864,3.10556,9.9364,9.9364,0,0,1,.01465,1.63818c-.04029.29681-.095.5842-.15393.84875a2.31182,2.31182,0,0,1-.33826.7692,3.43484,3.43484,0,0,0-.5315-.53775c-.20263-.15317-.39416-.28629-.58374-.40488-.42688-.26288-.779-.48614-1.19641-.71789-.40759-.22223-.76867-.44992-1.18286-.65909-.39148-.21405-.75574-.43454-1.1615-.63324-1.53479-.82794-2.98059-1.65238-4.42212-2.40915-2.8236-1.57065-5.467-3.00528-7.96862-4.29831-.63343-.27069-1.24695-.64993-1.8689-.89233-.31177-.14746-.60718-.27628-.934-.448-.50439-.223-1.00781-.44443-1.50024-.68637a17.96527,17.96527,0,0,1-5.36207-3.95261,15.152,15.152,0,0,1-3.3435-5.7243,11.85507,11.85507,0,0,1-.52149-3.211A8.07159,8.07159,0,0,1,257.81319,201.16255Z"/><path fill="#b86a55" d="M270.9138,202.41941a20.89252,20.89252,0,0,1-13.76638,3.26637c.14154.05634.28574.10045.42994.14455l-.88113-.19119c.14951.01963.299.03926.45119.04664a20.82872,20.82872,0,0,1-11.05285-8.47211Z"/><path fill="#350313" d="M212.88655,165.50865l14.29417-32.5835L223.10884,117.936l-10.44823,3.75794S210.52222,147.30333,212.88655,165.50865Z"/><path fill="#38101b" d="M318.4104,153.418a57.91355,57.91355,0,0,0-4.89443-18.96958c-3.50677-7.59116-9.11436-14.94079-15.47286-5.1274-10.709,16.52781-24.86666,37.54558-74.08673,2.3605a34.1791,34.1791,0,0,1-17.17857-23.5009s9.493,4.96974,19.13257-9.23346,61.519-56.72585,102.75481,3.37368c0,0,20.89988,1.057,15.27408,30.65522s-10.43921,51.88657-31.21827,70.691C312.721,203.66709,321.1349,182.71483,318.4104,153.418Z"/><g clip-path="url(#c)"><rect width="299.794" height="52.92" x="97.029" y="-74.592" fill="none" stroke="#fff" stroke-miterlimit="10" stroke-width="3" transform="rotate(30.511 246.926 -48.132)"/><rect width="57.24" height="149.025" x="331.253" y="-103.086" fill="none" stroke="#fff" stroke-miterlimit="10" stroke-width="3" transform="rotate(30.511 359.873 -28.573)"/></g></svg>