<svg xmlns="http://www.w3.org/2000/svg" xmlns:xlink="http://www.w3.org/1999/xlink" data-name="Layer 1" viewBox="0 0 512 512"><defs><radialGradient id="a" cx="286.742" cy="-452.805" r="10.247" gradientTransform="matrix(1 0 0 1.83673 0 1006.993)" gradientUnits="userSpaceOnUse"><stop offset="0" stop-color="#ec7765"/><stop offset=".349" stop-color="#ec7c66"/><stop offset=".77" stop-color="#ea8b6b"/><stop offset="1" stop-color="#e9966e"/></radialGradient><radialGradient id="c" cx="221.91" cy="-452.805" r="10.247" xlink:href="#a"/><radialGradient id="e" cx="286.418" cy="-453.037" r="10.247" xlink:href="#a"/><radialGradient id="f" cx="221.586" cy="-453.037" r="10.247" xlink:href="#a"/><clipPath id="b"><rect width="429.12" height="285.185" x="41.44" y="-391.522" fill="none"/></clipPath><clipPath id="d"><rect width="429.12" height="285.185" x="41.44" y="172.343" fill="none"/></clipPath></defs><g clip-path="url(#b)"><line x1="502.524" x2="386.018" y1="-262.193" y2="22.323" fill="none" stroke="#fff" stroke-dasharray="19.835 19.835" stroke-miterlimit="10" stroke-width="4"/><line x1="382.259" x2="378.47" y1="31.501" y2="40.755" fill="none" stroke="#fff" stroke-miterlimit="10" stroke-width="4"/><line x1="249.56" x2="245.771" y1="2.701" y2="11.955" fill="none" stroke="#fff" stroke-miterlimit="10" stroke-width="4"/></g><rect width="429.12" height="285.185" x="41.44" y="172.343" fill="#a7db71"/><path fill="#e9966e" d="M312.87384,142.35336a10.68718,10.68718,0,0,0-4.56977.24192c-6.43137-36.68057-29.393-63.649-55.907-62.8606-26.58787.79064-47.95507,29.22917-52.112,66.37862a10.88555,10.88555,0,0,0-5.5878-.24576c-8.16154,1.87633-12.51857,13.22371-9.73182,25.34477,2.68918,11.69706,11.047,19.81132,18.963,18.68057,8.65507,28.64464,19.80522,50.53573,40.02264,53.66919,5.43453.84229,10.142-2.48266,14.44155-2.61051,4.2542-.12651,9.505,3.37752,13.02863,1.98935,21.33274-8.40434,29.65721-27.07253,36.14583-56.06328,7.51074-.31166,14.64593-8.60764,16.52756-19.80257C326.15621,154.80983,321.13246,143.7414,312.87384,142.35336Z"/><path fill="#38101b" d="M242.6093 141.78793a37.49307 37.49307 0 01-8.40808.39763c-1.37561-.06908-2.73975-.19844-4.09692-.36452l-1.9823-.26767q-.902-.132-1.81055-.19116a34.35648 34.35648 0 00-7.34875.24241c-.62513.08168-1.24964.19233-1.885.30529-.665.13276-1.36036.26146-2.04749.37146a29.0401 29.0401 0 01-4.25671.38089 29.04722 29.04722 0 013.34192-2.66388c.57995-.39589 1.149-.77973 1.75317-1.1474a16.7412 16.7412 0 011.98511-1.02182 18.62986 18.62986 0 018.844-1.45491c.75378.07563 1.50708.16375 2.24951.31389.7627.16281 1.35864.30291 2.04138.48089 1.32349.34346 2.6399.72362 3.94495 1.16408A37.49307 37.49307 0 01242.6093 141.78793zM265.78508 141.43a37.49355 37.49355 0 017.91028-2.87759c1.334-.34271 2.675-.62445 4.02027-.86907.694-.127 1.2987-.22264 2.07141-.32858.75146-.09482 1.50915-.127 2.2666-.14664a18.62987 18.62987 0 018.712 2.10511 16.745 16.745 0 011.90418 1.16586c.57519.41136 1.11438.83623 1.66345 1.27394a29.04239 29.04239 0 013.13574 2.90378 29.03829 29.03829 0 01-4.21692-.69472c-.67712-.16051-1.361-.34028-2.0144-.52189-.62524-.15964-1.23987-.31618-1.8573-.44388a34.356 34.356 0 00-7.31067-.78534q-.90966-.00679-1.81958.05673l-1.99683.1203c-1.36572.06523-2.73571.09334-4.11267.06047A37.49246 37.49246 0 01265.78508 141.43z"/><ellipse cx="314.659" cy="163.797" fill="#b86a55" rx="13.105" ry="5.26" transform="rotate(-84.421 314.66 163.797)"/><ellipse cx="195.132" cy="167.352" fill="#b86a55" rx="5.26" ry="13.105" transform="rotate(-8.985 195.132 167.352)"/><path fill="#b86a55" d="M200.28508 146.11331c.49109 3.67082.82239 7.32478 1.11011 10.97673l.796 10.93834c.09168 1.8236.2417 3.64111.36462 5.46081l.38563 5.45693c.28942 3.63778.58007 7.26562.98693 10.94677a52.14151 52.14151 0 01-2.924-10.70138 102.42079 102.42079 0 01-1.30822-10.99556c-.2295-3.68065-.33545-7.36476-.24537-11.049A87.88985 87.88985 0 01200.28508 146.11331zM308.624 142.89166a87.87945 87.87945 0 011.48828 10.96463c.309 3.67233.422 7.35623.41174 11.044a102.43348 102.43348 0 01-.65258 11.05387 52.13648 52.13648 0 01-2.283 10.85621c.18738-3.69882.26208-7.33752.33471-10.98607l.0608-5.47019c.01452-1.8238.05627-3.647.03942-5.47283L308.168 153.915C308.23833 150.25237 308.35186 146.58517 308.624 142.89166z"/><path fill="#38101b" d="M273.34294 158.317a6.68649 6.68649 0 012.50489-3.24356 6.2646 6.2646 0 014.25708-1.14079 6.63155 6.63155 0 013.933 1.92917 11.01444 11.01444 0 011.26636 1.64372 11.85691 11.85691 0 01.75378 1.89609 14.83776 14.83776 0 01-1.65564-1.06171c-.5509-.30167-1.04651-.65041-1.55737-.91341a8.39367 8.39367 0 00-2.99341-1.00529 7.17522 7.17522 0 00-3.09936.39189A24.44926 24.44926 0 00273.34294 158.317zM221.91021 158.14369a6.68637 6.68637 0 012.11669-3.50919 6.265 6.265 0 014.09839-1.621 6.63127 6.63127 0 014.12805 1.46585 11.00922 11.00922 0 011.44642 1.48781 11.852 11.852 0 01.96606 1.79724 14.83033 14.83033 0 01-1.76636-.865c-.58178-.23654-1.11413-.52622-1.65173-.729a8.39431 8.39431 0 00-3.089-.6557 7.17557 7.17557 0 00-3.03406.74441A24.45765 24.45765 0 00221.91021 158.14369z"/><path fill="#350313" d="M325.54268,120.85079a12.12916,12.12916,0,0,0-4.68429-9.23023c-.02713-.14167-.06111-.2774-.08883-.41829a12.1525,12.1525,0,0,0-7.06939-21.31647,12.11876,12.11876,0,0,0-14.69611-15.5027c-.00032-.11351.01044-.22445.007-.33864a12.14669,12.14669,0,0,0-21.91244-6.86305,12.12733,12.12733,0,0,0-19.34324.94328c-.76465-.00293-1.52162.00552-2.27288.02144a12.14,12.14,0,0,0-23.0276,2.084,12.15453,12.15453,0,0,0-18.6188,10.65122c.00949.31943.04233.63229.07576.94482a12.13987,12.13987,0,0,0-15.73837,15.62627,12.11089,12.11089,0,0,0-9.22753,16.351,12.10633,12.10633,0,0,0,.67585,16.39777c.02892.25323.05409.51367.08414.76381a12.13407,12.13407,0,0,0,4.42416,19.34951c3.62417,10.09117,7.78689,14.54443,7.78689,14.54443s-.35031-5.87138-.09126-14.03346a12.139,12.139,0,0,0,5.10607-20.72207,12.08314,12.08314,0,0,0,2.61587-12.86232,12.17446,12.17446,0,0,0,1.5861-2.379,12.121,12.121,0,0,0,17.00906-3.38435,12.094,12.094,0,0,0,13.84529-3.02809,12.12643,12.12643,0,0,0,17.5531,5.69306,12.13722,12.13722,0,0,0,22.51943,5.24315,12.1483,12.1483,0,0,0,11.58612,7.51421,12.15653,12.15653,0,0,0,8.78427,11.317,12.0993,12.0993,0,0,0,3.267,12.53856c1.46209,7.22045,2.51543,12.98567,2.51543,12.98567s2.30584-4.03018,5.025-9.7282c.3732.02328.7494.03478,1.13073.02344a12.14635,12.14635,0,0,0,6.85729-21.91632q.19825-.97843.34123-1.92483A12.1181,12.1181,0,0,0,325.54268,120.85079Z"/><path fill="#fdffff" d="M232.60833,196.77668s36.18229-3.51247,43.35623-.82021c0,0-15.872,11.32141-19.65232,10.71677S232.60833,196.77668,232.60833,196.77668Z"/><path fill="#d7645d" d="M232.60822,196.77656s10.71546,15.05144,23.74325,13.393,19.61325-14.21308,19.61325-14.21308a47.78557,47.78557,0,0,1-43.3565.82013Z"/><path fill="#a75844" d="M232.60833,196.77668s14.22282-7.35607,43.35623-.82021C275.96456,195.95647,256.7761,196.64387,232.60833,196.77668Z"/><path fill="#350313" d="M255.58794,184.07453a8.06289,8.06289,0,0,1-.08594,3.21787,11.84028,11.84028,0,0,1-1.09887,3.05862,15.13854,15.13854,0,0,1-4.33008,5.01148,17.94942,17.94942,0,0,1-5.98877,2.90249c-.528.14765-1.06287.2732-1.599.4-.35242.109-.66614.18155-.99927.26941-.655.12445-1.327.38482-1.99866.535-2.69336.81293-5.55188,1.739-8.61218,2.76572-1.5542.47992-3.125,1.02545-4.78369,1.55825-.43494.121-.83289.271-1.25659.40973-.44507.12976-.84119.28742-1.28223.43119-.45227.15139-.839.30633-1.30627.48654-.20789.08182-.42041.17755-.64734.291a3.43388,3.43388,0,0,0-.62036.43106,2.31331,2.31331,0,0,1-.19165-.81732c-.00953-.27057-.01075-.56286.0039-.86175a9.92153,9.92153,0,0,1,.31372-1.60636,15.0135,15.0135,0,0,1,1.16529-2.93908,21.06759,21.06759,0,0,1,3.57727-4.92878,23.84748,23.84748,0,0,1,10.45361-6.2854,23.39084,23.39084,0,0,1,3.16077-.64929c.53723-.05987,1.09387-.13513,1.61194-.17383.33435-.02017.66992-.04162,1.01257-.041a38.10748,38.10748,0,0,0,4.06665-.317A25.52144,25.52144,0,0,0,255.58794,184.07453Z"/><path fill="#350313" d="M254.46636,184.10789a25.52078,25.52078,0,0,0,9.60559,2.58227,38.09909,38.09909,0,0,0,4.07837.07486c.34192-.021.67822-.01956,1.01318-.01928.51941.00784,1.07959.04989,1.61939.07773a23.39156,23.39156,0,0,1,3.19384.46032,23.84807,23.84807,0,0,1,10.8086,5.65314,21.07021,21.07021,0,0,1,3.86377,4.70749,15.00337,15.00337,0,0,1,1.33777,2.86465,9.908,9.908,0,0,1,.40869,1.58487c.03235.29752.04858.58936.05517.86a2.31223,2.31223,0,0,1-.14282.82727,3.4389,3.4389,0,0,0-.64478-.39346c-.23339-.09974-.45117-.18268-.66357-.252-.47717-.15213-.87231-.28381-1.33289-.40805-.44873-.11731-.85363-.25116-1.30554-.35425-.43115-.11328-.8374-.23938-1.27881-.33435-1.68737-.43329-3.28772-.88452-4.86767-1.27124-3.116-.84308-6.02454-1.59765-8.76135-2.24908-.67945-.11-1.3656-.33-2.027-.41525-.33777-.06794-.65528-.12171-1.01343-.20957-.54285-.09472-1.08423-.18826-1.62-.30429a17.94783,17.94783,0,0,1-6.15064-2.5415,15.13892,15.13892,0,0,1-4.62024-4.7453,11.84216,11.84216,0,0,1-1.27869-2.98792A8.06321,8.06321,0,0,1,254.46636,184.10789Z"/><path fill="#b86a55" d="M267.47152,182.17238a20.87288,20.87288,0,0,1-12.5616,6.48161c.1508.02054.30124.02859.45168.03663l-.90039.02677c.14969-.017.29938-.03393.44871-.0634a20.8091,20.8091,0,0,1-12.75678-5.5535Z"/><ellipse cx="286.742" cy="175.311" fill="url(#a)" rx="13.399" ry="10.134"/><ellipse cx="221.91" cy="175.311" fill="url(#c)" rx="13.399" ry="10.134"/><g clip-path="url(#d)"><rect width="365.76" height="55.977" x="24.88" y="157.658" fill="none" stroke="#fff" stroke-miterlimit="10" stroke-width="3"/><rect width="75.6" height="254.16" x="349.6" y="99.156" fill="none" stroke="#fff" stroke-miterlimit="10" stroke-width="3"/><rect width="189.454" height="26.72" x="304.146" y="293.836" fill="none" stroke="#fff" stroke-miterlimit="10" stroke-width="3"/><rect width="52.589" height="75.45" x="147.22" y="245.105" fill="none" stroke="#fff" stroke-miterlimit="10" stroke-width="3"/><rect width="135.709" height="95.04" x="130.72" y="422.076" fill="none" stroke="#fff" stroke-miterlimit="10" stroke-width="3"/><rect width="44.28" height="215.32" x="30.28" y="307.196" fill="none" stroke="#fff" stroke-miterlimit="10" stroke-width="3"/><rect width="299.794" height="52.92" x="201.366" y="469.596" fill="none" stroke="#fff" stroke-miterlimit="10" stroke-width="3"/><rect width="44.214" height="126.36" x="246.192" y="104.556" fill="none" stroke="#fff" stroke-miterlimit="10" stroke-width="3"/><rect width="57.24" height="149.025" x="429.88" y="381.051" fill="none" stroke="#fff" stroke-miterlimit="10" stroke-width="3"/><rect width="61.047" height="103.68" x="243.099" y="339.996" fill="none" stroke="#fff" stroke-miterlimit="10" stroke-width="3"/><rect width="73" height="64.262" x="184.72" y="293.836" fill="none" stroke="#fff" stroke-miterlimit="10" stroke-width="3"/></g><g clip-path="url(#d)"><path fill="#e9966e" d="M451.96,508.911H60.04l2.92-15.62c18.76-93.83,35.30005-147.26,35.30005-147.26,4.79993-28.83,27.0199-38.14,27.0199-38.14l16.77-5.22,59.39013-18.48a27.26408,27.26408,0,0,0,9.73-5.38995,1.6911,1.6911,0,0,0,.21-.18,27.40345,27.40345,0,0,0,6.39991-8.22,27.05854,27.05854,0,0,0,2.26-6.16v-.01c.06-.26.12011-.51.17-.77.05005-.22.09-.43.13-.65q.1051-.57.17994-1.14c.03-.18.05-.36.07006-.55.03-.26.06006-.53.08008-.79.03-.25.03992-.5.05994-.75v-.1a6.07226,6.07226,0,0,0,.03-.61c.00989-.32.0199-.63.0199-.95v-36.81H289.6v36.81a27.52586,27.52586,0,0,0,9.52,20.8,5.81944,5.81944,0,0,0,.48.41,27.412,27.412,0,0,0,9.33008,5.06L369.3,302.981l.16.05,15.64,4.86c21.41,9.91,29.03,38.14,29.03,38.14h.12S430.78,399.461,449.55,493.291Z"/><path fill="#ed9a72" d="M388.24005,497.041l.73,11.87H123.53l.7301-11.87-61.3-3.75c18.76-93.83,35.30005-147.26,35.30005-147.26,4.79993-28.83,27.0199-38.14,27.0199-38.14l16.77-5.22,59.39013-18.48a27.26408,27.26408,0,0,0,9.73-5.38995,1.6911,1.6911,0,0,0,.21-.18,27.40345,27.40345,0,0,0,6.39991-8.22,27.05854,27.05854,0,0,0,2.26-6.16v-.01c.06-.26.12011-.51.17-.77.05005-.22.09-.43.13-.65q.1051-.57.17994-1.14c.03-.18.05-.36.07006-.55.03-.26.06006-.53.08008-.79.03-.25.03992-.5.05994-.75v-.1a6.07226,6.07226,0,0,0,.03-.61c.00989-.32.0199-.63.0199-.95v-36.81H289.6v36.81a27.52586,27.52586,0,0,0,9.52,20.8,5.81944,5.81944,0,0,0,.48.41,27.412,27.412,0,0,0,9.33008,5.06L369.3,302.981l.16.05,15.64,4.86c21.41,9.91,29.03,38.14,29.03,38.14h.12S430.78,399.461,449.55,493.291Z"/><path fill="#d2d3d5" d="M451.96,508.911H60.04l2.92-15.62c18.76-93.83,35.30005-147.26,35.30005-147.26,4.79993-28.83,27.0199-38.14,27.0199-38.14l16.77-5.22,59.39013-18.48L226.02,320.961l4.29,6.42,23.65,35.39,25.71008-36.75,6.8899-9.86,22.37011-31.97L369.3,302.981l.16.05,15.64,4.86c21.41,9.91,29.03,38.14,29.03,38.14h.12S430.78,399.461,449.55,493.291Z"/><path fill="#b86a55" d="M246.88759,260.26627c24.54643-4.27867,42.71472-32.71737,42.71472-32.71737s-24.34346-2.00433-39.568-6.44H220.77737v36.81277a27.4846,27.4846,0,0,1-.74147,6.30926l-.00069.03848S222.34086,264.54493,246.88759,260.26627Z"/><path fill="#e9966e" d="M312.54939,141.92646a10.68723,10.68723,0,0,0-4.56978.24192c-6.43137-36.68057-29.393-63.649-55.907-62.8606-26.58788.79064-47.95508,29.22917-52.112,66.37862a10.88556,10.88556,0,0,0-5.5878-.24576c-8.16154,1.87633-12.51857,13.22371-9.73183,25.34477,2.68918,11.69706,11.047,19.81132,18.963,18.68058,8.65507,28.64463,19.80522,50.53572,40.02264,53.66919,5.43453.84228,10.142-2.48267,14.44155-2.61052,4.2542-.12651,9.505,3.37752,13.02863,1.98935,21.33274-8.40434,29.65721-27.07253,36.14584-56.06328,7.51073-.31166,14.64592-8.60764,16.52755-19.80257C325.83175,154.38293,320.808,143.3145,312.54939,141.92646Z"/><path fill="#38101b" d="M242.28484 141.361a37.49192 37.49192 0 01-8.40808.39763c-1.37561-.06908-2.73975-.19844-4.09693-.36453l-1.9823-.26767q-.902-.13193-1.81054-.19116a34.35532 34.35532 0 00-7.34876.24243c-.62512.08166-1.24963.19232-1.885.30527-.665.13276-1.36035.26147-2.04748.37147a29.04024 29.04024 0 01-4.25672.38089 29.04808 29.04808 0 013.34192-2.66388c.58-.3959 1.149-.77972 1.75318-1.14741a16.75479 16.75479 0 011.9851-1.02182 18.63026 18.63026 0 018.844-1.4549c.75378.07562 1.50708.16376 2.24951.31389.76269.16281 1.35864.3029 2.04138.4809 1.32349.34346 2.63989.72361 3.945 1.16406A37.49258 37.49258 0 01242.28484 141.361zM265.46062 141.00312a37.49406 37.49406 0 017.91028-2.87758c1.3341-.34271 2.675-.62445 4.02026-.86906.69409-.127 1.29871-.22264 2.07141-.32858.75147-.09482 1.50916-.127 2.2666-.14664a18.62954 18.62954 0 018.712 2.1051 16.74311 16.74311 0 011.90418 1.16587c.57519.41134 1.11438.83622 1.66345 1.27394a29.04322 29.04322 0 013.13574 2.90377 29.04056 29.04056 0 01-4.21692-.69471c-.67712-.16053-1.361-.3403-2.0144-.5219-.62525-.15964-1.23987-.31618-1.8573-.44388a34.35545 34.35545 0 00-7.31067-.78534q-.90967-.00681-1.81958.05672l-1.99683.1203c-1.36572.06523-2.73572.09335-4.11267.06049A37.49243 37.49243 0 01265.46062 141.00312z"/><ellipse cx="314.335" cy="163.371" fill="#b86a55" rx="13.105" ry="5.26" transform="rotate(-84.421 314.335 163.37)"/><ellipse cx="194.808" cy="166.925" fill="#b86a55" rx="5.26" ry="13.105" transform="rotate(-8.985 194.808 166.925)"/><path fill="#b86a55" d="M199.96062 145.6864c.49109 3.67082.82239 7.32479 1.11011 10.97674l.796 10.93834c.09179 1.82361.2417 3.64111.36462 5.46082l.38574 5.45691c.28931 3.63778.58 7.26562.98682 10.94677A52.14087 52.14087 0 01200.68 178.7646a102.41973 102.41973 0 01-1.30823-10.99555c-.22937-3.68065-.33545-7.36476-.24536-11.04895A87.89015 87.89015 0 01199.96062 145.6864zM308.29949 142.46476a87.88132 87.88132 0 011.48828 10.96463c.309 3.67232.422 7.35622.41174 11.044a102.43594 102.43594 0 01-.65259 11.05388 52.13588 52.13588 0 01-2.283 10.8562c.18738-3.69882.26209-7.33752.33472-10.98605l.06079-5.4702c.01453-1.82379.05628-3.647.03943-5.47284l.14465-10.96631C307.91387 149.82548 308.02739 146.15827 308.29949 142.46476z"/><path fill="#38101b" d="M273.01848 157.89015a6.68634 6.68634 0 012.50488-3.24356 6.26464 6.26464 0 014.25708-1.1408 6.63152 6.63152 0 013.933 1.92917 11.01341 11.01341 0 011.26636 1.64372 11.85691 11.85691 0 01.75378 1.89609 14.83256 14.83256 0 01-1.65564-1.06172c-.5509-.30165-1.04651-.65039-1.55737-.91341a8.39384 8.39384 0 00-2.99341-1.00528 7.17512 7.17512 0 00-3.09937.3919A24.44563 24.44563 0 00273.01848 157.89015zM221.58574 157.71679a6.68642 6.68642 0 012.1167-3.50918 6.26508 6.26508 0 014.09851-1.621 6.63115 6.63115 0 014.12793 1.46587 11.00737 11.00737 0 011.44641 1.48781 11.8529 11.8529 0 01.96607 1.79724 14.82958 14.82958 0 01-1.76636-.865c-.58179-.23655-1.11414-.52621-1.65173-.729a8.39419 8.39419 0 00-3.089-.6557 7.17529 7.17529 0 00-3.03406.74442A24.45824 24.45824 0 00221.58574 157.71679z"/><path fill="#350313" d="M325.21823,120.42389a12.1292,12.1292,0,0,0-4.6843-9.23023c-.02713-.14166-.06111-.2774-.08883-.41829a12.15249,12.15249,0,0,0-7.06939-21.31647A12.11876,12.11876,0,0,0,298.6796,73.9562c-.00032-.11351.01044-.22445.007-.33864a12.1467,12.1467,0,0,0-21.91245-6.86305,12.12733,12.12733,0,0,0-19.34324.94328c-.76465-.00293-1.52162.00552-2.27287.02144a12.14,12.14,0,0,0-23.02761,2.084,12.15453,12.15453,0,0,0-18.6188,10.65123c.0095.31943.04233.63228.07576.94481a12.13985,12.13985,0,0,0-15.73836,15.62627,12.11089,12.11089,0,0,0-9.22754,16.351,12.10632,12.10632,0,0,0,.67586,16.39777c.02892.25323.05408.51367.08413.76381a12.13406,12.13406,0,0,0,4.42417,19.34951c3.62417,10.09117,7.78688,14.54443,7.78688,14.54443s-.35031-5.87137-.09126-14.03346a12.139,12.139,0,0,0,5.10608-20.72207,12.08315,12.08315,0,0,0,2.61586-12.86232,12.17446,12.17446,0,0,0,1.5861-2.379,12.121,12.121,0,0,0,17.00906-3.38435,12.094,12.094,0,0,0,13.84529-3.02808,12.12643,12.12643,0,0,0,17.5531,5.693,12.13723,12.13723,0,0,0,22.51944,5.24315,12.14828,12.14828,0,0,0,11.58611,7.51421,12.15653,12.15653,0,0,0,8.78427,11.317,12.0993,12.0993,0,0,0,3.267,12.53856c1.46209,7.22045,2.51543,12.98567,2.51543,12.98567s2.30585-4.03018,5.02505-9.7282c.37319.02328.74939.03478,1.13073.02344a12.14635,12.14635,0,0,0,6.85728-21.91632q.19825-.97844.34124-1.92483A12.11816,12.11816,0,0,0,325.21823,120.42389Z"/><path fill="#fdffff" d="M232.28387,196.34978s36.1823-3.51247,43.35623-.82021c0,0-15.872,11.32141-19.65231,10.71677S232.28387,196.34978,232.28387,196.34978Z"/><path fill="#d7645d" d="M232.28376,196.34966s10.71547,15.05144,23.74325,13.393,19.61325-14.21308,19.61325-14.21308a47.78557,47.78557,0,0,1-43.3565.82013Z"/><path fill="#a75844" d="M232.28387,196.34978s14.22283-7.35607,43.35623-.82021C275.6401,195.52957,256.45164,196.217,232.28387,196.34978Z"/><path fill="#350313" d="M255.26348,183.64765a8.06292,8.06292,0,0,1-.08594,3.21787,11.83994,11.83994,0,0,1-1.09888,3.05862,15.13851,15.13851,0,0,1-4.33008,5.01145,17.94809,17.94809,0,0,1-5.98877,2.90249c-.52795.14768-1.06286.2732-1.599.4-.35242.109-.66614.18152-.99927.26941-.655.12445-1.327.38479-1.99866.53494-2.69336.81293-5.55188,1.739-8.61218,2.76575-1.5542.47992-3.125,1.02545-4.78369,1.55822-.43494.121-.83289.27106-1.2566.40973-.44506.12976-.84118.28745-1.28222.43122-.45227.15136-.839.3063-1.30628.48651-.20788.08182-.42041.17758-.64734.291a3.43283,3.43283,0,0,0-.62036.43109,2.31405,2.31405,0,0,1-.19165-.81732c-.00952-.2706-.01074-.56289.00391-.86178a9.92153,9.92153,0,0,1,.31372-1.60636,15.01484,15.01484,0,0,1,1.16528-2.93908,21.06708,21.06708,0,0,1,3.57727-4.92875,23.84757,23.84757,0,0,1,10.45362-6.28543,23.39069,23.39069,0,0,1,3.16076-.64929c.53724-.05984,1.09388-.13513,1.61194-.1738.33435-.02017.66992-.04162,1.01258-.041a38.10779,38.10779,0,0,0,4.06665-.317A25.52255,25.52255,0,0,0,255.26348,183.64765Z"/><path fill="#350313" d="M254.14189,183.681a25.52083,25.52083,0,0,0,9.6056,2.58227,38.10672,38.10672,0,0,0,4.07836.07483c.34192-.021.67823-.01956,1.01319-.01925.51941.00781,1.07959.04986,1.61938.0777a23.39482,23.39482,0,0,1,3.19385.46032,23.848,23.848,0,0,1,10.80859,5.65317,21.06859,21.06859,0,0,1,3.86377,4.70749,15.00188,15.00188,0,0,1,1.33777,2.86462,9.90732,9.90732,0,0,1,.40869,1.5849c.03235.29749.04859.58933.05518.86a2.31221,2.31221,0,0,1-.14282.82727,3.43734,3.43734,0,0,0-.64478-.39343c-.2334-.09974-.45117-.18271-.66357-.252-.47718-.15213-.87232-.28381-1.33289-.40805-.44873-.11731-.85351-.25116-1.30554-.35425-.43115-.11325-.8374-.23938-1.27869-.33432-1.6875-.43329-3.28784-.88452-4.86779-1.27124-3.116-.84308-6.02454-1.59765-8.76136-2.24911-.67944-.11-1.3656-.32993-2.027-.41525-.33777-.06791-.65528-.12171-1.01343-.20957-.54285-.09473-1.08423-.18826-1.62-.30429a17.94786,17.94786,0,0,1-6.15063-2.5415,15.13892,15.13892,0,0,1-4.62024-4.7453,11.84123,11.84123,0,0,1-1.27869-2.98792A8.06324,8.06324,0,0,1,254.14189,183.681Z"/><path fill="#b86a55" d="M267.14706,181.74548a20.87288,20.87288,0,0,1-12.5616,6.48161c.15081.02054.30124.02859.45168.03663l-.90039.02678c.14969-.017.29939-.03394.44871-.06341a20.8091,20.8091,0,0,1-12.75678-5.5535Z"/><ellipse cx="286.418" cy="174.884" fill="url(#e)" rx="13.399" ry="10.134"/><ellipse cx="221.586" cy="174.884" fill="url(#f)" rx="13.399" ry="10.134"/><polygon fill="#577fff" points="388.97 508.911 123.53 508.911 124.26 497.041 142.05 302.671 211.08 278.541 211.38 278.621 255.41 290.251 255.46 290.241 299.12 278.721 299.81 278.541 369.3 302.981 369.46 303.031 388.24 497.041 388.97 508.911"/><polygon fill="#d2d3d5" points="213.954 268.38 211.082 278.541 228.975 329.346 255.482 290.248 213.954 268.38"/><polygon fill="#d2d3d5" points="296.94 268.38 299.811 278.541 281.919 329.346 255.412 290.248 296.94 268.38"/><path fill="#e25050" d="M237.95884,316.09471s19.188,15.60365,34.10386-1.28619l-16.65106-24.56031Z"/></g></svg>