<svg xmlns="http://www.w3.org/2000/svg" xmlns:xlink="http://www.w3.org/1999/xlink" data-name="Layer 1" viewBox="0 0 512 512"><defs><radialGradient id="a" cx="284.034" cy="-433.762" r="10.247" gradientTransform="matrix(1 0 0 1.83673 0 1006.993)" gradientUnits="userSpaceOnUse"><stop offset="0" stop-color="#ec7765"/><stop offset=".332" stop-color="#ef8973"/><stop offset=".996" stop-color="#f8b997"/><stop offset="1" stop-color="#f8b997"/></radialGradient><radialGradient id="c" cx="219.202" cy="-433.762" r="10.247" xlink:href="#a"/><clipPath id="b"><rect width="429.12" height="285.18" x="41.44" y="172.348" fill="none"/></clipPath></defs><rect width="429.12" height="285.18" x="41.44" y="172.348" fill="#ff7e84"/><g clip-path="url(#b)"><path fill="none" stroke="#fff" stroke-miterlimit="10" stroke-width="3" d="M42.34917,238.19948S135.914,133.5712,230.61869,159.96534s187.1537,97.93334,239.85048,103.68093"/><path fill="none" stroke="#fff" stroke-miterlimit="10" stroke-width="3" d="M145.20481,124.49994S106.4273,155.5046,110.76337,263.64627s-23.6942,243.83321-23.6942,243.83321"/><path fill="none" stroke="#fff" stroke-miterlimit="10" stroke-width="3" d="M41.34917,510.21876S199.2627,322.06278,311.253,303.17113,470.46917,122.271,470.46917,122.271"/><path fill="none" stroke="#fff" stroke-miterlimit="10" stroke-width="3" d="M271.04859 119.6582s60.03478 145.90128 84.51478 222.22128 112.32 82.08 112.32 82.08M470.65083 316.24488s-350.03255 89.74394-429.12 18.08927"/></g><circle cx="209.224" cy="248.789" r="35.812" fill="#350313"/><path fill="#f8b997" d="M433.58008,457.52848H78.10986q2.28-9.93,4.40015-18.78c10.35986-43.26,17.6499-66.81,17.6499-66.81a53.70546,53.70546,0,0,1,8.06006-20.98c8.03-12.19,18.57007-16.6,18.57007-16.6l25.2-7.85,49.84985-15.51a27.12248,27.12248,0,0,0,8.58008-4.48c.48-.38.9502-.76,1.3999-1.17a26.99084,26.99084,0,0,0,5.89014-7.51,26.40469,26.40469,0,0,0,2.4502-6.5v-.01c.05957-.25.10986-.5.16992-.75994q.16479-.75.27-1.53c.04-.26.07959-.52.1001-.78.08984-.73.1499-1.47.16992-2.21.00976-.31.02-.63.02-.94v-36.27H288.71v36.27a27.18332,27.18332,0,0,0,10.06006,21.08c.06006.05.12012.1.18994.15a27.03175,27.03175,0,0,0,8.79981,4.66l56.95019,17.73,18.1001,5.63a42.23207,42.23207,0,0,1,13.0498,9.66c7.06983,7.52,11.39991,16.61,13.64014,22.33.06982.19.1499.38.21973.56.09033.24.18017.47.26025.69.98975,2.67,1.43994,4.34,1.43994,4.34H411.54s.06982.23.21.69c1.21973,4.01,7.6499,25.6,16.5,62.24Q430.78491,445.38352,433.58008,457.52848Z"/><path fill="#e59876" d="M246.61939,287.42221c24.18811-4.2162,42.09119-32.23977,42.09119-32.23977s-23.9881-1.97507-38.99043-6.346H220.89032v36.27539a27.08355,27.08355,0,0,1-.73065,6.21716l-.00067.03792S222.431,291.63842,246.61939,287.42221Z"/><path fill="#e8e9ea" d="M433.67969,457.52848H78.53q2.25-9.795,4.33984-18.52v-.01c10.31006-42.98,17.55005-66.37,17.55005-66.37a53.6014,53.6014,0,0,1,8.54-21.69c7.97-11.65,18.09009-15.89,18.09009-15.89l24.93994-8.54,58.42993-19.99,1.18018-.4v80.68H299.04l-.27-80.61.27-.07,65.66992,22.61,18.37012,6.32a41.93307,41.93307,0,0,1,12.5,9.08c7.10986,7.33,11.54,16.33,13.91992,22.22.06982.19.1499.38.21973.56.09033.24.18017.47.26025.69.77,1.99,1.26025,3.51,1.51025,4.34.12989.45.19971.69.19971.69h.10986s6.77,21.88,16.54,62.22Q430.89014,445.3635,433.67969,457.52848Z"/><polygon fill="#d2d3d5" points="137.31 445.338 137.17 457.528 136.57 457.528 137.31 445.338"/><polygon fill="#d2d3d5" points="372.81 457.528 372.21 457.528 372.07 445.338 372.81 457.528"/><path fill="#d2d3d5" d="M307.08163,425.494H354.0298S340.0213,445.02212,307.08163,425.494Z"/><rect width="87.44" height="70.73" x="211.6" y="386.798" fill="#577fff"/><path fill="#f8b997" d="M310.57384,179.41352a10.63716,10.63716,0,0,0-4.5535.10549c-5.31323-36.68278-27.35932-64.19227-53.76069-64.19227-26.475,0-48.57393,27.66059-53.80857,64.49659a10.83446,10.83446,0,0,0-5.55188-.40981c-8.17521,1.62525-12.8456,12.78556-10.43174,24.92691,2.32934,11.71665,10.40422,20.03656,18.31311,19.14581,7.76327,28.75382,27.28484,49.02538,46.99185,54.152a17.86326,17.86326,0,0,0,4.48723.26662,13.85436,13.85436,0,0,0,3.57032-.16873c22.04548-5.89906,40.83407-25.53341,48.1471-54.18357,7.48144-.08786,14.82548-8.13021,17.02866-19.21208C323.41959,192.19908,318.749,181.03877,310.57384,179.41352Z"/><path fill="#e59876" d="M264.22628,217.68519a20.775,20.775,0,0,1-12.68895,6.07675c.14942.0249.29885.03736.44828.04981H251.089c.14943-.01245.29886-.02491.44829-.04981a20.7116,20.7116,0,0,1-12.52708-5.90242Z"/><path fill="#38101b" d="M240.604 174.50041a37.31565 37.31565 0 01-8.26855 1.3488c-1.36817.088-2.73145.11516-4.09278.10519l-1.99023-.03937q-.90673-.02794-1.812.01676a34.19113 34.19113 0 00-7.23877 1.07493c-.60889.15181-1.21387.3322-1.82959.5161-.64258.20687-1.31543.41315-1.98193.6a28.9136 28.9136 0 01-4.166.86043 28.87851 28.87851 0 013.00195-3.01387c.52832-.45739 1.04737-.9016 1.603-1.33382a16.63731 16.63731 0 011.84668-1.236 18.54244 18.54244 0 018.57959-2.44377c.75391-.01089 1.50879-.00937 2.25977.05472.77294.07429 1.37793.14508 2.07324.24348 1.34765.1892 2.69287.41548 4.0332.70267A37.31777 37.31777 0 01240.604 174.50041zM263.2432 174.50041a37.31813 37.31813 0 017.98242-2.54375c1.34034-.28719 2.68555-.51347 4.03321-.70267.69531-.0984 1.30029-.16919 2.07324-.24348.751-.06409 1.50586-.06561 2.25977-.05472a18.54251 18.54251 0 018.57959 2.44377 16.63824 16.63824 0 011.84668 1.236c.55566.43222 1.0747.87643 1.603 1.33382a28.92546 28.92546 0 013.002 3.01387 28.89959 28.89959 0 01-4.166-.86043c-.6665-.18686-1.33984-.39314-1.98242-.6-.61524-.1839-1.22022-.36429-1.8291-.5161a34.19113 34.19113 0 00-7.23877-1.07493q-.90455-.04335-1.812-.01676l-1.99073.03937c-1.36084.01-2.72412-.01715-4.09228-.10519A37.31564 37.31564 0 01263.2432 174.50041z"/><ellipse cx="311.716" cy="200.8" fill="#e59876" rx="13.043" ry="5.236" transform="rotate(-82.718 311.716 200.8)"/><ellipse cx="192.696" cy="200.8" fill="#e59876" rx="5.236" ry="13.043" transform="rotate(-7.282 192.696 200.8)"/><path fill="#e59876" d="M198.45121 179.82331c.48535 3.67008.76172 7.31369.97754 10.9534.23877 3.63858.37695 7.27.52539 10.89621l.36621 10.87436c.14307 3.62686.26807 7.24222.46045 10.939a47.91209 47.91209 0 01-2.79053-10.7139 88.81846 88.81846 0 01-1.0332-10.98749 107.10929 107.10929 0 01.13965-11.00918A76.68578 76.68578 0 01198.45121 179.82331zM306.32963 179.82331a76.61567 76.61567 0 011.35449 10.95237 107.10929 107.10929 0 01.13965 11.00918 88.81846 88.81846 0 01-1.0332 10.98749 47.93739 47.93739 0 01-2.79 10.7139c.19189-3.69675.31689-7.31211.46-10.939l.36621-10.87436c.14844-3.62616.28662-7.25763.52539-10.89621C305.56791 187.137 305.84428 183.49339 306.32963 179.82331z"/><path fill="#350313" d="M288.475,177.52288c.64269.20643,1.31456.41407,1.98278.59891a29.8519,29.8519,0,0,0,4.165.86157,29.89256,29.89256,0,0,0-3.00182-3.01307c-.52777-.45936-1.04763-.902-1.60276-1.33461a16.68639,16.68639,0,0,0-1.84657-1.23612,18.10676,18.10676,0,0,0-4.362-1.79337c.37211,1.55807.71625,3.214,1.0385,4.98459q.89745.18241,1.79733.41589C287.25467,177.15868,287.85965,177.339,288.475,177.52288Z"/><path fill="#350313" d="M200.00118,206.99808s7.5874-94.79887,75.129-75.672c0,0,32.22271,26.65957,30.13071,81.948,0,0,1.85489-19.57382,4.28333-34.01008,0,0,6.52541-35.0258-6.02266-54.5128-9.62119-14.9416-26.00052-17.9314-27.49481-17.9314,0,0-24.18447-18.24083-52.01648.77818a58.905,58.905,0,0,0-23.73033,35.055,156.9845,156.9845,0,0,0-4.03352,36.66158Z"/><path fill="#502e2c" d="M276.02689,106.81979a28.17137,28.17137,0,0,1,1.23829,6.18007,46.38466,46.38466,0,0,1,.17919,6.14132,45.56024,45.56024,0,0,1-.62255,6.112,27.82384,27.82384,0,0,1-1.69141,6.07286,27.7978,27.7978,0,0,1-1.24365-6.18025,45.64065,45.64065,0,0,1-.17432-6.14113,46.3843,46.3843,0,0,1,.62744-6.1118A28.145,28.145,0,0,1,276.02689,106.81979Z"/><path fill="none" stroke="#350313" stroke-miterlimit="10" stroke-width="1.245" d="M278.933,131.326s12.99207,27.18345,16.38138,41.66858,8.77877,36.96071,1.49683,67.27578,8.41294,34.66477,8.41294,34.66477"/><path fill="#38101b" d="M235.45365 193.3415a15.87534 15.87534 0 00-3.81836-3.8464 9.7692 9.7692 0 00-2.21435-1.07105 8.42126 8.42126 0 00-1.1753-.25763l-.59521-.09045-.61084-.01038a12.76694 12.76694 0 00-2.50195.1965 12.56972 12.56972 0 00-2.40772.7367 12.34344 12.34344 0 00-4.28076 3.235 7.93186 7.93186 0 013.30078-4.93061 10.109 10.109 0 012.83447-1.33767 10.97354 10.97354 0 013.10645-.38916 8.67914 8.67914 0 013.15527.64032 8.81758 8.81758 0 012.64014 1.78085A8.9955 8.9955 0 01235.45365 193.3415zM283.93217 193.3415a15.87552 15.87552 0 00-3.81836-3.8464 9.76947 9.76947 0 00-2.21436-1.07105 8.42144 8.42144 0 00-1.17529-.25763l-.59521-.09045-.61084-.01038a12.767 12.767 0 00-2.502.1965 12.58026 12.58026 0 00-2.40771.7367 12.33742 12.33742 0 00-4.28028 3.235 7.92916 7.92916 0 013.3003-4.93061 10.10533 10.10533 0 012.835-1.33767 10.96781 10.96781 0 013.106-.38916 8.67919 8.67919 0 013.15528.64032 8.81771 8.81771 0 012.64014 1.78085A8.99556 8.99556 0 01283.93217 193.3415z"/><path fill="#fdffff" d="M230.16449,236.477s35.98052-3.8129,43.14415-1.19622c0,0-15.6978,11.407-19.46555,10.83831S230.16449,236.477,230.16449,236.477Z"/><path fill="#d7645d" d="M230.16438,236.47692s10.7967,14.88642,23.74838,13.12161,19.396-14.31776,19.396-14.31776a47.56159,47.56159,0,0,1-43.14441,1.19615Z"/><path fill="#a75844" d="M230.16449,236.477s14.09116-7.44593,43.14415-1.19622C273.30864,235.28082,254.21688,236.1331,230.16449,236.477Z"/><ellipse cx="284.034" cy="210.288" fill="url(#a)" opacity=".58" rx="13.399" ry="10.134"/><ellipse cx="219.202" cy="210.288" fill="url(#c)" opacity=".58" rx="13.399" ry="10.134"/></svg>