<svg width="111" height="111" viewBox="0 0 111 111" fill="none" xmlns="http://www.w3.org/2000/svg">
<circle cx="55.5" cy="55.5" r="55.5" fill="#2A2552"/>
<g filter="url(#filter0_d_13_203)">
<path d="M59.499 69.4443H48.293C48.3223 66.8076 48.5273 64.5371 48.9082 62.6328C49.3184 60.6992 50.0068 58.9561 50.9736 57.4033C51.9697 55.8506 53.2881 54.3125 54.9287 52.7891C56.3057 51.5586 57.5068 50.3867 58.5322 49.2734C59.5576 48.1602 60.3633 47.0176 60.9492 45.8457C61.5352 44.6445 61.8281 43.3115 61.8281 41.8467C61.8281 40.1475 61.5645 38.7412 61.0371 37.6279C60.5391 36.4854 59.7773 35.6211 58.752 35.0352C57.7559 34.4492 56.4961 34.1562 54.9727 34.1562C53.7129 34.1562 52.541 34.4346 51.457 34.9912C50.373 35.5186 49.4795 36.3389 48.7764 37.4521C48.1025 38.5654 47.751 40.0303 47.7217 41.8467H34.9775C35.0654 37.833 35.9883 34.5225 37.7461 31.915C39.5332 29.2783 41.9209 27.3301 44.9092 26.0703C47.8975 24.7813 51.252 24.1367 54.9727 24.1367C59.0742 24.1367 62.5898 24.8105 65.5195 26.1582C68.4492 27.4766 70.6904 29.4248 72.2432 32.0029C73.7959 34.5518 74.5723 37.6572 74.5723 41.3193C74.5723 43.8682 74.0742 46.1387 73.0781 48.1309C72.082 50.0938 70.7783 51.9248 69.167 53.624C67.5557 55.3232 65.7832 57.0811 63.8496 58.8975C62.1797 60.3916 61.0371 61.959 60.4219 63.5996C59.8359 65.2402 59.5283 67.1885 59.499 69.4443ZM46.9746 83.0234C46.9746 81.1484 47.6191 79.5957 48.9082 78.3652C50.1973 77.1055 51.9258 76.4756 54.0938 76.4756C56.2324 76.4756 57.9463 77.1055 59.2354 78.3652C60.5537 79.5957 61.2129 81.1484 61.2129 83.0234C61.2129 84.8398 60.5537 86.3779 59.2354 87.6377C57.9463 88.8975 56.2324 89.5273 54.0938 89.5273C51.9258 89.5273 50.1973 88.8975 48.9082 87.6377C47.6191 86.3779 46.9746 84.8398 46.9746 83.0234Z" fill="#EAE9EE"/>
</g>
<defs>
<filter id="filter0_d_13_203" x="30.9775" y="24.1367" width="47.5947" height="73.3906" filterUnits="userSpaceOnUse" color-interpolation-filters="sRGB">
<feFlood flood-opacity="0" result="BackgroundImageFix"/>
<feColorMatrix in="SourceAlpha" type="matrix" values="0 0 0 0 0 0 0 0 0 0 0 0 0 0 0 0 0 0 127 0" result="hardAlpha"/>
<feOffset dy="4"/>
<feGaussianBlur stdDeviation="2"/>
<feComposite in2="hardAlpha" operator="out"/>
<feColorMatrix type="matrix" values="0 0 0 0 0 0 0 0 0 0 0 0 0 0 0 0 0 0 0.25 0"/>
<feBlend mode="normal" in2="BackgroundImageFix" result="effect1_dropShadow_13_203"/>
<feBlend mode="normal" in="SourceGraphic" in2="effect1_dropShadow_13_203" result="shape"/>
</filter>
</defs>
</svg>
