<svg width="111" height="111" viewBox="0 0 111 111" fill="none" xmlns="http://www.w3.org/2000/svg">
<circle cx="55.5" cy="55.5" r="55.5" fill="#FDC040"/>
<g filter="url(#filter0_d_13_204)">
<path d="M62.2041 22.0156L60.7539 66.4443H50.207L48.7129 22.0156H62.2041ZM48.3613 80.1992C48.3613 78.3242 49.0059 76.7715 50.2949 75.541C51.6133 74.2812 53.3418 73.6514 55.4805 73.6514C57.6484 73.6514 59.377 74.2812 60.666 75.541C61.9551 76.7715 62.5996 78.3242 62.5996 80.1992C62.5996 82.0156 61.9551 83.5537 60.666 84.8135C59.377 86.0732 57.6484 86.7031 55.4805 86.7031C53.3418 86.7031 51.6133 86.0732 50.2949 84.8135C49.0059 83.5537 48.3613 82.0156 48.3613 80.1992Z" fill="#FEEBC8"/>
</g>
<defs>
<filter id="filter0_d_13_204" x="44.3613" y="22.0156" width="22.2383" height="72.6875" filterUnits="userSpaceOnUse" color-interpolation-filters="sRGB">
<feFlood flood-opacity="0" result="BackgroundImageFix"/>
<feColorMatrix in="SourceAlpha" type="matrix" values="0 0 0 0 0 0 0 0 0 0 0 0 0 0 0 0 0 0 127 0" result="hardAlpha"/>
<feOffset dy="4"/>
<feGaussianBlur stdDeviation="2"/>
<feComposite in2="hardAlpha" operator="out"/>
<feColorMatrix type="matrix" values="0 0 0 0 0 0 0 0 0 0 0 0 0 0 0 0 0 0 0.25 0"/>
<feBlend mode="normal" in2="BackgroundImageFix" result="effect1_dropShadow_13_204"/>
<feBlend mode="normal" in="SourceGraphic" in2="effect1_dropShadow_13_204" result="shape"/>
</filter>
</defs>
</svg>
